<svg width="394" height="105" viewBox="0 0 394 105" fill="none" xmlns="http://www.w3.org/2000/svg">
<rect width="8" height="70" rx="2" transform="matrix(1 0 0 -1 0 105)" fill="#F8B602"/>
<rect width="8" height="105" rx="2" transform="matrix(1 0 0 -1 24 105)" fill="#EB5757"/>
<rect width="8" height="58" rx="2" transform="matrix(1 0 0 -1 48 105)" fill="#F8B602"/>
<rect width="9" height="47" rx="2" transform="matrix(1 0 0 -1 72 105)" fill="#EB5757"/>
<rect width="8" height="70" rx="2" transform="matrix(1 0 0 -1 97 105)" fill="#F8B602"/>
<rect width="8" height="105" rx="2" transform="matrix(1 0 0 -1 121 105)" fill="#EB5757"/>
<rect width="8" height="58" rx="2" transform="matrix(1 0 0 -1 145 105)" fill="#F8B602"/>
<rect width="8" height="70" rx="2" transform="matrix(1 0 0 -1 169 105)" fill="#EB5757"/>
<rect width="8" height="105" rx="2" transform="matrix(1 0 0 -1 193 105)" fill="#F8B602"/>
<rect width="8" height="58" rx="2" transform="matrix(1 0 0 -1 217 105)" fill="#EB5757"/>
<rect width="9" height="47" rx="2" transform="matrix(1 0 0 -1 241 105)" fill="#F8B602"/>
<rect width="8" height="70" rx="2" transform="matrix(1 0 0 -1 266 105)" fill="#EB5757"/>
<rect width="8" height="105" rx="2" transform="matrix(1 0 0 -1 290 105)" fill="#F8B602"/>
<rect width="8" height="58" rx="2" transform="matrix(1 0 0 -1 314 105)" fill="#EB5757"/>
<rect width="8" height="70" rx="2" transform="matrix(1 0 0 -1 338 105)" fill="#F8B602"/>
<rect width="8" height="105" rx="2" transform="matrix(1 0 0 -1 362 105)" fill="#EB5757"/>
<rect width="8" height="58" rx="2" transform="matrix(1 0 0 -1 386 105)" fill="#F8B602"/>
</svg>
