<svg width="40" height="40" viewBox="0 0 40 40" fill="none" xmlns="http://www.w3.org/2000/svg">
<path d="M14.325 34.2002C13.0909 34.1974 11.8852 33.8294 10.8599 33.1424C9.83468 32.4555 9.03573 31.4804 8.56382 30.3401C8.09191 29.1997 7.96816 27.9452 8.20818 26.7346C8.4482 25.5241 9.04123 24.4117 9.91253 23.5377L20.5125 12.9252C20.8614 12.5763 21.2755 12.2996 21.7312 12.1108C22.187 11.9221 22.6755 11.8249 23.1688 11.8249C23.6621 11.8249 24.1506 11.9221 24.6063 12.1108C25.0621 12.2996 25.4762 12.5763 25.825 12.9252C26.1739 13.274 26.4506 13.6881 26.6393 14.1439C26.8281 14.5996 26.9253 15.0881 26.9253 15.5814C26.9253 16.0747 26.8281 16.5632 26.6393 17.019C26.4506 17.4747 26.1739 17.8888 25.825 18.2377L15.2125 28.8377C15.1005 28.9685 14.9626 29.0748 14.8075 29.1498C14.6524 29.2248 14.4835 29.267 14.3113 29.2736C14.1392 29.2803 13.9675 29.2513 13.8071 29.1884C13.6467 29.1256 13.501 29.0303 13.3792 28.9085C13.2574 28.7866 13.1621 28.641 13.0992 28.4806C13.0364 28.3201 13.0074 28.1485 13.014 27.9763C13.0207 27.8042 13.0628 27.6353 13.1379 27.4802C13.2129 27.3251 13.3192 27.1872 13.45 27.0752L24.05 16.4627C24.2548 16.2235 24.3618 15.9159 24.3497 15.6013C24.3375 15.2867 24.2071 14.9883 23.9845 14.7657C23.7619 14.5431 23.4634 14.4127 23.1488 14.4005C22.8343 14.3884 22.5267 14.4954 22.2875 14.7002L11.675 25.3002C10.9705 26.0046 10.5748 26.9601 10.5748 27.9564C10.5748 28.9527 10.9705 29.9082 11.675 30.6127C12.3795 31.3171 13.335 31.7129 14.3313 31.7129C15.3276 31.7129 16.283 31.3171 16.9875 30.6127L27.5875 20.0002C28.726 18.8214 29.356 17.2426 29.3417 15.6039C29.3275 13.9652 28.6702 12.3976 27.5114 11.2388C26.3526 10.08 24.785 9.42268 23.1463 9.40844C21.5076 9.3942 19.9288 10.0242 18.75 11.1627L12.5625 17.4127C12.3283 17.6455 12.0115 17.7761 11.6813 17.7761C11.351 17.7761 11.0342 17.6455 10.8 17.4127C10.6829 17.2964 10.5899 17.1582 10.5264 17.0059C10.463 16.8535 10.4303 16.6902 10.4303 16.5252C10.4303 16.3601 10.463 16.1968 10.5264 16.0444C10.5899 15.8921 10.6829 15.7539 10.8 15.6377L16.9875 9.38765C18.6286 7.74663 20.8543 6.82471 23.175 6.82471C25.4958 6.82471 27.7215 7.74663 29.3625 9.38765C31.0036 11.0287 31.9255 13.2544 31.9255 15.5752C31.9255 17.8959 31.0036 20.1216 29.3625 21.7627L18.75 32.3752C18.1685 32.9552 17.4784 33.4149 16.7192 33.728C15.9599 34.0412 15.1463 34.2016 14.325 34.2002Z" fill="#A098AE"/>
</svg>
