<svg width="322" height="67" viewBox="0 0 322 67" fill="none" xmlns="http://www.w3.org/2000/svg">
<path d="M0.592719 17.191L4.39626 16.0123C8.19979 14.8335 15.8069 12.476 23.4139 22.1072C31.021 31.7383 38.6281 53.358 46.2352 61.1326C53.8422 68.9071 61.4493 62.8365 69.0564 53.9184C76.6634 45.0004 84.2705 33.2349 91.8776 29.2682C99.4847 25.3014 107.092 29.1334 114.699 31.4433C122.306 33.7533 129.913 34.5412 137.52 34.8783C145.127 35.2153 152.734 35.1014 160.341 40.8294C167.948 46.5574 175.555 58.1272 183.162 54.8391C190.77 51.5509 198.377 33.4047 205.984 32.1054C213.591 30.806 221.198 46.3535 228.805 45.0842C236.412 43.8148 244.019 25.7287 251.626 18.5461C259.233 11.3636 266.84 15.0846 274.447 25.9459C282.054 36.8072 289.662 54.8087 297.269 51.7751C304.876 48.7414 312.483 24.6725 316.286 12.6381L320.09 0.603661" stroke="#F8B602" stroke-width="4"/>
</svg>
