<svg width="56" height="56" viewBox="0 0 56 56" fill="none" xmlns="http://www.w3.org/2000/svg">
<g clip-path="url(#clip0_2_2608)">
<path d="M11.4915 49.4667C10.9082 48.9417 10.3249 48.3 9.79987 47.7167L11.5499 46.2C12.0165 46.725 12.5415 47.3083 13.0665 47.775L11.4915 49.4667ZM7.64154 44.8C7.2332 44.1 6.82487 43.4 6.41654 42.7L8.4582 41.65C8.8082 42.2917 9.1582 42.9333 9.56654 43.575L7.64154 44.8ZM5.07487 39.3167C4.84154 38.5583 4.6082 37.7417 4.4332 36.9833L6.7082 36.5167C6.8832 37.2167 7.0582 37.9167 7.29154 38.6167L5.07487 39.3167ZM3.96654 33.3667C3.9082 32.8417 3.9082 32.375 3.9082 31.85C3.9082 31.5583 3.9082 31.2667 3.9082 30.9167L6.24154 31.0333C6.24154 31.325 6.24154 31.5583 6.24154 31.85C6.24154 32.3167 6.24154 32.7833 6.29987 33.1917L3.96654 33.3667ZM6.59154 27.7667L4.31654 27.3583C4.49154 26.5417 4.66654 25.7833 4.89987 25.025L7.11654 25.6667C6.8832 26.3667 6.7082 27.0667 6.59154 27.7667ZM8.2832 22.575L6.1832 21.5833C6.5332 20.8833 6.8832 20.125 7.34987 19.425L9.3332 20.5917C8.92487 21.2917 8.57487 21.9333 8.2832 22.575ZM45.3832 48.5917L43.7499 46.9583C44.2749 46.4333 44.7415 45.85 45.2082 45.325L47.0165 46.725C46.4915 47.3667 45.9665 48.0083 45.3832 48.5917ZM48.9999 43.6917L47.0165 42.5833C47.3665 41.9417 47.7165 41.3 48.0082 40.6L50.1082 41.5333C49.7582 42.2917 49.4082 42.9917 48.9999 43.6917ZM51.2749 38.15L49.0582 37.5667C49.2332 36.8667 49.4082 36.1667 49.5249 35.4083L51.7999 35.7583C51.6832 36.5167 51.5082 37.3333 51.2749 38.15ZM52.0915 32.1417H49.7582V31.9083C49.7582 31.2667 49.6999 30.5667 49.6415 29.925L51.9165 29.6917C51.9749 30.3917 52.0332 31.15 52.0332 31.85L52.0915 32.1417ZM49.1749 26.6583C48.9999 25.9583 48.7665 25.2583 48.5332 24.5583L50.6915 23.8C50.9832 24.5583 51.2165 25.3167 51.3915 26.1333L49.1749 26.6583ZM47.1915 21.5833C46.8415 20.9417 46.4915 20.3 46.0832 19.7167L48.0082 18.4333C48.4749 19.075 48.8832 19.775 49.2915 20.5333L47.1915 21.5833Z" fill="#2E2E2E"/>
<path d="M12.8917 1.45833H43.1084L47.0167 9.21667H8.9834L12.8917 1.45833Z" fill="#A6C44A"/>
<path d="M48.9417 10.3833H7.1167L12.1917 0.291668H43.8667L48.9417 10.3833ZM10.85 8.05H45.2084L42.4667 2.56667H13.65L10.85 8.05Z" fill="#2E2E2E"/>
<path d="M16.7999 54.5417H39.1999L40.5999 43.5167H15.3999L16.7999 54.5417Z" fill="white"/>
<path d="M40.25 55.7083H15.75L14.1167 42.35H41.9417L40.25 55.7083ZM17.7917 53.375H38.2084L39.3167 44.625H16.6834L17.7917 53.375Z" fill="#2E2E2E"/>
<path d="M44.8583 9.21667H11.1416L12.4833 20.2417H43.5166L44.8583 9.21667Z" fill="white"/>
<path d="M44.5084 21.4083H11.4917L9.8584 8.05001H46.2001L44.5084 21.4083ZM13.5334 19.075H42.4667L43.5751 10.325H12.4251L13.5334 19.075Z" fill="#2E2E2E"/>
<path d="M12.4834 20.2417L15.4001 43.5167H40.6001L43.5167 20.2417H12.4834Z" fill="#F8B602"/>
<path d="M41.5919 44.6833H14.4085L11.2002 19.1333H44.8002L41.5919 44.6833ZM16.3919 42.35H39.5502L42.1752 21.4083H13.8252L16.3919 42.35Z" fill="#F8B602"/>
<path d="M27.9999 39.8417C31.5115 39.8417 34.3583 36.2898 34.3583 31.9083C34.3583 27.5269 31.5115 23.975 27.9999 23.975C24.4883 23.975 21.6416 27.5269 21.6416 31.9083C21.6416 36.2898 24.4883 39.8417 27.9999 39.8417Z" fill="white"/>
<path d="M28.0001 40.95C23.8584 40.95 20.4751 36.8667 20.4751 31.85C20.4751 26.8333 23.8584 22.8083 28.0001 22.8083C32.1418 22.8083 35.5251 26.8917 35.5251 31.9083C35.5251 36.925 32.1418 40.95 28.0001 40.95ZM28.0001 25.0833C25.1418 25.0833 22.8084 28.1167 22.8084 31.85C22.8084 35.5833 25.1418 38.6167 28.0001 38.6167C30.8584 38.6167 33.1918 35.5833 33.1918 31.85C33.1918 28.1167 30.8584 25.0833 28.0001 25.0833Z" fill="#2E2E2E"/>
<path d="M27.4751 40.075C26.8334 38.4417 26.7751 36.6917 27.2418 35C27.3584 34.5917 27.5334 34.1833 27.6501 33.8333C27.8251 33.3083 28.0001 32.8417 28.1168 32.4333C28.2334 31.675 28.1168 30.8 27.7668 29.925C27.4168 29.05 26.8334 28.175 26.2501 27.3583C25.9001 26.8917 25.6084 26.3667 25.3751 25.7833C25.0834 24.9667 25.0251 24.15 25.3168 23.45L27.4751 24.325C27.4168 24.5 27.4168 24.7333 27.5334 24.9667C27.6501 25.3167 27.8834 25.6667 28.1751 26.0167C28.8168 26.95 29.4584 27.9417 29.9251 29.05C30.4501 30.3333 30.6251 31.675 30.4501 32.8417C30.3334 33.5417 30.1001 34.125 29.8668 34.7083C29.7501 35.0583 29.6334 35.35 29.5168 35.7C29.1668 36.8667 29.2251 38.15 29.6918 39.2583L27.4751 40.075Z" fill="#2E2E2E"/>
</g>
<defs>
<clipPath id="clip0_2_2608">
<rect width="56" height="56" fill="white"/>
</clipPath>
</defs>
</svg>
