<svg width="24" height="20" viewBox="0 0 24 20" fill="none" xmlns="http://www.w3.org/2000/svg">
<path d="M23.4359 5.58629C23.1309 4.15635 22.6352 2.97427 21.7581 2.04004C20.5189 0.667304 18.8983 0 16.9726 0H16.7248C14.6847 0.0571975 13.0069 0.877028 11.8248 2.36416C11.3863 1.86845 10.8334 1.37274 10.2042 0.991423C8.96496 0.247855 7.53503 -0.0571976 5.91443 0.0571973C4.12224 0.247856 2.69231 1.04862 1.62462 2.36416C0.499737 3.8513 -0.0531718 5.52909 0.00402563 7.26408C0.0612231 8.88467 0.556935 10.3718 1.49116 11.8017C2.53978 13.4223 3.85532 14.6616 5.0374 15.653C6.7152 17.1402 8.64084 18.4557 11.0622 19.8094C11.3101 19.9429 11.5007 20.0001 11.7486 20.0001C11.9964 20.0001 12.1871 19.9429 12.4349 19.8094C14.5512 18.6273 16.4006 17.388 18.0784 15.9581C19.8134 14.5282 21.0527 13.1554 22.0441 11.6683C23.3787 9.74264 23.7982 7.75979 23.4359 5.58629Z" fill="#DBDBDB"/>
</svg>
