<svg width="21" height="21" viewBox="0 0 21 21" fill="none" xmlns="http://www.w3.org/2000/svg">
<path d="M2.62488 5.24976C4.07456 5.24976 5.24976 4.07456 5.24976 2.62488C5.24976 1.1752 4.07456 0 2.62488 0C1.1752 0 0 1.1752 0 2.62488C0 4.07456 1.1752 5.24976 2.62488 5.24976Z" fill="#2E2E2E"/>
<path d="M10.4995 13.4994C12.1563 13.4994 13.4994 12.1563 13.4994 10.4995C13.4994 8.84273 12.1563 7.49965 10.4995 7.49965C8.84273 7.49965 7.49965 8.84273 7.49965 10.4995C7.49965 12.1563 8.84273 13.4994 10.4995 13.4994Z" fill="#2E2E2E"/>
<path d="M18.7491 2.99986C18.1524 2.99986 17.5801 3.2369 17.1582 3.65884C16.7363 4.08078 16.4992 4.65305 16.4992 5.24976C16.4995 5.67756 16.6218 6.09642 16.8517 6.4572C17.0615 6.78703 17.3536 7.05652 17.6992 7.23911C18.0448 7.4217 18.4321 7.51109 18.8228 7.49848C19.2135 7.48586 19.5941 7.37168 19.9273 7.16717C20.2604 6.96267 20.5345 6.6749 20.7226 6.33222C20.9106 5.98954 21.0062 5.60377 20.9998 5.21293C20.9934 4.82209 20.8852 4.43966 20.6861 4.10332C20.4869 3.76697 20.2035 3.48833 19.8639 3.29484C19.5242 3.10135 19.14 2.99968 18.7491 2.99986Z" fill="#2E2E2E"/>
<path d="M5.99972 20.999C7.2423 20.999 8.24962 19.9917 8.24962 18.7491C8.24962 17.5065 7.2423 16.4992 5.99972 16.4992C4.75714 16.4992 3.74983 17.5065 3.74983 18.7491C3.74983 19.9917 4.75714 20.999 5.99972 20.999Z" fill="#2E2E2E"/>
<path d="M8.90955 9.65952C8.81085 9.66009 8.71301 9.64117 8.62163 9.60385C8.53026 9.56652 8.44715 9.51153 8.37707 9.44203L3.41981 4.49975C3.27659 4.35654 3.19614 4.16231 3.19614 3.95978C3.19614 3.75725 3.27659 3.56302 3.41981 3.41981C3.56302 3.27659 3.75725 3.19614 3.95978 3.19614C4.16231 3.19614 4.35654 3.27659 4.49975 3.41981L9.45702 8.37707C9.56279 8.48197 9.63492 8.61599 9.66422 8.76205C9.69352 8.9081 9.67867 9.05957 9.62154 9.19715C9.56442 9.33472 9.46762 9.45217 9.34349 9.53452C9.21936 9.61687 9.07351 9.66038 8.92455 9.65952H8.90955ZM12.3969 10.042C12.2358 10.04 12.0796 9.98616 11.9515 9.88849C11.8234 9.79081 11.7302 9.65448 11.6856 9.49967C11.641 9.34487 11.6474 9.17982 11.7039 9.02896C11.7605 8.8781 11.8641 8.74945 11.9994 8.66206L17.0842 5.42221C17.2522 5.3148 17.4561 5.27856 17.6509 5.32146C17.8457 5.36436 18.0155 5.48288 18.1229 5.65095C18.2303 5.81902 18.2665 6.02288 18.2236 6.21768C18.1807 6.41247 18.0622 6.58225 17.8941 6.68965L12.8094 9.9295C12.6857 10.0062 12.5424 10.0453 12.3969 10.042ZM6.74965 18.1791C6.61929 18.1795 6.49109 18.1458 6.37769 18.0815C6.26428 18.0172 6.1696 17.9245 6.10298 17.8124C6.03635 17.7004 6.00009 17.5729 5.99775 17.4426C5.99542 17.3122 6.02711 17.1835 6.08968 17.0692L8.78956 12.1194C8.88901 11.9444 9.05392 11.816 9.24801 11.7626C9.4421 11.7091 9.64947 11.735 9.82451 11.8344C9.99954 11.9339 10.1279 12.0988 10.1813 12.2929C10.2348 12.487 10.2089 12.6943 10.1095 12.8694L7.40962 17.8191C7.34102 17.9319 7.24388 18.0246 7.128 18.0878C7.01212 18.151 6.88161 18.1825 6.74965 18.1791Z" fill="#2E2E2E"/>
</svg>
