<svg width="1040" height="240" viewBox="0 0 1040 240" fill="none" xmlns="http://www.w3.org/2000/svg">
<mask id="mask0_2_364" style="mask-type:alpha" maskUnits="userSpaceOnUse" x="0" y="0" width="1040" height="240">
<rect width="1040" height="240" rx="16" fill="#F8B602"/>
</mask>
<g mask="url(#mask0_2_364)">
<rect width="1040" height="240" rx="16" fill="#F8B602"/>
<path opacity="0.25" d="M868 -28.5C868 50.2006 804.201 114 725.5 114C646.799 114 583 50.2006 583 -28.5C583 -107.201 646.799 -171 725.5 -171C804.201 -171 868 -107.201 868 -28.5ZM631.8 -28.5C631.8 23.2488 673.751 65.1995 725.5 65.1995C777.249 65.1995 819.2 23.2488 819.2 -28.5C819.2 -80.2488 777.249 -122.2 725.5 -122.2C673.751 -122.2 631.8 -80.2488 631.8 -28.5Z" fill="white"/>
<path opacity="0.25" d="M1150 238.5C1150 317.201 1086.2 381 1007.5 381C928.799 381 865 317.201 865 238.5C865 159.799 928.799 96 1007.5 96C1086.2 96 1150 159.799 1150 238.5ZM913.8 238.5C913.8 290.249 955.751 332.2 1007.5 332.2C1059.25 332.2 1101.2 290.249 1101.2 238.5C1101.2 186.751 1059.25 144.8 1007.5 144.8C955.751 144.8 913.8 186.751 913.8 238.5Z" fill="white"/>
<path opacity="0.25" d="M175 280.5C175 359.201 111.201 423 32.5 423C-46.2006 423 -110 359.201 -110 280.5C-110 201.799 -46.2006 138 32.5 138C111.201 138 175 201.799 175 280.5ZM-61.1995 280.5C-61.1995 332.249 -19.2488 374.2 32.5 374.2C84.2488 374.2 126.2 332.249 126.2 280.5C126.2 228.751 84.2488 186.8 32.5 186.8C-19.2488 186.8 -61.1995 228.751 -61.1995 280.5Z" fill="white"/>
</g>
</svg>
