<svg width="23" height="18" viewBox="0 0 23 18" fill="none" xmlns="http://www.w3.org/2000/svg">
<path d="M21.9176 2.66528C21.5276 2.58574 21.1696 2.39327 20.8881 2.11182C20.6066 1.83036 20.4142 1.47236 20.3346 1.08235C20.2723 0.776758 20.1062 0.502103 19.8646 0.304869C19.623 0.107635 19.3206 -6.36288e-05 19.0088 2.82028e-08H6.76468V1.35294C6.76468 1.53235 6.69341 1.70441 6.56655 1.83127C6.43969 1.95813 6.26762 2.0294 6.08821 2.0294C5.9088 2.0294 5.73674 1.95813 5.60988 1.83127C5.48301 1.70441 5.41174 1.53235 5.41174 1.35294V2.82028e-08H3.99116C3.67927 -6.36288e-05 3.37693 0.107635 3.13532 0.304869C2.89371 0.502103 2.72766 0.776758 2.66528 1.08235C2.58574 1.47236 2.39327 1.83036 2.11182 2.11182C1.83036 2.39327 1.47236 2.58574 1.08235 2.66528C0.776758 2.72766 0.502103 2.89371 0.304869 3.13532C0.107635 3.37693 -6.36288e-05 3.67927 2.82028e-08 3.99116V13.597C-6.36288e-05 13.9089 0.107635 14.2112 0.304869 14.4529C0.502103 14.6945 0.776758 14.8605 1.08235 14.9229C1.47236 15.0024 1.83036 15.1949 2.11182 15.4764C2.39327 15.7578 2.58574 16.1158 2.66528 16.5058C2.72766 16.8114 2.89371 17.0861 3.13532 17.2833C3.37693 17.4805 3.67927 17.5882 3.99116 17.5882H5.41174V16.2352C5.41174 16.0558 5.48301 15.8838 5.60988 15.7569C5.73674 15.63 5.9088 15.5588 6.08821 15.5588C6.26762 15.5588 6.43969 15.63 6.56655 15.7569C6.69341 15.8838 6.76468 16.0558 6.76468 16.2352V17.5882H19.0088C19.3206 17.5882 19.623 17.4805 19.8646 17.2833C20.1062 17.0861 20.2723 16.8114 20.3346 16.5058C20.4142 16.1158 20.6066 15.7578 20.8881 15.4764C21.1696 15.1949 21.5276 15.0024 21.9176 14.9229C22.2232 14.8605 22.4978 14.6945 22.695 14.4529C22.8923 14.2112 23 13.9089 22.9999 13.597V3.99116C23 3.67927 22.8923 3.37693 22.695 3.13532C22.4978 2.89371 22.2232 2.72766 21.9176 2.66528ZM6.76468 13.6308C6.76468 13.8102 6.69341 13.9823 6.56655 14.1092C6.43969 14.236 6.26762 14.3073 6.08821 14.3073C5.9088 14.3073 5.73674 14.236 5.60988 14.1092C5.48301 13.9823 5.41174 13.8102 5.41174 13.6308V12.1426C5.41174 11.9632 5.48301 11.7911 5.60988 11.6643C5.73674 11.5374 5.9088 11.4661 6.08821 11.4661C6.26762 11.4661 6.43969 11.5374 6.56655 11.6643C6.69341 11.7911 6.76468 11.9632 6.76468 12.1426V13.6308ZM6.76468 9.5382C6.76468 9.71761 6.69341 9.88967 6.56655 10.0165C6.43969 10.1434 6.26762 10.2147 6.08821 10.2147C5.9088 10.2147 5.73674 10.1434 5.60988 10.0165C5.48301 9.88967 5.41174 9.71761 5.41174 9.5382V8.04997C5.41174 7.87056 5.48301 7.6985 5.60988 7.57164C5.73674 7.44477 5.9088 7.3735 6.08821 7.3735C6.26762 7.3735 6.43969 7.44477 6.56655 7.57164C6.69341 7.6985 6.76468 7.87056 6.76468 8.04997V9.5382ZM6.76468 5.44422C6.76468 5.62363 6.69341 5.79569 6.56655 5.92255C6.43969 6.04941 6.26762 6.12068 6.08821 6.12068C5.9088 6.12068 5.73674 6.04941 5.60988 5.92255C5.48301 5.79569 5.41174 5.62363 5.41174 5.44422V3.95599C5.41174 3.77658 5.48301 3.60451 5.60988 3.47765C5.73674 3.35079 5.9088 3.27952 6.08821 3.27952C6.26762 3.27952 6.43969 3.35079 6.56655 3.47765C6.69341 3.60451 6.76468 3.77658 6.76468 3.95599V5.44422ZM14.2058 6.08821C14.2036 6.68636 14.0032 7.2669 13.636 7.73909C13.2689 8.21128 12.7556 8.54849 12.1764 8.69803V13.5294C12.1764 13.7088 12.1052 13.8808 11.9783 14.0077C11.8514 14.1346 11.6794 14.2058 11.5 14.2058C11.3205 14.2058 11.1485 14.1346 11.0216 14.0077C10.8948 13.8808 10.8235 13.7088 10.8235 13.5294V8.69803C10.2443 8.54849 9.73105 8.21128 9.36387 7.73909C8.9967 7.2669 8.79633 6.68636 8.79409 6.08821V4.05881C8.79409 3.8794 8.86536 3.70734 8.99222 3.58047C9.11908 3.45361 9.29114 3.38234 9.47055 3.38234C9.64996 3.38234 9.82203 3.45361 9.94889 3.58047C10.0758 3.70734 10.147 3.8794 10.147 4.05881V6.08821C10.1497 6.32152 10.2136 6.55003 10.3323 6.75089C10.451 6.95175 10.6204 7.11793 10.8235 7.2328V4.05881C10.8235 3.8794 10.8948 3.70734 11.0216 3.58047C11.1485 3.45361 11.3205 3.38234 11.5 3.38234C11.6794 3.38234 11.8514 3.45361 11.9783 3.58047C12.1052 3.70734 12.1764 3.8794 12.1764 4.05881V7.2328C12.3795 7.11793 12.5489 6.95175 12.6676 6.75089C12.7863 6.55003 12.8502 6.32152 12.8529 6.08821V4.05881C12.8529 3.8794 12.9242 3.70734 13.051 3.58047C13.1779 3.45361 13.35 3.38234 13.5294 3.38234C13.7088 3.38234 13.8808 3.45361 14.0077 3.58047C14.1346 3.70734 14.2058 3.8794 14.2058 4.05881V6.08821ZM18.8559 10.9453L16.9117 11.918V13.5294C16.9117 13.7088 16.8404 13.8808 16.7136 14.0077C16.5867 14.1346 16.4146 14.2058 16.2352 14.2058C16.0558 14.2058 15.8838 14.1346 15.7569 14.0077C15.63 13.8808 15.5588 13.7088 15.5588 13.5294V4.05881C15.5585 3.92484 15.5981 3.79382 15.6724 3.68235C15.7467 3.57088 15.8524 3.48399 15.9762 3.43269C16.1 3.38139 16.2362 3.36799 16.3675 3.39419C16.4989 3.4204 16.6196 3.48502 16.7142 3.57987C18.4143 5.16626 19.4475 7.33991 19.604 9.65997C19.6185 9.92386 19.5554 10.1862 19.4224 10.4146C19.2894 10.643 19.0925 10.8275 18.8559 10.9453Z" fill="white"/>
</svg>
