<svg width="27" height="19" viewBox="0 0 27 19" fill="none" xmlns="http://www.w3.org/2000/svg">
<path d="M26.4073 1.5822C26.2246 1.45861 26.0144 1.38168 25.795 1.35815C25.5757 1.33461 25.3539 1.36519 25.1491 1.4472L20.1879 3.4317C20.0407 2.47854 19.5581 1.60921 18.8271 0.980125C18.096 0.351035 17.1645 0.00348372 16.2 0H4.05C2.97587 0 1.94574 0.426695 1.18622 1.18622C0.426695 1.94574 0 2.97587 0 4.05V14.85C0 15.9241 0.426695 16.9543 1.18622 17.7138C1.94574 18.4733 2.97587 18.9 4.05 18.9H16.2C17.1643 18.8966 18.0956 18.5492 18.8267 17.9204C19.5577 17.2916 20.0404 16.4226 20.1879 15.4696L25.1491 17.4541C25.354 17.536 25.5758 17.5664 25.7951 17.5427C26.0145 17.5189 26.2247 17.4418 26.4073 17.3181C26.5899 17.1943 26.7394 17.0277 26.8428 16.8328C26.9461 16.6379 27.0001 16.4206 27 16.2V2.7C27 2.47944 26.946 2.26224 26.8427 2.06737C26.7394 1.87251 26.5899 1.70593 26.4073 1.5822ZM16.2 16.2H4.05C3.69196 16.2 3.34858 16.0578 3.09541 15.8046C2.84223 15.5514 2.7 15.208 2.7 14.85V4.05C2.7 3.69196 2.84223 3.34858 3.09541 3.09541C3.34858 2.84223 3.69196 2.7 4.05 2.7H16.2C16.558 2.7 16.9014 2.84223 17.1546 3.09541C17.4078 3.34858 17.55 3.69196 17.55 4.05V14.85C17.55 15.208 17.4078 15.5514 17.1546 15.8046C16.9014 16.0578 16.558 16.2 16.2 16.2ZM24.3 14.206L20.25 12.586V6.31395L24.3 4.69395V14.206Z" fill="#2E2E2E"/>
</svg>
