<svg width="56" height="56" viewBox="0 0 56 56" fill="none" xmlns="http://www.w3.org/2000/svg">
<path d="M55.7082 24.9083H0.291504V23.7416C0.291504 13.2416 12.1332 1.45825 27.9998 1.45825C43.8665 1.45825 55.7082 13.2416 55.7082 23.7416V24.9083ZM2.68317 22.5749H53.3748C52.4998 13.4749 41.9415 3.73325 27.9998 3.73325C14.0582 3.73325 3.49984 13.4749 2.68317 22.5749Z" fill="#2E2E2E"/>
<path d="M9.10016 17.9666C12.3668 12.8332 19.6002 8.3999 28.0002 8.3999C36.4002 8.3999 43.5752 12.8332 46.9002 17.9666H9.10016ZM52.3252 53.3749H3.67516C2.45016 53.3749 1.4585 52.3832 1.4585 51.1582V43.6916H54.5418V51.1582C54.5418 52.3832 53.5502 53.3749 52.3252 53.3749Z" fill="#A6C44A"/>
<path d="M52.3248 54.5416H3.67484C1.80817 54.5416 0.291504 53.0249 0.291504 51.1582V42.5833H55.7082V51.2166C55.7082 53.0249 54.1915 54.5416 52.3248 54.5416ZM2.62484 44.8583V51.1582C2.62484 51.7416 3.0915 52.2082 3.67484 52.2082H52.3832C52.9665 52.2082 53.4332 51.7416 53.4332 51.1582V44.8583H2.62484Z" fill="#2E2E2E"/>
<path d="M49.5252 38.6749H6.47516C3.67516 38.6749 1.4585 36.3999 1.4585 33.6583C1.4585 30.8583 3.7335 28.6416 6.47516 28.6416H49.5252C52.3252 28.6416 54.5418 30.9166 54.5418 33.6583C54.5418 36.4583 52.3252 38.6749 49.5252 38.6749Z" fill="#F8B602"/>
<path d="M49.5248 39.8418H6.47484C3.03317 39.8418 0.291504 37.0418 0.291504 33.6584C0.291504 30.2751 3.0915 27.4751 6.47484 27.4751H49.5248C52.9665 27.4751 55.7082 30.2751 55.7082 33.6584C55.7082 37.0418 52.9082 39.8418 49.5248 39.8418ZM6.47484 29.7501C4.3165 29.7501 2.5665 31.5001 2.5665 33.6584C2.5665 35.8168 4.3165 37.5668 6.47484 37.5668H49.5248C51.6832 37.5668 53.4332 35.8168 53.4332 33.6584C53.4332 31.5001 51.6832 29.7501 49.5248 29.7501H6.47484Z" fill="#F8B602"/>
<path d="M30.7999 35.8166C29.6916 35.8166 28.6999 35.4082 27.7666 35.0582C27.0082 34.7666 26.3082 34.4749 25.6666 34.4749C24.9082 34.4166 24.0332 34.7082 23.1582 34.9416C21.8166 35.3499 20.2999 35.8166 18.7832 35.2916C18.3166 35.1166 17.9082 34.8832 17.5582 34.7082C17.3249 34.5916 17.0916 34.4166 16.8582 34.3582C15.7499 33.8916 14.4082 34.1832 12.9499 34.5332L12.5416 34.6499C10.8499 34.9999 8.3999 35.3499 6.6499 33.8332L8.16657 32.0832C8.9249 32.7249 10.1499 32.8415 12.0749 32.4332L12.4832 32.3166C14.1166 31.9666 15.9832 31.5582 17.7916 32.2582C18.1416 32.4332 18.4332 32.6082 18.7832 32.7249C19.0749 32.8999 19.3666 33.0749 19.5999 33.1332C20.4166 33.4249 21.4082 33.1332 22.5749 32.7832C23.6249 32.4916 24.6749 32.1416 25.8999 32.1999C26.9499 32.2582 27.8249 32.6082 28.6999 32.9582C29.6332 33.3082 30.5082 33.6582 31.2666 33.5416C31.5582 33.4832 31.9082 33.3666 32.3166 33.1916C32.4916 33.1332 32.6082 33.0749 32.7832 33.0165C34.5332 32.3165 36.5749 32.1416 38.4416 32.5499C38.7332 32.6082 39.0832 32.6666 39.3749 32.7832C39.9582 32.9582 40.5416 33.0749 41.0666 33.0749C41.8249 33.0749 42.6416 32.7249 43.4582 32.4332C43.8082 32.3165 44.1582 32.1416 44.5082 32.0249C46.4916 31.3249 48.2416 31.4999 49.4082 32.4916L47.8916 34.2416C47.1332 33.5999 45.7916 34.0082 45.2082 34.1832C44.9166 34.2999 44.5666 34.4166 44.2749 34.5332C43.2832 34.9416 42.2332 35.3499 41.0082 35.3499C41.0082 35.3499 41.0082 35.3499 40.9499 35.3499C40.1332 35.3499 39.3749 35.1749 38.6749 34.9999C38.3832 34.9416 38.1499 34.8832 37.8582 34.8249C36.3999 34.5332 34.8832 34.6499 33.5416 35.1749C33.4249 35.2332 33.2499 35.2916 33.1332 35.3499C32.6666 35.5249 32.1999 35.7582 31.6166 35.8166C31.3249 35.7582 31.0916 35.8166 30.7999 35.8166Z" fill="#2E2E2E"/>
<path d="M9.11751 18.5612L7.76416 16.6604L6.00596 17.9122L7.35931 19.813L9.11751 18.5612Z" fill="#2E2E2E"/>
<path d="M40.0943 11.3803L38.7407 9.47974L36.9827 10.7318L38.3363 12.6324L40.0943 11.3803Z" fill="#2E2E2E"/>
<path d="M34.5033 9.03797L33.1499 7.13721L31.3917 8.38905L32.745 10.2898L34.5033 9.03797Z" fill="#2E2E2E"/>
<path d="M13.4825 14.1626L11.9263 12.4241L10.8832 13.3578L12.4394 15.0964L13.4825 14.1626Z" fill="#2E2E2E"/>
<path d="M21.0214 10.4073L20.1235 8.25366L18.4544 8.9495L19.3523 11.1032L21.0214 10.4073Z" fill="#2E2E2E"/>
<path d="M15.4573 19.5792L14.4673 17.4663L13.2524 18.0356L14.2424 20.1485L15.4573 19.5792Z" fill="#2E2E2E"/>
<path d="M26.6585 9.2167L25.2002 7.40837C25.9002 6.82503 26.7752 6.4167 27.6502 6.2417L28.1752 8.45837C27.5918 8.63337 27.0668 8.8667 26.6585 9.2167ZM17.7918 16.0417L17.2085 13.825C17.7335 13.7084 18.2585 13.475 18.7252 13.2417L19.7752 15.2834C19.1335 15.575 18.4918 15.8084 17.7918 16.0417Z" fill="#2E2E2E"/>
<path d="M30.8661 19.1823L30.1245 16.97L28.1887 17.6188L28.9303 19.8312L30.8661 19.1823Z" fill="#2E2E2E"/>
<path d="M42.6122 19.9089L41.8706 17.6965L39.9348 18.3454L40.6764 20.5578L42.6122 19.9089Z" fill="#2E2E2E"/>
<path d="M35.6417 20.3583L34.7084 18.2583C35.2917 18.025 35.8751 17.7917 36.4584 17.675L36.9251 19.95C36.4584 20.0667 35.9917 20.1833 35.6417 20.3583ZM32.6667 15.8667L31.7334 13.7667C32.3167 13.5333 32.9001 13.3583 33.4834 13.1833L33.9501 15.4583C33.4834 15.5167 33.0751 15.6917 32.6667 15.8667Z" fill="#2E2E2E"/>
<path d="M26.9311 14.3917L26.187 12.1802L24.8601 12.6266L25.6042 14.8381L26.9311 14.3917Z" fill="#2E2E2E"/>
<path d="M16.0244 11.5403L15.2793 9.3291L13.9526 9.77615L14.6977 11.9873L16.0244 11.5403Z" fill="#2E2E2E"/>
<path d="M24.0146 20.008L23.2695 17.7969L21.9428 18.2439L22.6879 20.4551L24.0146 20.008Z" fill="#2E2E2E"/>
<path d="M48.1249 18.2559L47.3809 16.0444L46.054 16.4909L46.798 18.7024L48.1249 18.2559Z" fill="#2E2E2E"/>
<path d="M43.9296 15.7154L43.1855 13.5039L41.8586 13.9504L42.6027 16.1619L43.9296 15.7154Z" fill="#2E2E2E"/>
</svg>
