<svg width="21" height="24" viewBox="0 0 21 24" fill="none" xmlns="http://www.w3.org/2000/svg">
<path d="M18.5144 14.3511C18.3737 14.2641 18.2588 14.1412 18.1813 13.9951C18.1038 13.8489 18.0666 13.6848 18.0736 13.5195V10.2631C18.0798 8.62916 17.6091 7.02889 16.7192 5.65848C15.8294 4.28808 14.559 3.2071 13.0638 2.54806C12.9544 1.83857 12.5948 1.19163 12.0499 0.724272C11.505 0.256915 10.8108 0 10.093 0C9.37511 0 8.68095 0.256915 8.13605 0.724272C7.59116 1.19163 7.23151 1.83857 7.12218 2.54806C6.14812 2.93603 5.25964 3.51133 4.50707 4.24137C3.73033 4.98058 3.11146 5.86954 2.68782 6.85458C2.26419 7.83962 2.04458 8.90029 2.04226 9.97256V13.5195C2.0492 13.6848 2.01203 13.8489 1.93455 13.9951C1.85707 14.1412 1.74208 14.2641 1.60139 14.3511C1.04567 14.6448 0.596002 15.1053 0.315625 15.6679C0.0352471 16.2304 -0.0617274 16.8667 0.0383415 17.4872C0.177864 18.2057 0.567411 18.8515 1.13786 19.3101C1.7083 19.7687 2.42275 20.0103 3.15443 19.9921H6.05008C6.05008 21.0551 6.47234 22.0745 7.22395 22.8261C7.97556 23.5777 8.99497 24 10.0579 24C11.1209 24 12.1403 23.5777 12.8919 22.8261C13.6435 22.0745 14.0657 21.0551 14.0657 19.9921H16.9614C17.6931 20.0103 18.4075 19.7687 18.978 19.3101C19.5484 18.8515 19.938 18.2057 20.0775 17.4872C20.1776 16.8667 20.0806 16.2304 19.8002 15.6679C19.5198 15.1053 19.0702 14.6448 18.5144 14.3511ZM10.0579 21.996C9.52644 21.996 9.01674 21.7849 8.64093 21.4091C8.26512 21.0333 8.054 20.5236 8.054 19.9921H12.0618C12.0618 20.5236 11.8507 21.0333 11.4749 21.4091C11.0991 21.7849 10.5894 21.996 10.0579 21.996ZM16.9614 17.9882H3.15443C2.90272 18.0006 2.65446 17.9256 2.45176 17.7758C2.24905 17.6261 2.10438 17.4109 2.04226 17.1666C2.00428 16.9583 2.03327 16.7433 2.12508 16.5525C2.21688 16.3617 2.36678 16.2049 2.55325 16.1045C3.01052 15.8465 3.39023 15.4706 3.65281 15.0159C3.91538 14.5613 4.05122 14.0445 4.04617 13.5195V9.97256C4.04541 9.16731 4.20644 8.37011 4.5197 7.62828C4.83295 6.88645 5.29205 6.21512 5.86973 5.65412C6.34419 5.18987 6.89713 4.81333 7.50292 4.54195C8.29982 4.15792 9.17331 3.95925 10.0579 3.96082H10.2483C11.0673 3.98935 11.8705 4.19441 12.6029 4.56199C13.6504 5.09996 14.5288 5.91726 15.1406 6.92346C15.7525 7.92965 16.074 9.08551 16.0697 10.2631V13.5195C16.0636 14.0435 16.1979 14.5596 16.4587 15.0142C16.7195 15.4687 17.0971 15.8452 17.5526 16.1045C17.739 16.2028 17.8897 16.3574 17.9833 16.5463C18.0768 16.7351 18.1084 16.9487 18.0736 17.1566C18.0134 17.4027 17.8696 17.6202 17.6667 17.7719C17.4638 17.9237 17.2145 18.0001 16.9614 17.9882Z" fill="white"/>
</svg>
