<svg width="56" height="56" viewBox="0 0 56 56" fill="none" xmlns="http://www.w3.org/2000/svg">
<path d="M55.7082 24.9083H0.291504V23.7417C0.291504 13.2417 12.1332 1.45833 27.9998 1.45833C43.8665 1.45833 55.7082 13.2417 55.7082 23.7417V24.9083ZM2.68317 22.575H53.3748C52.4998 13.475 41.9415 3.73333 27.9998 3.73333C14.0582 3.73333 3.49984 13.475 2.68317 22.575Z" fill="#2E2E2E"/>
<path d="M9.10016 17.9667C12.3668 12.8333 19.6002 8.4 28.0002 8.4C36.4002 8.4 43.5752 12.8333 46.9002 17.9667H9.10016ZM52.3252 53.375H3.67516C2.45016 53.375 1.4585 52.3833 1.4585 51.1583V43.6917H54.5418V51.1583C54.5418 52.3833 53.5502 53.375 52.3252 53.375Z" fill="#A6C44A"/>
<path d="M52.3248 54.5417H3.67484C1.80817 54.5417 0.291504 53.025 0.291504 51.1583V42.5833H55.7082V51.2167C55.7082 53.025 54.1915 54.5417 52.3248 54.5417ZM2.62484 44.8583V51.1583C2.62484 51.7417 3.0915 52.2083 3.67484 52.2083H52.3832C52.9665 52.2083 53.4332 51.7417 53.4332 51.1583V44.8583H2.62484Z" fill="#2E2E2E"/>
<path d="M49.5252 38.675H6.47516C3.67516 38.675 1.4585 36.4 1.4585 33.6583C1.4585 30.8583 3.7335 28.6417 6.47516 28.6417H49.5252C52.3252 28.6417 54.5418 30.9167 54.5418 33.6583C54.5418 36.4583 52.3252 38.675 49.5252 38.675Z" fill="#F8B602"/>
<path d="M49.5248 39.8417H6.47484C3.03317 39.8417 0.291504 37.0417 0.291504 33.6583C0.291504 30.275 3.0915 27.475 6.47484 27.475H49.5248C52.9665 27.475 55.7082 30.275 55.7082 33.6583C55.7082 37.0417 52.9082 39.8417 49.5248 39.8417ZM6.47484 29.75C4.3165 29.75 2.5665 31.5 2.5665 33.6583C2.5665 35.8167 4.3165 37.5667 6.47484 37.5667H49.5248C51.6832 37.5667 53.4332 35.8167 53.4332 33.6583C53.4332 31.5 51.6832 29.75 49.5248 29.75H6.47484Z" fill="#F8B602"/>
<path d="M30.7999 35.8167C29.6916 35.8167 28.6999 35.4083 27.7666 35.0583C27.0082 34.7667 26.3082 34.475 25.6666 34.475C24.9082 34.4167 24.0332 34.7083 23.1582 34.9417C21.8166 35.35 20.2999 35.8167 18.7832 35.2917C18.3166 35.1167 17.9082 34.8833 17.5582 34.7083C17.3249 34.5917 17.0916 34.4167 16.8582 34.3583C15.7499 33.8917 14.4082 34.1833 12.9499 34.5333L12.5416 34.65C10.8499 35 8.3999 35.35 6.6499 33.8333L8.16657 32.0833C8.9249 32.725 10.1499 32.8417 12.0749 32.4333L12.4832 32.3167C14.1166 31.9667 15.9832 31.5583 17.7916 32.2583C18.1416 32.4333 18.4332 32.6083 18.7832 32.725C19.0749 32.9 19.3666 33.075 19.5999 33.1333C20.4166 33.425 21.4082 33.1333 22.5749 32.7833C23.6249 32.4917 24.6749 32.1417 25.8999 32.2C26.9499 32.2583 27.8249 32.6083 28.6999 32.9583C29.6332 33.3083 30.5082 33.6583 31.2666 33.5417C31.5582 33.4833 31.9082 33.3667 32.3166 33.1917C32.4916 33.1333 32.6082 33.075 32.7832 33.0167C34.5332 32.3167 36.5749 32.1417 38.4416 32.55C38.7332 32.6083 39.0832 32.6667 39.3749 32.7833C39.9582 32.9583 40.5416 33.075 41.0666 33.075C41.8249 33.075 42.6416 32.725 43.4582 32.4333C43.8082 32.3167 44.1582 32.1417 44.5082 32.025C46.4916 31.325 48.2416 31.5 49.4082 32.4917L47.8916 34.2417C47.1332 33.6 45.7916 34.0083 45.2082 34.1833C44.9166 34.3 44.5666 34.4167 44.2749 34.5333C43.2832 34.9417 42.2332 35.35 41.0082 35.35C41.0082 35.35 41.0082 35.35 40.9499 35.35C40.1332 35.35 39.3749 35.175 38.6749 35C38.3832 34.9417 38.1499 34.8833 37.8582 34.825C36.3999 34.5333 34.8832 34.65 33.5416 35.175C33.4249 35.2333 33.2499 35.2917 33.1332 35.35C32.6666 35.525 32.1999 35.7583 31.6166 35.8167C31.3249 35.7583 31.0916 35.8167 30.7999 35.8167Z" fill="#2E2E2E"/>
<path d="M9.11751 18.5612L7.76416 16.6605L6.00596 17.9123L7.35931 19.8131L9.11751 18.5612Z" fill="#2E2E2E"/>
<path d="M40.0943 11.3803L38.7407 9.47975L36.9827 10.7318L38.3363 12.6324L40.0943 11.3803Z" fill="#2E2E2E"/>
<path d="M34.5033 9.03799L33.1499 7.13723L31.3917 8.38908L32.745 10.2898L34.5033 9.03799Z" fill="#2E2E2E"/>
<path d="M13.4825 14.1626L11.9263 12.4241L10.8832 13.3578L12.4394 15.0964L13.4825 14.1626Z" fill="#2E2E2E"/>
<path d="M21.0214 10.4073L20.1235 8.25364L18.4544 8.94948L19.3523 11.1032L21.0214 10.4073Z" fill="#2E2E2E"/>
<path d="M15.4573 19.5792L14.4673 17.4663L13.2524 18.0355L14.2424 20.1484L15.4573 19.5792Z" fill="#2E2E2E"/>
<path d="M26.6585 9.21666L25.2002 7.40833C25.9002 6.82499 26.7752 6.41666 27.6502 6.24166L28.1752 8.45833C27.5918 8.63333 27.0668 8.86666 26.6585 9.21666ZM17.7918 16.0417L17.2085 13.825C17.7335 13.7083 18.2585 13.475 18.7252 13.2417L19.7752 15.2833C19.1335 15.575 18.4918 15.8083 17.7918 16.0417Z" fill="#2E2E2E"/>
<path d="M30.8661 19.1824L30.1245 16.9701L28.1887 17.6189L28.9303 19.8313L30.8661 19.1824Z" fill="#2E2E2E"/>
<path d="M42.6122 19.9088L41.8706 17.6964L39.9348 18.3453L40.6764 20.5577L42.6122 19.9088Z" fill="#2E2E2E"/>
<path d="M35.6417 20.3583L34.7084 18.2583C35.2917 18.025 35.8751 17.7917 36.4584 17.675L36.9251 19.95C36.4584 20.0667 35.9917 20.1833 35.6417 20.3583ZM32.6667 15.8667L31.7334 13.7667C32.3167 13.5333 32.9001 13.3583 33.4834 13.1833L33.9501 15.4583C33.4834 15.5167 33.0751 15.6917 32.6667 15.8667Z" fill="#2E2E2E"/>
<path d="M26.9311 14.3917L26.187 12.1802L24.8601 12.6267L25.6042 14.8382L26.9311 14.3917Z" fill="#2E2E2E"/>
<path d="M16.0244 11.5402L15.2793 9.329L13.9526 9.77605L14.6977 11.9872L16.0244 11.5402Z" fill="#2E2E2E"/>
<path d="M24.0146 20.0081L23.2695 17.7969L21.9428 18.244L22.6879 20.4551L24.0146 20.0081Z" fill="#2E2E2E"/>
<path d="M48.1249 18.256L47.3809 16.0445L46.054 16.4909L46.798 18.7024L48.1249 18.256Z" fill="#2E2E2E"/>
<path d="M43.9296 15.7154L43.1855 13.5039L41.8586 13.9503L42.6027 16.1618L43.9296 15.7154Z" fill="#2E2E2E"/>
</svg>
