<svg width="21" height="15" viewBox="0 0 21 15" fill="none" xmlns="http://www.w3.org/2000/svg">
<path d="M10.5 9C12.9853 9 15 6.98528 15 4.5C15 2.01472 12.9853 0 10.5 0C8.01472 0 6 2.01472 6 4.5C6 6.98528 8.01472 9 10.5 9Z" fill="#2E2E2E"/>
<path d="M15 15C14.851 15.0009 14.7052 14.9573 14.581 14.875C14.4569 14.7926 14.3601 14.6752 14.3029 14.5376C14.2458 14.4 14.231 14.2485 14.2603 14.1025C14.2896 13.9564 14.3617 13.8224 14.4675 13.7175L18.9675 9.2175C19.2238 8.94791 19.3955 8.60918 19.4615 8.24311C19.5276 7.87705 19.485 7.49967 19.339 7.15752C19.1931 6.81538 18.9501 6.52345 18.6402 6.31776C18.3303 6.11206 17.9669 6.0016 17.595 6H14.175C13.9761 6 13.7853 5.92098 13.6446 5.78033C13.504 5.63968 13.425 5.44891 13.425 5.25C13.425 5.05109 13.504 4.86032 13.6446 4.71967C13.7853 4.57902 13.9761 4.5 14.175 4.5H17.595C18.2684 4.50008 18.9266 4.69982 19.4865 5.07397C20.0464 5.44812 20.4827 5.97988 20.7404 6.60202C20.9981 7.22415 21.0655 7.90872 20.9342 8.56917C20.8028 9.22963 20.4786 9.8363 20.0025 10.3125L15.5025 14.8125C15.3638 14.9348 15.1849 15.0016 15 15ZM5.99998 15C5.90127 15.0006 5.80343 14.9817 5.71205 14.9443C5.62067 14.907 5.53756 14.852 5.46748 14.7825L0.967479 10.2825C0.499779 9.80299 0.183895 9.19619 0.0593646 8.53804C-0.0651662 7.87989 0.00718725 7.19963 0.26737 6.58239C0.527552 5.96516 0.964005 5.43838 1.5221 5.06797C2.0802 4.69757 2.73515 4.5 3.40498 4.5H6.82498C7.02389 4.5 7.21466 4.57902 7.35531 4.71967C7.49596 4.86032 7.57498 5.05109 7.57498 5.25C7.57498 5.44891 7.49596 5.63968 7.35531 5.78033C7.21466 5.92098 7.02389 6 6.82498 6H3.40498C3.02952 6.00178 2.66296 6.11447 2.35135 6.32392C2.03973 6.53336 1.79696 6.83022 1.65352 7.1772C1.51008 7.52418 1.47237 7.90581 1.54513 8.27415C1.61789 8.64249 1.79788 8.98112 2.06248 9.2475L6.56248 13.7475C6.66001 13.8556 6.72399 13.9897 6.74661 14.1334C6.76924 14.2772 6.74953 14.4245 6.6899 14.5573C6.63027 14.6901 6.53328 14.8026 6.41078 14.8812C6.28827 14.9599 6.14553 15.0011 5.99998 15Z" fill="#2E2E2E"/>
</svg>
