<svg width="278" height="60" viewBox="0 0 278 60" fill="none" xmlns="http://www.w3.org/2000/svg">
<rect x="218" width="60" height="60" rx="16" fill="#C4C4C4"/>
<path d="M90.55 32.9624C90.3745 32.8539 90.231 32.7006 90.1344 32.5182C90.0377 32.3359 89.9913 32.1311 90 31.9249V27.8624C90.0077 25.824 89.4205 23.8275 88.3104 22.1179C87.2002 20.4082 85.6153 19.0596 83.75 18.2374C83.6136 17.3523 83.1649 16.5452 82.4851 15.9622C81.8053 15.3791 80.9393 15.0586 80.0437 15.0586C79.1482 15.0586 78.2821 15.3791 77.6024 15.9622C76.9226 16.5452 76.4739 17.3523 76.3375 18.2374C75.1223 18.7215 74.0139 19.4392 73.075 20.3499C72.106 21.2722 71.3339 22.3812 70.8054 23.6101C70.2769 24.839 70.0029 26.1622 70 27.4999V31.9249C70.0086 32.1311 69.9623 32.3359 69.8656 32.5182C69.769 32.7006 69.6255 32.8539 69.45 32.9624C68.7567 33.3288 68.1957 33.9033 67.8459 34.6052C67.4961 35.307 67.3751 36.1008 67.5 36.8749C67.674 37.7713 68.16 38.577 68.8717 39.1491C69.5834 39.7211 70.4747 40.0226 71.3875 39.9999H75C75 41.326 75.5268 42.5978 76.4644 43.5355C77.4021 44.4732 78.6739 44.9999 80 44.9999C81.3261 44.9999 82.5978 44.4732 83.5355 43.5355C84.4732 42.5978 85 41.326 85 39.9999H88.6125C89.5253 40.0226 90.4166 39.7211 91.1283 39.1491C91.8399 38.577 92.3259 37.7713 92.5 36.8749C92.6248 36.1008 92.5038 35.307 92.1541 34.6052C91.8043 33.9033 91.2433 33.3288 90.55 32.9624ZM80 42.4999C79.3369 42.4999 78.7011 42.2366 78.2322 41.7677C77.7634 41.2989 77.5 40.663 77.5 39.9999H82.5C82.5 40.663 82.2366 41.2989 81.7677 41.7677C81.2989 42.2366 80.663 42.4999 80 42.4999ZM88.6125 37.4999H71.3875C71.0735 37.5154 70.7637 37.4218 70.5109 37.235C70.258 37.0482 70.0775 36.7796 70 36.4749C69.9526 36.2151 69.9888 35.9468 70.1033 35.7088C70.2178 35.4707 70.4048 35.2751 70.6375 35.1499C71.208 34.8281 71.6817 34.3591 72.0092 33.7918C72.3368 33.2246 72.5063 32.5799 72.5 31.9249V27.4999C72.499 26.4953 72.6999 25.5008 73.0907 24.5753C73.4815 23.6498 74.0543 22.8123 74.775 22.1124C75.3669 21.5333 76.0567 21.0635 76.8125 20.7249C77.8067 20.2458 78.8964 19.998 80 19.9999H80.2375C81.2592 20.0355 82.2612 20.2914 83.175 20.7499C84.4819 21.4211 85.5776 22.4407 86.3409 23.696C87.1043 24.9513 87.5054 26.3933 87.5 27.8624V31.9249C87.4924 32.5787 87.66 33.2225 87.9853 33.7896C88.3107 34.3568 88.7818 34.8264 89.35 35.1499C89.5826 35.2725 89.7706 35.4654 89.8873 35.701C90.004 35.9367 90.0435 36.2031 90 36.4624C89.9249 36.7695 89.7455 37.0409 89.4924 37.2301C89.2393 37.4194 88.9282 37.5148 88.6125 37.4999Z" fill="#2E2E2E"/>
<circle cx="96" cy="14" r="4" fill="#F8B602"/>
<circle cx="36" cy="14" r="4" fill="#F8B602"/>
<path d="M32.5001 26.6667H31.6667V22.5C31.6667 21.837 31.4034 21.2011 30.9345 20.7322C30.4657 20.2634 29.8298 20 29.1667 20H9.16675C8.50371 20 7.86782 20.2634 7.39898 20.7322C6.93014 21.2011 6.66675 21.837 6.66675 22.5V35.8333C6.66675 36.4964 6.93014 37.1323 7.39898 37.6011C7.86782 38.0699 8.50371 38.3333 9.16675 38.3333H10.0001V39.8333C10.0008 40.0802 10.0744 40.3213 10.2118 40.5264C10.3492 40.7315 10.5441 40.8914 10.7721 40.986C11.0001 41.0806 11.251 41.1057 11.4933 41.058C11.7355 41.0104 11.9582 40.8922 12.1334 40.7183L14.5117 38.3333H16.6667V39.1667C16.6667 39.8297 16.9301 40.4656 17.399 40.9344C17.8678 41.4033 18.5037 41.6667 19.1667 41.6667H27.1551L29.5334 44.045C29.7079 44.2193 29.9301 44.3381 30.172 44.3864C30.4138 44.4347 30.6646 44.4103 30.8927 44.3164C31.1207 44.2225 31.3159 44.0633 31.4537 43.8587C31.5914 43.6541 31.6655 43.4133 31.6667 43.1667V41.6667H32.5001C33.1631 41.6667 33.799 41.4033 34.2678 40.9344C34.7367 40.4656 35.0001 39.8297 35.0001 39.1667V29.1667C35.0001 28.5036 34.7367 27.8677 34.2678 27.3989C33.799 26.9301 33.1631 26.6667 32.5001 26.6667ZM30.0001 35.8333C30.0001 36.0543 29.9123 36.2663 29.756 36.4226C29.5997 36.5789 29.3878 36.6667 29.1667 36.6667H14.1667C14.0572 36.6665 13.9488 36.6879 13.8475 36.7296C13.7463 36.7714 13.6543 36.8327 13.5767 36.91L11.6667 38.8217V37.5C11.6667 37.279 11.579 37.067 11.4227 36.9107C11.2664 36.7545 11.0544 36.6667 10.8334 36.6667H9.16675C8.94573 36.6667 8.73377 36.5789 8.57749 36.4226C8.42121 36.2663 8.33341 36.0543 8.33341 35.8333V22.5C8.33341 22.279 8.42121 22.067 8.57749 21.9107C8.73377 21.7545 8.94573 21.6667 9.16675 21.6667H29.1667C29.3878 21.6667 29.5997 21.7545 29.756 21.9107C29.9123 22.067 30.0001 22.279 30.0001 22.5V35.8333Z" fill="#2E2E2E"/>
<path d="M18.3333 24.1667C18.1123 24.1667 17.9004 24.2545 17.7441 24.4108C17.5878 24.5671 17.5 24.7791 17.5 25.0001V26.6667C17.4964 26.9541 17.4175 27.2355 17.2713 27.4828C17.1251 27.7302 16.9166 27.935 16.6667 28.0767V25.0001C16.6667 24.7791 16.5789 24.5671 16.4226 24.4108C16.2663 24.2545 16.0543 24.1667 15.8333 24.1667C15.6123 24.1667 15.4004 24.2545 15.2441 24.4108C15.0878 24.5671 15 24.7791 15 25.0001V28.0767C14.75 27.935 14.5416 27.7302 14.3954 27.4828C14.2492 27.2355 14.1703 26.9541 14.1667 26.6667V25.0001C14.1667 24.7791 14.0789 24.5671 13.9226 24.4108C13.7663 24.2545 13.5543 24.1667 13.3333 24.1667C13.1123 24.1667 12.9004 24.2545 12.7441 24.4108C12.5878 24.5671 12.5 24.7791 12.5 25.0001V26.6667C12.5028 27.4036 12.7496 28.1188 13.2019 28.7004C13.6542 29.2821 14.2865 29.6975 15 29.8817V33.3334C15 33.5544 15.0878 33.7664 15.2441 33.9227C15.4004 34.079 15.6123 34.1667 15.8333 34.1667C16.0543 34.1667 16.2663 34.079 16.4226 33.9227C16.5789 33.7664 16.6667 33.5544 16.6667 33.3334V29.8817C17.3801 29.6975 18.0124 29.2821 18.4648 28.7004C18.9171 28.1188 19.1639 27.4036 19.1667 26.6667V25.0001C19.1667 24.7791 19.0789 24.5671 18.9226 24.4108C18.7663 24.2545 18.5543 24.1667 18.3333 24.1667ZM22.04 24.2551C21.913 24.1914 21.7717 24.1613 21.6298 24.1676C21.4878 24.1739 21.3498 24.2164 21.2289 24.291C21.108 24.3657 21.0081 24.47 20.9389 24.5941C20.8697 24.7182 20.8333 24.858 20.8333 25.0001V33.3334C20.8333 33.5544 20.9211 33.7664 21.0774 33.9227C21.2337 34.079 21.4457 34.1667 21.6667 34.1667C21.8877 34.1667 22.0996 34.079 22.2559 33.9227C22.4122 33.7664 22.5 33.5544 22.5 33.3334V32.3184L24.8867 31.7201C25.1746 31.642 25.4264 31.4664 25.5991 31.2231C25.7717 30.9799 25.8545 30.6843 25.8333 30.3867C25.8355 29.1127 25.4815 27.8634 24.8112 26.7799C24.1409 25.6964 23.181 24.8219 22.04 24.2551Z" fill="#2E2E2E"/>
<path d="M144.644 36.3562L144.569 33.7C145.131 33.5937 145.919 32.6437 146.238 32.1375L145.163 29.725C144.569 29.6313 143.338 29.575 142.881 29.925L140.956 28.0938C141.275 27.625 141.163 26.4 141.025 25.8188L138.556 24.875C138.075 25.2187 137.169 26.0563 137.094 26.625L134.438 26.6937C134.331 26.1312 133.375 25.3562 132.875 25.0312L130.463 26.1062C130.369 26.7 130.313 27.9313 130.663 28.3875L128.838 30.3125C128.363 29.9937 127.138 30.1125 126.556 30.2437L125.613 32.7063C125.956 33.2 126.794 34.0938 127.356 34.175L127.431 36.8312C126.875 36.9438 126.094 37.8875 125.769 38.3937L126.85 40.8062C127.438 40.9 128.669 40.95 129.125 40.6125L131.05 42.4312C130.731 42.9 130.85 44.1313 130.981 44.7125L133.444 45.6562C133.931 45.3062 134.838 44.4688 134.913 43.9062L137.569 43.8312C137.681 44.4 138.625 45.175 139.138 45.4937L141.544 44.425C141.644 43.825 141.688 42.6 141.35 42.1437L143.169 40.2125C143.644 40.5375 144.869 40.4187 145.456 40.2875L146.394 37.8187C146.044 37.3375 145.213 36.4375 144.644 36.3562ZM138.819 36.3375C138.606 36.895 138.233 37.3769 137.747 37.7224C137.26 38.0678 136.682 38.2612 136.086 38.2781C135.489 38.295 134.901 38.1347 134.396 37.8174C133.89 37.5001 133.491 37.0401 133.247 36.4955C133.003 35.951 132.926 35.3463 133.026 34.7581C133.125 34.1698 133.397 33.6243 133.807 33.1906C134.217 32.7569 134.746 32.4545 135.328 32.3215C135.91 32.1886 136.518 32.2311 137.075 32.4437C137.446 32.5844 137.785 32.7969 138.073 33.0689C138.361 33.3408 138.593 33.667 138.755 34.0288C138.917 34.3905 139.006 34.7806 139.017 35.1768C139.028 35.5729 138.961 35.9674 138.819 36.3375ZM154.375 19.1625C154.081 18.9187 153.388 18.4875 153.044 18.6L151.988 16.8C152.25 16.5563 152.213 15.7375 152.144 15.3688L150.338 14.3438C149.981 14.475 149.263 14.8625 149.188 15.2125L147.1 15.2313C147.019 14.8813 146.294 14.5063 145.938 14.375L144.15 15.4312C144.088 15.8 144.063 16.6187 144.325 16.8625L143.3 18.675C142.95 18.5688 142.263 19.0125 141.975 19.2563L141.994 21.3312C142.288 21.575 142.981 22 143.325 21.8938L144.381 23.6938C144.119 23.9375 144.156 24.7563 144.225 25.125L146.031 26.15C146.381 26.0187 147.1 25.6313 147.181 25.2812L149.263 25.2625C149.35 25.6125 150.075 25.9875 150.431 26.1187L152.219 25.0625C152.281 24.6875 152.306 23.875 152.038 23.6312L153.069 21.8187C153.413 21.9187 154.1 21.4812 154.388 21.2375L154.375 19.1625ZM148.181 21.8813C147.858 21.8806 147.543 21.7843 147.274 21.6045C147.006 21.4247 146.797 21.1694 146.674 20.8709C146.551 20.5724 146.518 20.244 146.582 19.9273C146.645 19.6105 146.8 19.3196 147.029 19.0912C147.257 18.8628 147.548 18.7072 147.865 18.6441C148.182 18.5809 148.51 18.613 148.808 18.7363C149.107 18.8596 149.362 19.0686 149.542 19.3369C149.722 19.6052 149.818 19.9208 149.819 20.2437C149.819 20.4589 149.777 20.6721 149.695 20.871C149.613 21.0699 149.492 21.2506 149.34 21.4027C149.188 21.5549 149.007 21.6755 148.809 21.7576C148.61 21.8397 148.396 21.8817 148.181 21.8813Z" fill="#2E2E2E"/>
</svg>
