<svg width="56" height="56" viewBox="0 0 56 56" fill="none" xmlns="http://www.w3.org/2000/svg">
<g clip-path="url(#clip0_2_189)">
<path d="M31.7334 48.825C22.4001 52.9083 11.4917 48.65 7.40839 39.3166C3.32505 29.9833 7.58339 19.075 16.9167 14.9916C21.5834 12.95 26.6584 13.0083 31.0334 14.7L32.9584 9.74164C27.3001 7.52497 20.7667 7.46664 14.7584 10.0916C2.74172 15.3416 -2.74161 29.4 2.50839 41.4166C7.75839 53.4333 21.8167 58.9166 33.8334 53.6666C45.8501 48.4166 51.3334 34.3583 46.0834 22.3416L41.2417 24.5C45.3251 33.8333 41.0667 44.7416 31.7334 48.825Z" fill="#F8B602"/>
<path d="M38.8501 6.76668C43.2834 8.45835 47.0168 11.9 49.0584 16.5667L53.9001 14.4084C51.2751 8.40002 46.4918 4.02502 40.7751 1.80835L38.8501 6.76668Z" fill="#A6C44A"/>
<path d="M48.4752 18.0834L48.0085 17.0334C46.1418 12.7751 42.7585 9.56675 38.4418 7.87508L37.3335 7.40841L40.1335 0.291748L41.2418 0.700081C47.4252 3.15008 52.3252 7.81675 55.0085 13.9417L55.4752 14.9917L48.4752 18.0834ZM40.3668 6.12508C44.3918 7.99175 47.6002 11.0834 49.6418 15.0501L52.3835 13.8834C50.0502 9.21675 46.2585 5.54175 41.4752 3.38341L40.3668 6.12508Z" fill="#2E2E2E"/>
<path d="M49.0583 16.5666C47.0166 11.8999 43.2833 8.5166 38.8499 6.7666L32.1416 23.9749L49.0583 16.5666Z" fill="#F8B602"/>
<path d="M30.0415 26.1917L38.2082 5.25L39.3165 5.65833C44.2165 7.58333 48.0665 11.2583 50.1665 16.1L50.6332 17.15L30.0415 26.1917ZM39.4915 8.28333L34.2415 21.7583L47.4832 15.9833C45.7332 12.6 42.9332 9.91667 39.4915 8.28333Z" fill="#2E2E2E"/>
<path d="M24.3249 51.5665C16.7415 51.5665 9.50821 47.1915 6.29988 39.7832C1.92488 29.8665 6.47488 18.2582 16.3915 13.8832C21.1749 11.7832 26.5415 11.6665 31.4415 13.5915L32.5499 13.9999L26.4249 29.6915L41.8249 22.9249L42.2915 23.9749C44.3915 28.7582 44.5082 34.1249 42.5832 39.0249C40.6582 43.9249 36.9832 47.7749 32.1415 49.8749C29.6332 51.0415 27.0082 51.5665 24.3249 51.5665ZM8.45821 38.8499C12.3082 47.5999 22.5165 51.5665 31.2665 47.7749C35.5249 45.9082 38.7332 42.5249 40.4249 38.2082C41.9415 34.2415 41.9999 29.9832 40.5999 26.0749L22.2249 34.1249L29.5165 15.3999C25.5499 14.1165 21.2332 14.3499 17.3832 16.0415C8.63321 19.8915 4.66654 30.0999 8.45821 38.8499Z" fill="#2E2E2E"/>
<path d="M17.9084 44.5084C19.5192 44.5084 20.825 43.2025 20.825 41.5917C20.825 39.9809 19.5192 38.675 17.9084 38.675C16.2975 38.675 14.9917 39.9809 14.9917 41.5917C14.9917 43.2025 16.2975 44.5084 17.9084 44.5084Z" fill="#A6C44A"/>
<path d="M17.9081 45.675C16.3331 45.675 14.8164 44.7417 14.1164 43.225C13.6498 42.2334 13.6498 41.125 14.0581 40.075C14.4664 39.025 15.2248 38.2667 16.2164 37.8C17.2081 37.3334 18.3164 37.3334 19.3664 37.7417C20.4164 38.15 21.1748 38.9084 21.6414 39.9C22.1081 40.8917 22.1081 42 21.6998 43.05C21.2914 44.1 20.5331 44.8584 19.5414 45.325C19.0164 45.5584 18.4331 45.675 17.9081 45.675ZM17.9081 39.7834C17.6748 39.7834 17.4414 39.8417 17.2081 39.9584C16.7998 40.1334 16.4498 40.4834 16.2748 40.95C16.0998 41.4167 16.0998 41.8834 16.2748 42.2917C16.6831 43.1667 17.7331 43.575 18.6081 43.225C19.0164 43.05 19.3664 42.7 19.5414 42.2334C19.7164 41.7667 19.7164 41.3 19.5414 40.8917C19.3664 40.4834 19.0164 40.1334 18.5498 39.9584C18.3164 39.8417 18.0831 39.7834 17.9081 39.7834Z" fill="#A6C44A"/>
<path d="M15.9832 26.1333C17.4007 26.1333 18.5498 24.9842 18.5498 23.5667C18.5498 22.1491 17.4007 21 15.9832 21C14.5656 21 13.4165 22.1491 13.4165 23.5667C13.4165 24.9842 14.5656 26.1333 15.9832 26.1333Z" fill="#A6C44A"/>
<path d="M15.9834 27.3C15.5168 27.3 15.0501 27.2416 14.6418 27.0666C13.7084 26.7166 13.0084 26.0166 12.6001 25.0833C12.1918 24.15 12.1918 23.1583 12.5418 22.225C12.8918 21.2916 13.5918 20.5916 14.5251 20.1833C16.3918 19.3666 18.6084 20.2416 19.4251 22.1083C20.2418 23.975 19.3668 26.1916 17.5001 27.0083C17.0334 27.1833 16.5084 27.3 15.9834 27.3ZM15.9834 22.225C15.8084 22.225 15.6334 22.2833 15.4584 22.3416C15.1084 22.5166 14.8751 22.75 14.7001 23.1C14.5834 23.45 14.5834 23.8 14.7001 24.15C14.8168 24.5 15.1084 24.7333 15.4584 24.9083C15.8084 25.025 16.1584 25.025 16.5084 24.9083C17.2084 24.6166 17.5001 23.8 17.2084 23.1C17.0334 22.5166 16.5084 22.225 15.9834 22.225Z" fill="#A6C44A"/>
<path d="M32.9585 43.8667C32.4919 43.8667 32.0835 43.8084 31.6169 43.6334C30.6835 43.2834 29.9835 42.5834 29.5752 41.7084L31.7335 40.7751C31.8502 41.1251 32.1419 41.3584 32.4335 41.4751C32.7835 41.5917 33.1335 41.5917 33.4252 41.4751C34.0669 41.1834 34.4169 40.4251 34.1252 39.7251L36.2835 38.7917C37.1002 40.6584 36.2252 42.8167 34.4169 43.6334C33.9502 43.8084 33.4835 43.8667 32.9585 43.8667ZM40.5419 17.6167C39.1419 17.6167 37.8002 16.8001 37.1585 15.4001L39.3169 14.4667C39.6085 15.1084 40.3669 15.4584 41.0669 15.1667C41.7085 14.8751 42.0585 14.1167 41.7669 13.4167L43.9252 12.4834C44.7419 14.3501 43.8669 16.5084 42.0585 17.3251C41.5335 17.5584 41.0669 17.6167 40.5419 17.6167Z" fill="#2E2E2E"/>
<path d="M10.8685 33.4205L8.5459 33.1975L8.37867 34.9395L10.7013 35.1624L10.8685 33.4205Z" fill="#2E2E2E"/>
<path d="M13.5333 38.2083L11.2583 37.7416C11.375 37.1 11.6666 36.4583 12.075 35.9333L13.9416 37.3333C13.7083 37.625 13.5916 37.9166 13.5333 38.2083ZM16.45 33.075L14.525 31.7333C14.8166 31.2667 15.225 30.9167 15.6916 30.5667L17.0333 32.4916C16.8 32.6083 16.625 32.8416 16.45 33.075Z" fill="#2E2E2E"/>
<path d="M23.1211 26.8707L21.0127 25.8711L20.4879 26.978L22.5963 27.9776L23.1211 26.8707Z" fill="#2E2E2E"/>
<path d="M42.0448 10.9372L39.9351 9.94043L39.4118 11.048L41.5215 12.0448L42.0448 10.9372Z" fill="#2E2E2E"/>
<path d="M26.0169 20.7667L23.6835 20.3584C23.8002 19.7751 24.0336 19.1917 24.3836 18.7251L26.3085 20.0667C26.1336 20.2417 26.0752 20.5334 26.0169 20.7667ZM21.7586 19.1917L19.4836 18.5501C19.6586 17.9667 19.9502 17.3834 20.4169 16.9167L22.1086 18.5501C21.9919 18.7251 21.8169 18.9584 21.7586 19.1917ZM9.45022 27.8251C9.21688 27.1834 9.21688 26.4834 9.56688 25.8417L11.6669 26.9501L9.45022 27.8251Z" fill="#2E2E2E"/>
<path d="M23.6112 37.881L22.6758 35.7434L21.7673 36.141L22.7027 38.2786L23.6112 37.881Z" fill="#2E2E2E"/>
<path d="M26.1499 42.4433L25.2124 40.3066L24.3043 40.7051L25.2419 42.8418L26.1499 42.4433Z" fill="#2E2E2E"/>
<path d="M24.9235 46.8403L24.4575 44.554L23.0286 44.8452L23.4945 47.1315L24.9235 46.8403Z" fill="#2E2E2E"/>
<path d="M31.3696 46.0832L30.1152 44.1157L28.4921 45.1506L29.7465 47.1181L31.3696 46.0832Z" fill="#2E2E2E"/>
<path d="M26.7749 37.8583C26.7749 37.0416 27.1249 36.2833 27.7666 35.8167L29.2249 37.6833C29.1666 37.6833 29.1666 37.7416 29.1666 37.8L26.7749 37.8583Z" fill="#2E2E2E"/>
<path d="M33.0204 32.3021L31.7056 30.3745L30.5008 31.1963L31.8156 33.1239L33.0204 32.3021Z" fill="#2E2E2E"/>
<path d="M34.0084 37.5667L33.3667 35.2917C33.5417 35.2333 33.775 35.1167 33.8917 35L35.4084 36.8083C35 37.1583 34.5334 37.3917 34.0084 37.5667Z" fill="#2E2E2E"/>
<path d="M39.4252 31.5583L37.7324 29.9524L36.4076 31.349L38.1004 32.9548L39.4252 31.5583Z" fill="#2E2E2E"/>
<path d="M20.693 33.45L18.646 32.3301L18.254 33.0465L20.3011 34.1664L20.693 33.45Z" fill="#2E2E2E"/>
<path d="M38.612 18.5258L36.5654 17.405L36.1732 18.1213L38.2197 19.2421L38.612 18.5258Z" fill="#2E2E2E"/>
</g>
<defs>
<clipPath id="clip0_2_189">
<rect width="56" height="56" fill="white"/>
</clipPath>
</defs>
</svg>
