<svg width="29" height="32" viewBox="0 0 29 32" fill="none" xmlns="http://www.w3.org/2000/svg">
<path d="M19.1801 22.1847L19.1045 19.5077C19.6714 19.4006 20.4651 18.4432 20.7863 17.9329L19.7029 15.5016C19.1045 15.4071 17.8637 15.3504 17.4038 15.7031L15.4638 13.8576C15.785 13.3851 15.6716 12.1506 15.5331 11.5648L13.045 10.6136C12.56 10.9601 11.6467 11.8041 11.5711 12.3773L8.89404 12.4466C8.78696 11.8797 7.82322 11.0986 7.31931 10.7711L4.88794 11.8545C4.79346 12.4529 4.73677 13.6938 5.0895 14.1536L3.25023 16.0937C2.77151 15.7724 1.53693 15.8921 0.951133 16.0244L0 18.5061C0.346439 19.0038 1.19049 19.9045 1.75739 19.9864L1.83298 22.6634C1.27238 22.7768 0.485015 23.7279 0.157472 24.2381L1.24718 26.6695C1.83928 26.764 3.08016 26.8144 3.53998 26.4742L5.48004 28.3072C5.15879 28.7796 5.27847 30.0205 5.41075 30.6063L7.89251 31.5574C8.38383 31.2047 9.29716 30.3607 9.37275 29.7938L12.0498 29.7182C12.1632 30.2914 13.1143 31.0724 13.6308 31.3937L16.0559 30.3166C16.1567 29.7119 16.2008 28.4773 15.8606 28.0175L17.6936 26.0711C18.1723 26.3987 19.4069 26.279 19.999 26.1467L20.9438 23.6586C20.5911 23.1736 19.7533 22.2666 19.1801 22.1847ZM13.3096 22.1658C13.0953 22.7277 12.7192 23.2134 12.2289 23.5615C11.7386 23.9096 11.156 24.1045 10.5549 24.1216C9.95383 24.1386 9.36117 23.9771 8.85191 23.6573C8.34264 23.3375 7.93964 22.8739 7.69386 22.3251C7.44808 21.7763 7.37056 21.1669 7.47111 20.574C7.57166 19.9811 7.84577 19.4314 8.25875 18.9943C8.67174 18.5572 9.20507 18.2524 9.79129 18.1184C10.3775 17.9844 10.9903 18.0273 11.5522 18.2416C11.9256 18.3834 12.2673 18.5975 12.5579 18.8716C12.8484 19.1457 13.082 19.4745 13.2452 19.839C13.4085 20.2035 13.4982 20.5967 13.5092 20.996C13.5203 21.3953 13.4524 21.7928 13.3096 22.1658ZM28.9875 4.85645C28.6915 4.61079 27.9923 4.17617 27.6458 4.28955L26.5813 2.47546C26.8459 2.22981 26.8081 1.40465 26.7388 1.03302L24.9184 0C24.5594 0.132277 23.835 0.522808 23.7594 0.875546L21.6556 0.894443C21.5737 0.541705 20.843 0.163771 20.484 0.0314946L18.6825 1.09601C18.6195 1.46764 18.5943 2.2928 18.8589 2.53845L17.8259 4.36513C17.4731 4.25805 16.7802 4.70527 16.4905 4.95093L16.5094 7.04216C16.8054 7.28782 17.5046 7.71614 17.8511 7.60906L18.9156 9.42314C18.651 9.6688 18.6888 10.494 18.7581 10.8656L20.5785 11.8986C20.9312 11.7663 21.6556 11.3758 21.7375 11.0231L23.835 11.0042C23.9232 11.3569 24.6539 11.7348 25.0129 11.8671L26.8144 10.8026C26.8774 10.4247 26.9026 9.60581 26.6317 9.36015L27.671 7.53347C28.0175 7.63426 28.7104 7.19333 29.0001 6.94768L28.9875 4.85645ZM22.7453 7.59646C22.4198 7.59584 22.1018 7.49879 21.8314 7.31756C21.561 7.13632 21.3504 6.87904 21.2261 6.57819C21.1018 6.27734 21.0694 5.94641 21.1331 5.62719C21.1967 5.30796 21.3536 5.01476 21.5837 4.78459C21.8139 4.55442 22.1071 4.39761 22.4263 4.33395C22.7456 4.27029 23.0765 4.30265 23.3773 4.42693C23.6782 4.55121 23.9355 4.76184 24.1167 5.03223C24.2979 5.30262 24.395 5.62065 24.3956 5.94615C24.3961 6.16302 24.3538 6.37784 24.271 6.57829C24.1882 6.77874 24.0667 6.96087 23.9134 7.11421C23.76 7.26756 23.5779 7.3891 23.3774 7.47186C23.177 7.55462 22.9622 7.59696 22.7453 7.59646Z" fill="#A098AE"/>
</svg>
