<svg width="10" height="7" viewBox="0 0 10 7" fill="none" xmlns="http://www.w3.org/2000/svg">
<path d="M5.03198 6.03755C4.89964 6.03832 4.76845 6.01295 4.64593 5.96291C4.52342 5.91287 4.41198 5.83913 4.31802 5.74593L0.295731 1.72364C0.106378 1.53429 0 1.27747 0 1.00969C0 0.741901 0.106378 0.485083 0.295731 0.29573C0.485084 0.106377 0.741902 0 1.00969 0C1.27747 0 1.53429 0.106377 1.72364 0.29573L5.03198 3.61412L8.34031 0.305786C8.53268 0.141047 8.78013 0.0549631 9.03321 0.0647385C9.28628 0.0745138 9.52635 0.179428 9.70544 0.358515C9.88453 0.537602 9.98944 0.777672 9.99922 1.03075C10.009 1.28383 9.92291 1.53128 9.75817 1.72364L5.73588 5.74593C5.54858 5.93171 5.29578 6.03644 5.03198 6.03755Z" fill="#A098AE"/>
</svg>
