<svg width="21" height="15" viewBox="0 0 21 15" fill="none" xmlns="http://www.w3.org/2000/svg">
<path d="M3 6C4.65685 6 6 4.65685 6 3C6 1.34315 4.65685 0 3 0C1.34315 0 0 1.34315 0 3C0 4.65685 1.34315 6 3 6Z" fill="#2E2E2E"/>
<path d="M18 6C19.6569 6 21 4.65685 21 3C21 1.34315 19.6569 0 18 0C16.3431 0 15 1.34315 15 3C15 4.65685 16.3431 6 18 6Z" fill="#2E2E2E"/>
<path d="M10.5 6C12.1569 6 13.5 4.65685 13.5 3C13.5 1.34315 12.1569 0 10.5 0C8.84315 0 7.5 1.34315 7.5 3C7.5 4.65685 8.84315 6 10.5 6Z" fill="#2E2E2E"/>
<path d="M3 15C4.65685 15 6 13.6569 6 12C6 10.3431 4.65685 9 3 9C1.34315 9 0 10.3431 0 12C0 13.6569 1.34315 15 3 15Z" fill="#2E2E2E"/>
<path d="M18 15C19.6569 15 21 13.6569 21 12C21 10.3431 19.6569 9 18 9C16.3431 9 15 10.3431 15 12C15 13.6569 16.3431 15 18 15Z" fill="#2E2E2E"/>
<path d="M10.5 15C12.1569 15 13.5 13.6569 13.5 12C13.5 10.3431 12.1569 9 10.5 9C8.84315 9 7.5 10.3431 7.5 12C7.5 13.6569 8.84315 15 10.5 15Z" fill="#2E2E2E"/>
</svg>
