<svg width="7" height="11" viewBox="0 0 7 11" fill="none" xmlns="http://www.w3.org/2000/svg">
<path d="M0 9.64864C1.23215 8.65903 2.1975 7.84892 2.89605 7.21829C3.59459 6.57795 4.18156 5.91337 4.65696 5.22453C5.14206 4.52598 5.38461 3.84199 5.38461 3.17255C5.38461 2.54192 5.22938 2.04712 4.91891 1.68815C4.61815 1.31947 4.1282 1.13513 3.44906 1.13513C2.78932 1.13513 2.27512 1.34373 1.90644 1.76091C1.54747 2.1684 1.35343 2.71656 1.32432 3.4054H0.043659C0.082467 2.31878 0.412335 1.47956 1.03326 0.887733C1.65419 0.295911 2.45461 0 3.43451 0C4.43381 0 5.22453 0.276507 5.80665 0.829521C6.39847 1.38253 6.69438 2.14414 6.69438 3.11434C6.69438 3.91961 6.45183 4.70547 5.96673 5.47193C5.49133 6.22868 4.94802 6.89812 4.33679 7.48024C3.72557 8.05266 2.94456 8.7221 1.99376 9.48855H6.99999V10.5946H0V9.64864Z" fill="white"/>
</svg>
