<svg width="16" height="14" viewBox="0 0 16 14" fill="none" xmlns="http://www.w3.org/2000/svg">
<path d="M0.170622 12.3781L4.24271 7.44021C4.27774 7.39765 4.30194 7.34724 4.31324 7.29329C4.32454 7.23935 4.3226 7.18346 4.30759 7.13042L2.56304 0.972542C2.52125 0.818783 2.52817 0.655848 2.58283 0.506182C2.6375 0.356516 2.73722 0.227481 2.86827 0.136848C2.99932 0.0462158 3.15525 -0.0015532 3.31458 0.000119608C3.4739 0.00179268 3.62879 0.0528252 3.75791 0.146189L15.6943 8.96769C15.8108 9.05603 15.8998 9.17563 15.951 9.31258C16.0021 9.44953 16.0134 9.5982 15.9834 9.74128C15.9534 9.88437 15.8833 10.016 15.7814 10.1208C15.6795 10.2257 15.55 10.2994 15.4078 10.3335L0.932628 13.615C0.776878 13.6486 0.614546 13.6331 0.467988 13.5706C0.32143 13.5081 0.197857 13.4017 0.114286 13.266C0.0307143 13.1304 -0.00874374 12.9721 0.00134571 12.8131C0.0114349 12.6541 0.0705752 12.5021 0.170622 12.3781Z" fill="white"/>
</svg>
