<svg width="29" height="25" viewBox="0 0 29 25" fill="none" xmlns="http://www.w3.org/2000/svg">
<path d="M24.5216 0H4.22785C3.10656 0 2.03119 0.445433 1.23831 1.23831C0.445433 2.03119 0 3.10656 0 4.22786V17.757C0 18.8783 0.445433 19.9537 1.23831 20.7465C2.03119 21.5394 3.10656 21.9848 4.22785 21.9848H6.76457V23.7318C6.76458 23.9614 6.8269 24.1866 6.94488 24.3835C7.06285 24.5805 7.23206 24.7417 7.43446 24.85C7.63686 24.9583 7.86486 25.0097 8.09415 24.9986C8.32344 24.9875 8.54543 24.9144 8.73644 24.7871L12.9389 21.9848H24.5216C25.6429 21.9848 26.7182 21.5394 27.5111 20.7465C28.304 19.9537 28.7494 18.8783 28.7494 17.757V4.22786C28.7494 3.10656 28.304 2.03119 27.5111 1.23831C26.7182 0.445433 25.6429 0 24.5216 0ZM15.3894 10.7015L13.8454 12.4519L14.0635 14.7789C14.0839 14.9974 14.0473 15.2175 13.9574 15.4176C13.8674 15.6178 13.7271 15.7912 13.5501 15.921C13.3731 16.0508 13.1655 16.1325 12.9476 16.1582C12.7296 16.1839 12.5087 16.1527 12.3064 16.0675L10.1469 15.134L8.00248 16.0658C7.80056 16.1528 7.57954 16.1858 7.36104 16.1617C7.14253 16.1376 6.93403 16.0571 6.75592 15.9283C6.57781 15.7994 6.43619 15.6266 6.34493 15.4266C6.25366 15.2266 6.21586 15.0063 6.23524 14.7873L6.45509 12.4553L4.90431 10.7015C4.75903 10.5359 4.65932 10.3354 4.61499 10.1196C4.57066 9.90376 4.58323 9.68013 4.65146 9.47065C4.7197 9.26117 4.84125 9.07305 5.00418 8.92475C5.16711 8.77646 5.36581 8.6731 5.58077 8.62483L7.86212 8.11748L9.04592 6.10502C9.16788 5.92852 9.33085 5.78425 9.52084 5.68459C9.71083 5.58494 9.92216 5.53288 10.1367 5.53288C10.3512 5.53288 10.5626 5.58494 10.7526 5.68459C10.9426 5.78425 11.1055 5.92852 11.2275 6.10502L12.4113 8.12086L14.6909 8.62821C14.9068 8.67428 15.107 8.77575 15.2718 8.92263C15.4365 9.06952 15.5602 9.25676 15.6307 9.46594C15.7012 9.67513 15.716 9.89906 15.6737 10.1157C15.6314 10.3323 15.5334 10.5342 15.3894 10.7015ZM21.1393 15.2203H17.757C17.5327 15.2203 17.3177 15.1312 17.1591 14.9726C17.0005 14.814 16.9114 14.599 16.9114 14.3747C16.9114 14.1504 17.0005 13.9354 17.1591 13.7768C17.3177 13.6182 17.5327 13.5291 17.757 13.5291H21.1393C21.3635 13.5291 21.5786 13.6182 21.7372 13.7768C21.8958 13.9354 21.9848 14.1504 21.9848 14.3747C21.9848 14.599 21.8958 14.814 21.7372 14.9726C21.5786 15.1312 21.3635 15.2203 21.1393 15.2203ZM23.676 11.838H17.757C17.5327 11.838 17.3177 11.7489 17.1591 11.5903C17.0005 11.4318 16.9114 11.2167 16.9114 10.9924C16.9114 10.7682 17.0005 10.5531 17.1591 10.3945C17.3177 10.2359 17.5327 10.1469 17.757 10.1469H23.676C23.9002 10.1469 24.1153 10.2359 24.2739 10.3945C24.4325 10.5531 24.5216 10.7682 24.5216 10.9924C24.5216 11.2167 24.4325 11.4318 24.2739 11.5903C24.1153 11.7489 23.9002 11.838 23.676 11.838ZM23.676 8.45571H17.757C17.5327 8.45571 17.3177 8.36662 17.1591 8.20805C17.0005 8.04947 16.9114 7.8344 16.9114 7.61014C16.9114 7.38588 17.0005 7.1708 17.1591 7.01223C17.3177 6.85365 17.5327 6.76457 17.757 6.76457H23.676C23.9002 6.76457 24.1153 6.85365 24.2739 7.01223C24.4325 7.1708 24.5216 7.38588 24.5216 7.61014C24.5216 7.8344 24.4325 8.04947 24.2739 8.20805C24.1153 8.36662 23.9002 8.45571 23.676 8.45571Z" fill="#A098AE"/>
</svg>
