<svg width="56" height="56" viewBox="0 0 56 56" fill="none" xmlns="http://www.w3.org/2000/svg">
<g clip-path="url(#clip0_2_109)">
<path d="M37.5667 37.0417H18.6084V49.9917H37.5667V37.0417Z" fill="#A6C44A"/>
<path d="M42.5835 11.6666C42.3502 11.6666 42.0585 11.6666 41.8252 11.725C40.0169 5.89163 34.1835 1.6333 27.2419 1.6333C21.1169 1.6333 15.8085 4.9583 13.4169 9.79997C6.76686 10.5 1.5752 15.6916 1.5752 22.05C1.5752 28.875 7.64186 34.475 15.0502 34.475C19.4835 34.475 23.4502 32.4916 25.9002 29.4583C26.3085 29.5166 26.7752 29.5166 27.2419 29.5166C29.1669 29.5166 31.0335 29.1666 32.7835 28.525C34.8835 31.4416 38.5002 33.3666 42.6419 33.3666C49.1752 33.3666 54.4835 28.525 54.4835 22.5166C54.4835 16.5083 49.1169 11.6666 42.5835 11.6666Z" fill="#F8B602"/>
<path d="M15.1085 35.5832C7.00013 35.5832 0.466797 29.5166 0.466797 22.0499C0.466797 15.3999 5.7168 9.74155 12.7168 8.69155C15.4585 3.67489 21.1168 0.466553 27.2418 0.466553C34.1835 0.466553 40.3668 4.54989 42.6418 10.5582C49.7585 10.5582 55.5918 15.9249 55.5918 22.5749C55.5918 29.1666 49.7585 34.5916 42.6418 34.5916C38.6168 34.5916 34.8251 32.8416 32.3751 29.9249C30.6835 30.4499 28.9918 30.6832 27.2418 30.6832C26.9501 30.6832 26.6585 30.6832 26.4251 30.6832C23.6251 33.7749 19.5418 35.5832 15.1085 35.5832ZM27.2418 2.74155C21.7585 2.74155 16.7418 5.71655 14.4668 10.2666L14.1751 10.8499L13.5335 10.9082C7.40846 11.6082 2.7418 16.3916 2.7418 22.0499C2.7418 28.2332 8.28346 33.3082 15.1085 33.3082C19.0751 33.3082 22.6918 31.6166 25.0251 28.6999L25.4335 28.2332L26.0168 28.2916C26.3668 28.2916 26.7751 28.3499 27.2418 28.3499C28.9918 28.3499 30.7418 28.0582 32.3751 27.4749L33.1918 27.1832L33.7168 27.8832C35.7001 30.6249 39.0251 32.2582 42.6418 32.2582C48.5335 32.2582 53.3168 27.8832 53.3168 22.5749C53.3168 17.2666 48.4751 12.8332 42.5835 12.8332C42.4085 12.8332 42.2335 12.8332 42.0585 12.8332L41.0085 12.8916L40.7168 12.0166C39.0251 6.59155 33.4835 2.74155 27.2418 2.74155Z" fill="#2E2E2E"/>
<path d="M42.35 55.5333H13.65L7.9917 31.4417L10.0334 32.3167C11.6667 32.9584 13.3584 33.3083 15.1084 33.3083C19.075 33.3083 22.6917 31.6167 25.025 28.7L25.4334 28.2334L26.0167 28.2917C26.3667 28.2917 26.775 28.35 27.2417 28.35C28.9917 28.35 30.7417 28.0583 32.375 27.475L33.1917 27.1833L33.7167 27.8834C35.7 30.625 39.025 32.2583 42.6417 32.2583C43.8667 32.2583 45.0917 32.0833 46.2584 31.675L48.1834 31.0334L42.35 55.5333ZM15.4584 53.2584H40.6L45.0917 34.3C44.275 34.4167 43.4584 34.5334 42.6417 34.5334C38.6167 34.5334 34.825 32.7834 32.375 29.8667C30.6834 30.3917 28.9917 30.625 27.2417 30.625C26.95 30.625 26.6584 30.625 26.425 30.625C23.625 33.775 19.5417 35.5834 15.1084 35.5834C13.7667 35.5834 12.425 35.4084 11.2 35.1167L15.4584 53.2584Z" fill="#2E2E2E"/>
<path d="M23.5665 39.4333H21.2915V47.075H23.5665V39.4333Z" fill="#2E2E2E"/>
<path d="M29.2252 39.4333H26.9502V47.075H29.2252V39.4333Z" fill="#2E2E2E"/>
<path d="M34.8248 39.4333H32.5498V47.075H34.8248V39.4333Z" fill="#2E2E2E"/>
<path d="M13.562 27.84L11.7329 26.1235L10.1761 27.7825L12.0052 29.4989L13.562 27.84Z" fill="#2E2E2E"/>
<path d="M15.3774 17.6127L13.5483 15.8962L11.9915 17.5552L13.8206 19.2716L15.3774 17.6127Z" fill="#2E2E2E"/>
<path d="M44.6506 18.4809L42.8218 16.7642L41.2648 18.4229L43.0936 20.1396L44.6506 18.4809Z" fill="#2E2E2E"/>
<path d="M35.3828 20.7482L33.5537 19.0317L31.9969 20.6907L33.826 22.4071L35.3828 20.7482Z" fill="#2E2E2E"/>
<path d="M47.3569 26.9416L45.5278 25.2251L43.971 26.884L45.8001 28.6005L47.3569 26.9416Z" fill="#2E2E2E"/>
<path d="M24.1421 22.4562L22.313 20.7397L20.7562 22.3987L22.5853 24.1151L24.1421 22.4562Z" fill="#2E2E2E"/>
<path d="M25.8271 12.4652L23.998 10.7488L22.4413 12.4077L24.2703 14.1242L25.8271 12.4652Z" fill="#2E2E2E"/>
<path d="M34.4961 9.69425L32.667 7.97778L31.1102 9.6367L32.9393 11.3532L34.4961 9.69425Z" fill="#2E2E2E"/>
</g>
<defs>
<clipPath id="clip0_2_109">
<rect width="56" height="56" fill="white"/>
</clipPath>
</defs>
</svg>
