<svg width="56" height="56" viewBox="0 0 56 56" fill="none" xmlns="http://www.w3.org/2000/svg">
<g clip-path="url(#clip0_2_2643)">
<path d="M31.7334 48.825C22.4001 52.9083 11.4917 48.65 7.40839 39.3167C3.32505 29.9833 7.58339 19.075 16.9167 14.9917C21.5834 12.95 26.6584 13.0083 31.0334 14.7L32.9584 9.74167C27.3001 7.525 20.7667 7.46667 14.7584 10.0917C2.74172 15.3417 -2.74161 29.4 2.50839 41.4167C7.75839 53.4333 21.8167 58.9167 33.8334 53.6667C45.8501 48.4167 51.3334 34.3583 46.0834 22.3417L41.2417 24.5C45.3251 33.8333 41.0667 44.7417 31.7334 48.825Z" fill="#F8B602"/>
<path d="M38.8501 6.76666C43.2834 8.45833 47.0168 11.9 49.0584 16.5667L53.9001 14.4083C51.2751 8.4 46.4918 4.025 40.7751 1.80833L38.8501 6.76666Z" fill="#A6C44A"/>
<path d="M48.4752 18.0833L48.0085 17.0333C46.1418 12.775 42.7585 9.56667 38.4418 7.875L37.3335 7.40833L40.1335 0.291668L41.2418 0.700001C47.4252 3.15 52.3252 7.81667 55.0085 13.9417L55.4752 14.9917L48.4752 18.0833ZM40.3668 6.125C44.3918 7.99167 47.6002 11.0833 49.6418 15.05L52.3835 13.8833C50.0502 9.21667 46.2585 5.54167 41.4752 3.38333L40.3668 6.125Z" fill="#2E2E2E"/>
<path d="M49.0583 16.5667C47.0166 11.9 43.2833 8.51666 38.8499 6.76666L32.1416 23.975L49.0583 16.5667Z" fill="#F8B602"/>
<path d="M30.0415 26.1917L38.2082 5.25L39.3165 5.65833C44.2165 7.58333 48.0665 11.2583 50.1665 16.1L50.6332 17.15L30.0415 26.1917ZM39.4915 8.28333L34.2415 21.7583L47.4832 15.9833C45.7332 12.6 42.9332 9.91667 39.4915 8.28333Z" fill="#2E2E2E"/>
<path d="M24.3249 51.5667C16.7415 51.5667 9.50821 47.1917 6.29988 39.7833C1.92488 29.8667 6.47488 18.2583 16.3915 13.8833C21.1749 11.7833 26.5415 11.6667 31.4415 13.5917L32.5499 14L26.4249 29.6917L41.8249 22.925L42.2915 23.975C44.3915 28.7583 44.5082 34.125 42.5832 39.025C40.6582 43.925 36.9832 47.775 32.1415 49.875C29.6332 51.0417 27.0082 51.5667 24.3249 51.5667ZM8.45821 38.85C12.3082 47.6 22.5165 51.5667 31.2665 47.775C35.5249 45.9083 38.7332 42.525 40.4249 38.2083C41.9415 34.2417 41.9999 29.9833 40.5999 26.075L22.2249 34.125L29.5165 15.4C25.5499 14.1167 21.2332 14.35 17.3832 16.0417C8.63321 19.8917 4.66654 30.1 8.45821 38.85Z" fill="#2E2E2E"/>
<path d="M17.9084 44.5083C19.5192 44.5083 20.825 43.2025 20.825 41.5917C20.825 39.9808 19.5192 38.675 17.9084 38.675C16.2975 38.675 14.9917 39.9808 14.9917 41.5917C14.9917 43.2025 16.2975 44.5083 17.9084 44.5083Z" fill="#A6C44A"/>
<path d="M17.9081 45.675C16.3331 45.675 14.8164 44.7417 14.1164 43.225C13.6498 42.2333 13.6498 41.125 14.0581 40.075C14.4664 39.025 15.2248 38.2667 16.2164 37.8C17.2081 37.3333 18.3164 37.3333 19.3664 37.7417C20.4164 38.15 21.1748 38.9083 21.6414 39.9C22.1081 40.8917 22.1081 42 21.6998 43.05C21.2914 44.1 20.5331 44.8583 19.5414 45.325C19.0164 45.5583 18.4331 45.675 17.9081 45.675ZM17.9081 39.7833C17.6748 39.7833 17.4414 39.8417 17.2081 39.9583C16.7998 40.1333 16.4498 40.4833 16.2748 40.95C16.0998 41.4167 16.0998 41.8833 16.2748 42.2917C16.6831 43.1667 17.7331 43.575 18.6081 43.225C19.0164 43.05 19.3664 42.7 19.5414 42.2333C19.7164 41.7667 19.7164 41.3 19.5414 40.8917C19.3664 40.4833 19.0164 40.1333 18.5498 39.9583C18.3164 39.8417 18.0831 39.7833 17.9081 39.7833Z" fill="#A6C44A"/>
<path d="M15.9832 26.1333C17.4007 26.1333 18.5498 24.9842 18.5498 23.5667C18.5498 22.1491 17.4007 21 15.9832 21C14.5656 21 13.4165 22.1491 13.4165 23.5667C13.4165 24.9842 14.5656 26.1333 15.9832 26.1333Z" fill="#A6C44A"/>
<path d="M15.9834 27.3C15.5168 27.3 15.0501 27.2417 14.6418 27.0667C13.7084 26.7167 13.0084 26.0167 12.6001 25.0833C12.1918 24.15 12.1918 23.1583 12.5418 22.225C12.8918 21.2917 13.5918 20.5917 14.5251 20.1833C16.3918 19.3667 18.6084 20.2417 19.4251 22.1083C20.2418 23.975 19.3668 26.1917 17.5001 27.0083C17.0334 27.1833 16.5084 27.3 15.9834 27.3ZM15.9834 22.225C15.8084 22.225 15.6334 22.2833 15.4584 22.3417C15.1084 22.5167 14.8751 22.75 14.7001 23.1C14.5834 23.45 14.5834 23.8 14.7001 24.15C14.8168 24.5 15.1084 24.7333 15.4584 24.9083C15.8084 25.025 16.1584 25.025 16.5084 24.9083C17.2084 24.6167 17.5001 23.8 17.2084 23.1C17.0334 22.5167 16.5084 22.225 15.9834 22.225Z" fill="#A6C44A"/>
<path d="M32.9585 43.8667C32.4919 43.8667 32.0835 43.8083 31.6169 43.6333C30.6835 43.2833 29.9835 42.5833 29.5752 41.7083L31.7335 40.775C31.8502 41.125 32.1419 41.3583 32.4335 41.475C32.7835 41.5917 33.1335 41.5917 33.4252 41.475C34.0669 41.1833 34.4169 40.425 34.1252 39.725L36.2835 38.7917C37.1002 40.6583 36.2252 42.8167 34.4169 43.6333C33.9502 43.8083 33.4835 43.8667 32.9585 43.8667ZM40.5419 17.6167C39.1419 17.6167 37.8002 16.8 37.1585 15.4L39.3169 14.4667C39.6085 15.1083 40.3669 15.4583 41.0669 15.1667C41.7085 14.875 42.0585 14.1167 41.7669 13.4167L43.9252 12.4833C44.7419 14.35 43.8669 16.5083 42.0585 17.325C41.5335 17.5583 41.0669 17.6167 40.5419 17.6167Z" fill="#2E2E2E"/>
<path d="M10.8685 33.4204L8.5459 33.1975L8.37867 34.9394L10.7013 35.1624L10.8685 33.4204Z" fill="#2E2E2E"/>
<path d="M13.5333 38.2083L11.2583 37.7417C11.375 37.1 11.6666 36.4583 12.075 35.9333L13.9416 37.3333C13.7083 37.625 13.5916 37.9167 13.5333 38.2083ZM16.45 33.075L14.525 31.7333C14.8166 31.2667 15.225 30.9167 15.6916 30.5667L17.0333 32.4917C16.8 32.6083 16.625 32.8417 16.45 33.075Z" fill="#2E2E2E"/>
<path d="M23.1211 26.8707L21.0127 25.8711L20.4879 26.978L22.5963 27.9776L23.1211 26.8707Z" fill="#2E2E2E"/>
<path d="M42.0448 10.9372L39.9351 9.94046L39.4118 11.0481L41.5215 12.0448L42.0448 10.9372Z" fill="#2E2E2E"/>
<path d="M26.0169 20.7667L23.6835 20.3583C23.8002 19.775 24.0336 19.1917 24.3836 18.725L26.3085 20.0667C26.1336 20.2417 26.0752 20.5333 26.0169 20.7667ZM21.7586 19.1917L19.4836 18.55C19.6586 17.9667 19.9502 17.3833 20.4169 16.9167L22.1086 18.55C21.9919 18.725 21.8169 18.9583 21.7586 19.1917ZM9.45022 27.825C9.21688 27.1833 9.21688 26.4833 9.56688 25.8417L11.6669 26.95L9.45022 27.825Z" fill="#2E2E2E"/>
<path d="M23.6112 37.881L22.6758 35.7434L21.7673 36.1409L22.7027 38.2785L23.6112 37.881Z" fill="#2E2E2E"/>
<path d="M26.1499 42.4434L25.2124 40.3067L24.3043 40.7052L25.2419 42.8419L26.1499 42.4434Z" fill="#2E2E2E"/>
<path d="M24.9235 46.8403L24.4575 44.554L23.0286 44.8452L23.4945 47.1315L24.9235 46.8403Z" fill="#2E2E2E"/>
<path d="M31.3696 46.0832L30.1152 44.1157L28.4921 45.1506L29.7465 47.1181L31.3696 46.0832Z" fill="#2E2E2E"/>
<path d="M26.7749 37.8583C26.7749 37.0417 27.1249 36.2833 27.7666 35.8167L29.2249 37.6833C29.1666 37.6833 29.1666 37.7417 29.1666 37.8L26.7749 37.8583Z" fill="#2E2E2E"/>
<path d="M33.0204 32.3021L31.7056 30.3745L30.5008 31.1963L31.8156 33.1239L33.0204 32.3021Z" fill="#2E2E2E"/>
<path d="M34.0084 37.5667L33.3667 35.2917C33.5417 35.2333 33.775 35.1167 33.8917 35L35.4084 36.8083C35 37.1583 34.5334 37.3917 34.0084 37.5667Z" fill="#2E2E2E"/>
<path d="M39.4252 31.5582L37.7324 29.9524L36.4076 31.3489L38.1004 32.9548L39.4252 31.5582Z" fill="#2E2E2E"/>
<path d="M20.693 33.45L18.646 32.3302L18.254 33.0466L20.3011 34.1665L20.693 33.45Z" fill="#2E2E2E"/>
<path d="M38.612 18.5257L36.5654 17.405L36.1732 18.1213L38.2197 19.242L38.612 18.5257Z" fill="#2E2E2E"/>
</g>
<defs>
<clipPath id="clip0_2_2643">
<rect width="56" height="56" fill="white"/>
</clipPath>
</defs>
</svg>
