<svg width="144" height="60" viewBox="0 0 144 60" fill="none" xmlns="http://www.w3.org/2000/svg">
<rect width="60" height="60" rx="16" fill="white"/>
<g clip-path="url(#clip0_2_877)">
<path d="M27.0308 27.4255C26.3877 27.4255 25.7445 27.4255 25.1034 27.4255C24.086 27.4255 23.0706 27.4255 22.0531 27.4255C21.805 27.4255 21.5465 27.4461 21.2983 27.4193C21.3707 27.4296 21.4451 27.4399 21.5175 27.4482C21.4513 27.4379 21.3914 27.4234 21.3293 27.3986C21.3955 27.4255 21.4617 27.4544 21.5278 27.4813C21.4699 27.4544 21.4162 27.4234 21.3645 27.3841C21.4203 27.4275 21.4761 27.471 21.532 27.5144C21.4906 27.4792 21.4534 27.442 21.4182 27.4006C21.4617 27.4565 21.5051 27.5123 21.5485 27.5682C21.5092 27.5165 21.4782 27.4648 21.4513 27.4048C21.4782 27.471 21.5072 27.5371 21.534 27.6033C21.5092 27.5413 21.4927 27.4813 21.4844 27.4151C21.4948 27.4875 21.5051 27.562 21.5134 27.6343C21.4927 27.4296 21.5072 27.2187 21.5072 27.0139C21.5072 26.559 21.5072 26.104 21.5072 25.6511C21.5072 24.6254 21.5072 23.5976 21.5072 22.5718C21.5072 22.3237 21.4865 22.0652 21.5134 21.817C21.503 21.8894 21.4927 21.9638 21.4844 22.0362C21.4948 21.97 21.5092 21.9101 21.534 21.848C21.5072 21.9142 21.4782 21.9804 21.4513 22.0466C21.4782 21.9887 21.5092 21.9349 21.5485 21.8832C21.5051 21.939 21.4617 21.9949 21.4182 22.0507C21.4534 22.0093 21.4906 21.9721 21.532 21.937C21.4761 21.9804 21.4203 22.0238 21.3645 22.0672C21.4162 22.0279 21.4679 21.9969 21.5278 21.97C21.4617 21.9969 21.3955 22.0259 21.3293 22.0528C21.3914 22.0279 21.4513 22.0114 21.5175 22.0031C21.4451 22.0135 21.3707 22.0238 21.2983 22.0321C21.503 22.0114 21.714 22.0259 21.9187 22.0259C22.3737 22.0259 22.8286 22.0259 23.2815 22.0259C24.3073 22.0259 25.3351 22.0259 26.3608 22.0259C26.609 22.0259 26.8675 22.0052 27.1156 22.0321C27.0432 22.0217 26.9688 22.0114 26.8964 22.0031C26.9626 22.0135 27.0226 22.0279 27.0846 22.0528C27.0184 22.0259 26.9522 21.9969 26.8861 21.97C26.944 21.9969 26.9977 22.0279 27.0494 22.0672C26.9936 22.0238 26.9378 21.9804 26.8819 21.937C26.9233 21.9721 26.9605 22.0093 26.9957 22.0507C26.9522 21.9949 26.9088 21.939 26.8654 21.8832C26.9047 21.9349 26.9357 21.9866 26.9626 22.0466C26.9357 21.9804 26.9067 21.9142 26.8799 21.848C26.9047 21.9101 26.9212 21.97 26.9295 22.0362C26.9192 21.9638 26.9088 21.8894 26.9005 21.817C26.9212 22.0217 26.9067 22.2327 26.9067 22.4374C26.9067 22.8924 26.9067 23.3473 26.9067 23.8002C26.9067 24.826 26.9067 25.8538 26.9067 26.8795C26.9067 27.1277 26.9274 27.3862 26.9005 27.6343C26.9109 27.562 26.9212 27.4875 26.9295 27.4151C26.9192 27.4813 26.9047 27.5413 26.8799 27.6033C26.9067 27.5371 26.9357 27.471 26.9626 27.4048C26.9357 27.4627 26.9047 27.5165 26.8654 27.5682C26.9088 27.5123 26.9522 27.4565 26.9957 27.4006C26.9605 27.442 26.9233 27.4792 26.8819 27.5144C26.9378 27.471 26.9936 27.4275 27.0494 27.3841C26.9977 27.4234 26.946 27.4544 26.8861 27.4813C26.9522 27.4544 27.0184 27.4255 27.0846 27.3986C27.0226 27.4234 26.9626 27.4399 26.8964 27.4482C26.9688 27.4379 27.0432 27.4275 27.1156 27.4193C27.0887 27.4234 27.0598 27.4255 27.0308 27.4255C26.8158 27.4296 26.5986 27.5144 26.4456 27.6674C26.3029 27.8101 26.1933 28.0459 26.2036 28.2527C26.2243 28.6932 26.5676 29.0902 27.0308 29.0799C27.4362 29.0716 27.8249 28.9206 28.1124 28.6311C28.3937 28.3499 28.5425 27.9735 28.5591 27.5785C28.5612 27.5103 28.5591 27.4441 28.5591 27.3758C28.5591 26.9746 28.5591 26.5714 28.5591 26.1702C28.5591 25.0266 28.5591 23.883 28.5591 22.7393C28.5591 22.4643 28.5632 22.1893 28.5591 21.9142C28.5508 21.3517 28.2427 20.783 27.7195 20.541C27.4879 20.4335 27.279 20.3756 27.0184 20.3735C26.9874 20.3735 26.9584 20.3735 26.9274 20.3735C25.9823 20.3735 25.0373 20.3735 24.0922 20.3735C23.2029 20.3735 22.3137 20.3735 21.4265 20.3735C21.0088 20.3735 20.5993 20.5224 20.3015 20.8223C20.0016 21.1222 19.8528 21.5296 19.8528 21.9514C19.8528 22.274 19.8528 22.5987 19.8528 22.9213C19.8528 24.0691 19.8528 25.2168 19.8528 26.3646C19.8528 26.7265 19.8528 27.0884 19.8528 27.4523C19.8528 27.4813 19.8528 27.5103 19.8528 27.5413C19.8548 27.7998 19.9148 28.0128 20.0203 28.2423C20.2622 28.7655 20.8309 29.0737 21.3934 29.0819C22.2206 29.0923 23.0478 29.0819 23.875 29.0819C24.8677 29.0819 25.8624 29.0819 26.855 29.0819C26.913 29.0819 26.9709 29.0819 27.0288 29.0819C27.461 29.0819 27.8766 28.7014 27.856 28.2547C27.8394 27.8039 27.4961 27.4255 27.0308 27.4255ZM27.0308 30.9204C26.2739 30.9204 25.5191 30.9204 24.7622 30.9204C23.7241 30.9204 22.6859 30.9204 21.6478 30.9204C21.563 30.9204 21.4782 30.9183 21.3934 30.9204C20.7234 30.9308 20.1609 31.3444 19.9355 31.971C19.8217 32.2853 19.8548 32.6617 19.8548 32.9926C19.8548 34.101 19.8548 35.2074 19.8548 36.3159C19.8548 36.7874 19.8548 37.2568 19.8548 37.7283C19.8548 37.8379 19.8548 37.9496 19.8548 38.0592C19.8548 38.4893 20.0161 38.9257 20.3429 39.2173C20.651 39.4923 21.0253 39.6288 21.4368 39.6288C21.5589 39.6288 21.6788 39.6288 21.8008 39.6288C22.2785 39.6288 22.7583 39.6288 23.236 39.6288C24.3362 39.6288 25.4343 39.6288 26.5345 39.6288C26.6689 39.6288 26.8054 39.6288 26.9398 39.6288C27.2335 39.6288 27.5085 39.5751 27.7732 39.4365C28.2675 39.1801 28.5591 38.63 28.5632 38.084C28.5632 37.9889 28.5632 37.8958 28.5632 37.8007C28.5632 36.7543 28.5632 35.7058 28.5632 34.6594C28.5632 34.1362 28.5632 33.615 28.5632 33.0918C28.5632 32.8519 28.5798 32.6038 28.557 32.3639C28.5239 31.9834 28.3812 31.6132 28.0938 31.3485C27.8001 31.0776 27.4341 30.9287 27.0308 30.9204C26.5986 30.9121 26.1829 31.3071 26.2036 31.7476C26.2243 32.2026 26.5676 32.5645 27.0308 32.5748C27.0598 32.5748 27.0887 32.5769 27.1177 32.581C27.0453 32.5707 26.9709 32.5603 26.8985 32.5521C26.9647 32.5624 27.0246 32.5769 27.0867 32.6017C27.0205 32.5748 26.9543 32.5459 26.8881 32.519C26.946 32.5459 26.9998 32.5769 27.0515 32.6162C26.9957 32.5728 26.9398 32.5293 26.884 32.4859C26.9254 32.5211 26.9626 32.5583 26.9977 32.5996C26.9543 32.5438 26.9109 32.488 26.8675 32.4321C26.9067 32.4838 26.9378 32.5355 26.9647 32.5955C26.9378 32.5293 26.9088 32.4632 26.8819 32.397C26.9067 32.459 26.9233 32.519 26.9316 32.5852C26.9212 32.5128 26.9109 32.4383 26.9026 32.366C26.9233 32.5707 26.9088 32.7816 26.9088 32.9864C26.9088 33.4413 26.9088 33.8963 26.9088 34.3492C26.9088 35.3749 26.9088 36.4027 26.9088 37.4285C26.9088 37.6766 26.9295 37.9351 26.9026 38.1833C26.913 38.1109 26.9233 38.0364 26.9316 37.9641C26.9212 38.0302 26.9067 38.0902 26.8819 38.1523C26.9088 38.0861 26.9378 38.0199 26.9647 37.9537C26.9378 38.0116 26.9067 38.0654 26.8675 38.1171C26.9109 38.0613 26.9543 38.0054 26.9977 37.9496C26.9626 37.991 26.9254 38.0282 26.884 38.0633C26.9398 38.0199 26.9957 37.9765 27.0515 37.933C26.9998 37.9723 26.9481 38.0034 26.8881 38.0302C26.9543 38.0034 27.0205 37.9744 27.0867 37.9475C27.0246 37.9723 26.9647 37.9889 26.8985 37.9972C26.9709 37.9868 27.0453 37.9765 27.1177 37.9682C26.913 37.9889 26.702 37.9744 26.4973 37.9744C26.0423 37.9744 25.5874 37.9744 25.1345 37.9744C24.1087 37.9744 23.0809 37.9744 22.0552 37.9744C21.807 37.9744 21.5485 37.9951 21.3004 37.9682C21.3727 37.9785 21.4472 37.9889 21.5196 37.9972C21.4534 37.9868 21.3934 37.9723 21.3314 37.9475C21.3976 37.9744 21.4637 38.0034 21.5299 38.0302C21.472 38.0034 21.4182 37.9723 21.3665 37.933C21.4224 37.9765 21.4782 38.0199 21.534 38.0633C21.4927 38.0282 21.4555 37.991 21.4203 37.9496C21.4637 38.0054 21.5072 38.0613 21.5506 38.1171C21.5113 38.0654 21.4803 38.0137 21.4534 37.9537C21.4803 38.0199 21.5092 38.0861 21.5361 38.1523C21.5113 38.0902 21.4948 38.0302 21.4865 37.9641C21.4968 38.0364 21.5072 38.1109 21.5154 38.1833C21.4948 37.9785 21.5092 37.7676 21.5092 37.5629C21.5092 37.1079 21.5092 36.6529 21.5092 36.2001C21.5092 35.1743 21.5092 34.1465 21.5092 33.1208C21.5092 32.8726 21.4885 32.6141 21.5154 32.366C21.5051 32.4383 21.4948 32.5128 21.4865 32.5852C21.4968 32.519 21.5113 32.459 21.5361 32.397C21.5092 32.4632 21.4803 32.5293 21.4534 32.5955C21.4803 32.5376 21.5113 32.4838 21.5506 32.4321C21.5072 32.488 21.4637 32.5438 21.4203 32.5996C21.4555 32.5583 21.4927 32.5211 21.534 32.4859C21.4782 32.5293 21.4224 32.5728 21.3665 32.6162C21.4182 32.5769 21.4699 32.5459 21.5299 32.519C21.4637 32.5459 21.3976 32.5748 21.3314 32.6017C21.3934 32.5769 21.4534 32.5603 21.5196 32.5521C21.4472 32.5624 21.3727 32.5728 21.3004 32.581C21.5051 32.5603 21.716 32.5748 21.9208 32.5748C22.3654 32.5748 22.81 32.5748 23.2546 32.5748C24.2762 32.5748 25.2978 32.5748 26.3215 32.5748C26.5593 32.5748 26.7951 32.5748 27.0329 32.5748C27.4651 32.5748 27.8808 32.1943 27.8601 31.7476C27.8394 31.2989 27.4961 30.9204 27.0308 30.9204ZM30.7408 23.6472C31.0262 23.6472 31.3096 23.6472 31.5949 23.6472C32.2774 23.6472 32.9619 23.6472 33.6443 23.6472C34.4674 23.6472 35.2905 23.6472 36.1136 23.6472C36.8291 23.6472 37.5425 23.6472 38.2581 23.6472C38.6055 23.6472 38.9529 23.6534 39.3004 23.6472C39.3045 23.6472 39.3107 23.6472 39.3148 23.6472C39.7471 23.6472 40.1627 23.2667 40.142 22.82C40.1214 22.3712 39.7781 21.9928 39.3148 21.9928C39.0295 21.9928 38.7461 21.9928 38.4607 21.9928C37.7783 21.9928 37.0938 21.9928 36.4113 21.9928C35.5883 21.9928 34.7652 21.9928 33.9421 21.9928C33.2266 21.9928 32.5131 21.9928 31.7976 21.9928C31.4502 21.9928 31.1027 21.9866 30.7553 21.9928C30.7512 21.9928 30.745 21.9928 30.7408 21.9928C30.3086 21.9928 29.893 22.3733 29.9136 22.82C29.9323 23.2667 30.2776 23.6472 30.7408 23.6472ZM36.0681 25.8062C35.4683 25.8062 34.8686 25.8062 34.2668 25.8062C33.3093 25.8062 32.3539 25.8062 31.3964 25.8062C31.1772 25.8062 30.958 25.8062 30.7388 25.8062C30.3066 25.8062 29.8909 26.1867 29.9116 26.6334C29.9323 27.0822 30.2755 27.4606 30.7388 27.4606C31.3385 27.4606 31.9382 27.4606 32.54 27.4606C33.4975 27.4606 34.4529 27.4606 35.4104 27.4606C35.6296 27.4606 35.8488 27.4606 36.0681 27.4606C36.5003 27.4606 36.9159 27.0801 36.8953 26.6334C36.8766 26.1847 36.5334 25.8062 36.0681 25.8062ZM30.7408 34.1941C31.0262 34.1941 31.3096 34.1941 31.5949 34.1941C32.2774 34.1941 32.9619 34.1941 33.6443 34.1941C34.4674 34.1941 35.2905 34.1941 36.1136 34.1941C36.8291 34.1941 37.5425 34.1941 38.2581 34.1941C38.6055 34.1941 38.9529 34.2003 39.3004 34.1941C39.3045 34.1941 39.3107 34.1941 39.3148 34.1941C39.7471 34.1941 40.1627 33.8136 40.142 33.3669C40.1214 32.9181 39.7781 32.5397 39.3148 32.5397C39.0295 32.5397 38.7461 32.5397 38.4607 32.5397C37.7783 32.5397 37.0938 32.5397 36.4113 32.5397C35.5883 32.5397 34.7652 32.5397 33.9421 32.5397C33.2266 32.5397 32.5131 32.5397 31.7976 32.5397C31.4502 32.5397 31.1027 32.5335 30.7553 32.5397C30.7512 32.5397 30.745 32.5397 30.7408 32.5397C30.3086 32.5397 29.893 32.9202 29.9136 33.3669C29.9323 33.8156 30.2776 34.1941 30.7408 34.1941ZM36.0681 36.3531C35.4683 36.3531 34.8686 36.3531 34.2668 36.3531C33.3093 36.3531 32.3539 36.3531 31.3964 36.3531C31.1772 36.3531 30.958 36.3531 30.7388 36.3531C30.3066 36.3531 29.8909 36.7336 29.9116 37.1803C29.9323 37.6291 30.2755 38.0075 30.7388 38.0075C31.3385 38.0075 31.9382 38.0075 32.54 38.0075C33.4975 38.0075 34.4529 38.0075 35.4104 38.0075C35.6296 38.0075 35.8488 38.0075 36.0681 38.0075C36.5003 38.0075 36.9159 37.627 36.8953 37.1803C36.8766 36.7336 36.5334 36.3531 36.0681 36.3531Z" fill="#A098AE"/>
</g>
<rect x="84" width="60" height="60" rx="16" fill="#F8B602" fill-opacity="0.1"/>
<path d="M110 18H104.667C103.959 18 103.281 18.281 102.781 18.781C102.281 19.2811 102 19.9594 102 20.6667V26C102 26.7072 102.281 27.3855 102.781 27.8856C103.281 28.3857 103.959 28.6667 104.667 28.6667H110C110.707 28.6667 111.386 28.3857 111.886 27.8856C112.386 27.3855 112.667 26.7072 112.667 26V20.6667C112.667 19.9594 112.386 19.2811 111.886 18.781C111.386 18.281 110.707 18 110 18ZM104.667 26V20.6667H110V26H104.667ZM123.333 18H118C117.293 18 116.614 18.281 116.114 18.781C115.614 19.2811 115.333 19.9594 115.333 20.6667V26C115.333 26.7072 115.614 27.3855 116.114 27.8856C116.614 28.3857 117.293 28.6667 118 28.6667H123.333C124.041 28.6667 124.719 28.3857 125.219 27.8856C125.719 27.3855 126 26.7072 126 26V20.6667C126 19.9594 125.719 19.2811 125.219 18.781C124.719 18.281 124.041 18 123.333 18ZM118 26V20.6667H123.333V26H118ZM110 31.3333H104.667C103.959 31.3333 103.281 31.6143 102.781 32.1144C102.281 32.6145 102 33.2928 102 34V39.3333C102 40.0406 102.281 40.7189 102.781 41.219C103.281 41.719 103.959 42 104.667 42H110C110.707 42 111.386 41.719 111.886 41.219C112.386 40.7189 112.667 40.0406 112.667 39.3333V34C112.667 33.2928 112.386 32.6145 111.886 32.1144C111.386 31.6143 110.707 31.3333 110 31.3333ZM104.667 39.3333V34H110V39.3333H104.667ZM123.333 31.3333H118C117.293 31.3333 116.614 31.6143 116.114 32.1144C115.614 32.6145 115.333 33.2928 115.333 34V39.3333C115.333 40.0406 115.614 40.7189 116.114 41.219C116.614 41.719 117.293 42 118 42H123.333C124.041 42 124.719 41.719 125.219 41.219C125.719 40.7189 126 40.0406 126 39.3333V34C126 33.2928 125.719 32.6145 125.219 32.1144C124.719 31.6143 124.041 31.3333 123.333 31.3333ZM118 39.3333V34H123.333V39.3333H118Z" fill="#F8B602"/>
<defs>
<clipPath id="clip0_2_877">
<rect x="19.4104" y="19.4119" width="21.1765" height="21.1765" fill="white"/>
</clipPath>
</defs>
</svg>
