<svg width="24" height="29" viewBox="0 0 24 29" fill="none" xmlns="http://www.w3.org/2000/svg">
<path d="M19.9 8C19.9 3.59 16.31 0 11.9 0C7.49 0 3.9 3.59 3.9 8C3.9 12.41 7.49 16 11.9 16C16.31 16 19.9 12.41 19.9 8ZM6.9 8C6.9 5.24 9.14 3 11.9 3C14.66 3 16.9 5.24 16.9 8C16.9 10.76 14.66 13 11.9 13C9.14 13 6.9 10.76 6.9 8ZM14.3 18H9.5C4.26 18 0 22.26 0 27.5C0 28.33 0.67 29 1.5 29H22.3C23.13 29 23.8 28.33 23.8 27.5C23.8 22.26 19.54 18 14.3 18ZM3.17 26C3.85 23.14 6.43 21 9.5 21H14.3C17.37 21 19.95 23.14 20.63 26H3.17Z" fill="#2E2E2E"/>
</svg>
