<svg width="17" height="21" viewBox="0 0 17 21" fill="none" xmlns="http://www.w3.org/2000/svg">
<path d="M16.9594 7.68651C16.819 6.2255 16.3027 4.82575 15.4607 3.62356C14.6187 2.42136 13.4797 1.4577 12.1547 0.826395C10.8296 0.195094 9.36371 -0.0823254 7.89963 0.0211517C6.43555 0.124629 5.02321 0.605475 3.80015 1.41687C2.74941 2.11947 1.86732 3.04607 1.21724 4.1301C0.567171 5.21413 0.165255 6.42868 0.040367 7.68651C-0.0821436 8.93609 0.0750389 10.1973 0.500511 11.3786C0.925983 12.5599 1.60907 13.6316 2.50023 14.5161L7.79992 19.8258C7.89288 19.9195 8.00347 19.9939 8.12533 20.0447C8.24718 20.0955 8.37788 20.1216 8.50988 20.1216C8.64188 20.1216 8.77258 20.0955 8.89444 20.0447C9.01629 19.9939 9.12688 19.9195 9.21984 19.8258L14.4995 14.5161C15.3907 13.6316 16.0738 12.5599 16.4993 11.3786C16.9247 10.1973 17.0819 8.93609 16.9594 7.68651ZM13.0996 13.1062L8.49988 17.7059L3.90015 13.1062C3.22227 12.4283 2.70302 11.6086 2.3797 10.7061C2.05638 9.80358 1.93704 8.84064 2.03025 7.8865C2.12407 6.91766 2.43199 5.98177 2.93177 5.1465C3.43155 4.31123 4.11069 3.59745 4.92009 3.05677C5.98097 2.35205 7.22626 1.97613 8.49988 1.97613C9.7735 1.97613 11.0188 2.35205 12.0797 3.05677C12.8866 3.59536 13.5643 4.30598 14.0639 5.13759C14.5636 5.9692 14.8728 6.90115 14.9695 7.8665C15.0658 8.82387 14.9479 9.79066 14.6245 10.6969C14.3011 11.6031 13.7802 12.4261 13.0996 13.1062ZM8.49988 4.05672C7.60992 4.05672 6.73994 4.32062 5.99996 4.81506C5.25998 5.3095 4.68324 6.01226 4.34266 6.83448C4.00209 7.6567 3.91298 8.56145 4.0866 9.43431C4.26022 10.3072 4.68878 11.109 5.31808 11.7383C5.94738 12.3676 6.74916 12.7961 7.62202 12.9697C8.49489 13.1434 9.39964 13.0543 10.2219 12.7137C11.0441 12.3731 11.7468 11.7964 12.2413 11.0564C12.7357 10.3164 12.9996 9.44642 12.9996 8.55646C12.997 7.36386 12.5221 6.22087 11.6788 5.37758C10.8355 4.53428 9.69247 4.05936 8.49988 4.05672ZM8.49988 11.0563C8.00546 11.0563 7.52213 10.9097 7.11104 10.635C6.69994 10.3603 6.37952 9.9699 6.19031 9.51311C6.00111 9.05632 5.9516 8.55368 6.04806 8.06876C6.14452 7.58384 6.3826 7.1384 6.73222 6.78879C7.08183 6.43918 7.52726 6.20109 8.01218 6.10464C8.49711 6.00818 8.99975 6.05768 9.45653 6.24689C9.91332 6.4361 10.3037 6.75651 10.5784 7.16761C10.8531 7.57871 10.9997 8.06203 10.9997 8.55646C10.9997 9.21946 10.7364 9.85531 10.2675 10.3241C9.79873 10.7929 9.16288 11.0563 8.49988 11.0563Z" fill="white"/>
</svg>
