<svg width="40" height="40" viewBox="0 0 40 40" fill="none" xmlns="http://www.w3.org/2000/svg">
<path d="M20 10.8333V20.4883L13.5767 26.91C13.4202 27.0665 13.3323 27.2787 13.3323 27.5C13.3323 27.7213 13.4202 27.9335 13.5767 28.09C13.7331 28.2465 13.9454 28.3344 14.1667 28.3344C14.388 28.3344 14.6002 28.2465 14.7567 28.09L21.4233 21.4233C21.5007 21.3458 21.562 21.2538 21.6037 21.1526C21.6455 21.0513 21.6669 20.9428 21.6667 20.8333V10.8333C21.6667 10.6123 21.5789 10.4004 21.4226 10.2441C21.2663 10.0878 21.0543 10 20.8333 10C20.6123 10 20.4004 10.0878 20.2441 10.2441C20.0878 10.4004 20 10.6123 20 10.8333ZM34.1667 26.6667H24.1667C23.9456 26.6667 23.7337 26.7545 23.5774 26.9107C23.4211 27.067 23.3333 27.279 23.3333 27.5C23.3333 27.721 23.4211 27.933 23.5774 28.0893C23.7337 28.2455 23.9456 28.3333 24.1667 28.3333H34.1667C34.3877 28.3333 34.5996 28.2455 34.7559 28.0893C34.9122 27.933 35 27.721 35 27.5C35 27.279 34.9122 27.067 34.7559 26.9107C34.5996 26.7545 34.3877 26.6667 34.1667 26.6667Z" fill="#A098AE"/>
<path d="M32.5 10.0001C32.279 10.0001 32.067 10.0879 31.9108 10.2442C31.7545 10.4005 31.6667 10.6124 31.6667 10.8335V11.7468C30.3476 10.1532 28.6922 8.87135 26.8192 7.99306C24.9462 7.11477 22.902 6.66185 20.8334 6.66679C18.5036 6.66684 16.2098 7.24146 14.1552 8.33975C12.1006 9.43805 10.3485 11.0261 9.05425 12.9633C7.75997 14.9004 6.96342 17.1269 6.73516 19.4454C6.50689 21.764 6.85396 24.103 7.74561 26.2554C8.63727 28.4078 10.046 30.307 11.847 31.7849C13.648 33.2628 15.7857 34.2737 18.0707 34.7281C20.3557 35.1825 22.7175 35.0663 24.9469 34.3899C27.1763 33.7134 29.2044 32.4976 30.8517 30.8501C31.0086 30.693 31.0967 30.4799 31.0965 30.2579C31.0964 30.0358 31.008 29.8229 30.8509 29.666C30.6937 29.509 30.4807 29.421 30.2586 29.4211C30.0365 29.4213 29.8236 29.5096 29.6667 29.6668C27.8666 31.4704 25.5583 32.6808 23.0511 33.1358C20.5438 33.5908 17.9574 33.2687 15.6384 32.2125C13.3193 31.1564 11.3785 29.4167 10.0758 27.2267C8.77319 25.0366 8.17102 22.5007 8.34999 19.9588C8.52896 17.4169 9.48053 14.9904 11.0772 13.0044C12.6738 11.0185 14.8393 9.56792 17.2835 8.84715C19.7276 8.12639 22.3337 8.16983 24.7524 8.97166C27.1712 9.77348 29.2871 11.2954 30.8167 13.3335H29.1667C28.9457 13.3335 28.7337 13.4213 28.5774 13.5775C28.4212 13.7338 28.3334 13.9458 28.3334 14.1668C28.3334 14.3878 28.4212 14.5998 28.5774 14.756C28.7337 14.9123 28.9457 15.0001 29.1667 15.0001H32.5C32.721 15.0001 32.933 14.9123 33.0893 14.756C33.2456 14.5998 33.3334 14.3878 33.3334 14.1668V10.8335C33.3334 10.6124 33.2456 10.4005 33.0893 10.2442C32.933 10.0879 32.721 10.0001 32.5 10.0001Z" fill="#A098AE"/>
<path d="M29.1666 16.6667C28.9455 16.6667 28.7336 16.7545 28.5773 16.9108C28.421 17.0671 28.3332 17.2791 28.3332 17.5001V18.4067C27.1461 18.5788 26.0407 19.1118 25.1668 19.9335C24.2929 20.7552 23.693 21.8258 23.4482 23.0001C23.3987 23.2425 23.4039 23.493 23.4632 23.7332C23.5226 23.9734 23.6347 24.1974 23.7914 24.3889C23.9481 24.5804 24.1455 24.7346 24.3692 24.8404C24.593 24.9461 24.8374 25.0006 25.0849 25.0001H33.2516C33.499 25.0006 33.7435 24.9461 33.9672 24.8404C34.191 24.7346 34.3884 24.5804 34.5451 24.3889C34.7018 24.1974 34.8139 23.9734 34.8732 23.7332C34.9326 23.493 34.9377 23.2425 34.8882 23.0001C34.6433 21.8253 34.0428 20.7544 33.1683 19.9327C32.2938 19.1109 31.1876 18.5782 29.9999 18.4067V17.5001C29.9999 17.2791 29.9121 17.0671 29.7558 16.9108C29.5995 16.7545 29.3876 16.6667 29.1666 16.6667Z" fill="#A098AE"/>
</svg>
