<svg width="902" height="286" viewBox="0 0 902 286" fill="none" xmlns="http://www.w3.org/2000/svg">
<path d="M2.03343 3.00323V285.306" stroke="#DBDBDB"/>
<path d="M82.1194 3.00323V285.306" stroke="#DBDBDB"/>
<path d="M165.209 3.00323V285.306" stroke="#DBDBDB"/>
<path d="M247.297 3.00323V285.306" stroke="#DBDBDB"/>
<path d="M331.387 3.00323V285.306" stroke="#DBDBDB"/>
<path d="M413.475 3.00323V285.306" stroke="#DBDBDB"/>
<path d="M489.557 3.00323V285.306" stroke="#DBDBDB"/>
<path d="M567.641 3.00323V285.306" stroke="#DBDBDB"/>
<path d="M651.731 3.00323V285.306" stroke="#DBDBDB"/>
<path d="M732.818 3.00323V285.306" stroke="#DBDBDB"/>
<path d="M815.908 3.00323V285.306" stroke="#DBDBDB"/>
<path d="M898.997 3.00323V285.306" stroke="#DBDBDB"/>
<path d="M489.557 121.13L489.557 285.306" stroke="#2E2E2E" stroke-dasharray="5 5"/>
<path d="M3.00323 214.876C58.5275 214.876 98.6887 123.595 165.734 123.595C225.612 123.595 268.453 253.212 329.874 253.212C399.606 253.212 430.637 94.0333 488.818 94.0333C546.999 94.0333 591.343 253.212 650.756 253.212C726.183 253.212 750.612 3.00325 814.634 3.00323C872.584 3.0032 843.24 150.153 898.512 150.153" stroke="#F8B602" stroke-width="6" stroke-linecap="round"/>
<path d="M165.029 123.595C97.8743 123.595 57.6479 214.876 2.03343 214.876V285.306H898.997V150.153C843.635 150.153 873.026 3.0032 814.982 3.00323C750.857 3.00325 726.388 253.212 650.839 253.212C591.328 253.212 546.913 94.0334 488.637 94.0334C430.361 94.0334 399.281 253.212 329.435 253.212C267.914 253.212 225.003 123.595 165.029 123.595Z" fill="#F8B602" fill-opacity="0.5"/>
<circle cx="491.978" cy="93.8317" r="12.0086" fill="white" stroke="#F8B602" stroke-width="8"/>
<path d="M3.00323 274.008C58.4817 274.008 102.99 148.159 164.941 148.159C226.893 148.159 261.266 282.804 330.758 282.804C400.251 282.804 430.543 200.538 488.818 200.538C547.093 200.538 587.43 236.895 649.302 236.895C711.173 236.895 755.121 162.332 814.149 162.332C873.177 162.332 840.331 188.532 898.997 188.532" stroke="#EB5757" stroke-width="6" stroke-linecap="round"/>
<path opacity="0.5" d="M2.03343 276.348C57.572 276.348 102.128 148.159 164.147 148.159C226.166 148.159 260.575 285.306 330.143 285.306C399.711 285.306 430.035 201.512 488.374 201.512C546.712 201.512 587.093 238.545 649.031 238.545C710.97 238.545 754.965 162.596 814.057 162.596C873.149 162.596 840.267 189.282 898.997 189.282V285.306H330.143H2.03343V276.348Z" fill="#EB5757"/>
</svg>
