<svg width="322" height="68" viewBox="0 0 322 68" fill="none" xmlns="http://www.w3.org/2000/svg">
<path d="M1.71247 66.0593L5.2601 60.199C8.80772 54.3387 15.903 42.6181 22.9982 41.5514C30.0935 40.4847 37.1887 50.072 44.284 45.5162C51.3792 40.9604 58.4745 22.2614 65.5697 21.6984C72.6649 21.1354 79.7602 38.7083 86.8554 43.3547C93.9507 48.0011 101.046 39.7209 108.141 33.4515C115.236 27.1821 122.332 22.9234 129.427 24.5267C136.522 26.1299 143.617 33.5951 150.713 35.1864C157.808 36.7777 164.903 32.4951 171.998 29.9786C179.094 27.4621 186.189 26.7117 193.284 22.6259C200.379 18.5401 207.475 11.1189 214.57 10.4391C221.665 9.7592 228.76 15.8207 235.856 21.358C242.951 26.8954 250.046 31.9087 257.141 33.0702C264.237 34.2317 271.332 31.5414 278.427 24.6845C285.522 17.8277 292.618 6.80433 299.713 3.34246C306.808 -0.119404 313.903 3.98023 317.451 6.03005L320.999 8.07987" stroke="#EB5757" stroke-width="4"/>
</svg>
