<svg width="24" height="24" viewBox="0 0 24 24" fill="none" xmlns="http://www.w3.org/2000/svg">
<path d="M23.4142 20.5862L18.3372 15.5092C19.3862 13.9281 20.0002 12.0351 20.0002 10.0001C20.0002 4.48605 15.5142 0 10.0001 0C4.48605 0 0 4.48605 0 10.0001C0 15.5142 4.48605 20.0002 10.0001 20.0002C12.0351 20.0002 13.9281 19.3862 15.5092 18.3372L20.5862 23.4142C21.3662 24.1952 22.6342 24.1952 23.4142 23.4142C24.1952 22.6332 24.1952 21.3672 23.4142 20.5862ZM3.00003 10.0001C3.00003 6.14006 6.14006 3.00003 10.0001 3.00003C13.8601 3.00003 17.0002 6.14006 17.0002 10.0001C17.0002 13.8601 13.8601 17.0002 10.0001 17.0002C6.14006 17.0002 3.00003 13.8601 3.00003 10.0001Z" fill="#F8B602"/>
</svg>
