<svg width="10" height="7" viewBox="0 0 10 7" fill="none" xmlns="http://www.w3.org/2000/svg">
<path d="M5.02989 5.5348L5.0291 5.53481C4.96293 5.53519 4.89734 5.52251 4.83608 5.49748C4.77507 5.47257 4.71957 5.4359 4.67271 5.38958C4.67252 5.38939 4.67232 5.38919 4.67212 5.389L0.651258 1.36813C0.556195 1.27307 0.50279 1.14413 0.50279 1.00969C0.50279 0.875254 0.556195 0.746321 0.651258 0.651258C0.746321 0.556195 0.875254 0.50279 1.00969 0.50279C1.14403 0.50279 1.27287 0.556113 1.36791 0.651039C1.36798 0.651112 1.36806 0.651185 1.36813 0.651258L4.67594 3.96913L5.03147 4.32573L5.38754 3.96967L8.6798 0.677405C8.7741 0.601741 8.89269 0.562473 9.01385 0.567154C9.14039 0.572041 9.26043 0.624499 9.34998 0.714044C9.43952 0.803586 9.49198 0.923621 9.49686 1.05016C9.50154 1.17133 9.46228 1.28992 9.38661 1.38422L5.38184 5.38899C5.38165 5.38919 5.38145 5.38938 5.38126 5.38958C5.28767 5.4821 5.16152 5.53425 5.02989 5.5348Z" fill="#A098AE" stroke="#A098AE"/>
</svg>
