<svg width="11" height="21" viewBox="0 0 11 21" fill="none" xmlns="http://www.w3.org/2000/svg">
<path d="M5.25 4.5C6.49264 4.5 7.5 3.49264 7.5 2.25C7.5 1.00736 6.49264 0 5.25 0C4.00736 0 3 1.00736 3 2.25C3 3.49264 4.00736 4.5 5.25 4.5Z" fill="#2E2E2E"/>
<path d="M6.75 5.25H3.75C2.75544 5.25 1.80161 5.64509 1.09835 6.34835C0.395088 7.05161 0 8.00544 0 9V12.75C0 12.9489 0.0790178 13.1397 0.21967 13.2803C0.360322 13.421 0.551088 13.5 0.75 13.5C0.948912 13.5 1.13968 13.421 1.28033 13.2803C1.42098 13.1397 1.5 12.9489 1.5 12.75V9C1.5013 8.53579 1.64616 8.08335 1.9147 7.7047C2.18325 7.32605 2.56234 7.03974 3 6.885V20.25C3 20.4489 3.07902 20.6397 3.21967 20.7803C3.36032 20.921 3.55109 21 3.75 21C3.94891 21 4.13968 20.921 4.28033 20.7803C4.42098 20.6397 4.5 20.4489 4.5 20.25V14.115C4.98308 14.299 5.51692 14.299 6 14.115V20.25C6 20.4489 6.07902 20.6397 6.21967 20.7803C6.36032 20.921 6.55109 21 6.75 21C6.94891 21 7.13968 20.921 7.28033 20.7803C7.42098 20.6397 7.5 20.4489 7.5 20.25V6.885C7.93766 7.03974 8.31675 7.32605 8.5853 7.7047C8.85384 8.08335 8.9987 8.53579 9 9V12.75C9 12.9489 9.07902 13.1397 9.21967 13.2803C9.36032 13.421 9.55109 13.5 9.75 13.5C9.94891 13.5 10.1397 13.421 10.2803 13.2803C10.421 13.1397 10.5 12.9489 10.5 12.75V9C10.5 8.50754 10.403 8.01991 10.2145 7.56494C10.0261 7.10997 9.74987 6.69657 9.40165 6.34835C9.05343 6.00013 8.64003 5.72391 8.18506 5.53545C7.73009 5.347 7.24246 5.25 6.75 5.25Z" fill="#2E2E2E"/>
</svg>
