<svg width="23" height="23" viewBox="0 0 23 23" fill="none" xmlns="http://www.w3.org/2000/svg">
<path d="M1.37136e-07 11.5C6.12541e-08 17.8633 5.13667 23 11.5 23C17.8633 23 23 17.8633 23 11.5C23 5.13667 17.8633 7.59274e-08 11.5 0C5.13667 -7.58366e-08 2.13018e-07 5.13667 1.37136e-07 11.5ZM12.2667 6.82333L12.2667 13.8767L14.26 12.1133C14.72 11.73 15.3333 11.8067 15.7167 12.19C15.87 12.42 15.9467 12.65 15.9467 12.88C15.9467 13.1867 15.7933 13.4933 15.5633 13.6467L11.8833 16.8667C11.8067 16.9433 11.73 16.9433 11.6533 17.02C11.5767 17.02 11.5767 17.02 11.5 17.0967C11.4233 17.0967 11.4233 17.0967 11.3467 17.0967L11.27 17.0967C11.1933 17.0967 11.1933 17.0967 11.1167 17.0967L11.04 17.0967C10.9633 17.0967 10.9633 17.0967 10.8867 17.02C10.8867 17.02 10.81 17.02 10.81 16.9433L10.7333 16.8667C10.7333 16.8667 10.7333 16.8667 10.6567 16.79L7.43667 13.4933C7.05333 13.11 7.05333 12.42 7.43667 12.0367C7.82 11.6533 8.51 11.6533 8.89333 12.0367L10.35 13.57L10.35 6.74667C10.35 6.21 10.81 5.67333 11.4233 5.67333C11.8067 5.82667 12.2667 6.28667 12.2667 6.82333Z" fill="#EB5757"/>
</svg>
