<svg width="56" height="56" viewBox="0 0 56 56" fill="none" xmlns="http://www.w3.org/2000/svg">
<g clip-path="url(#clip0_2_2563)">
<path d="M37.5667 37.0417H18.6084V49.9917H37.5667V37.0417Z" fill="#A6C44A"/>
<path d="M42.5835 11.6667C42.3502 11.6667 42.0585 11.6667 41.8252 11.725C40.0169 5.89167 34.1835 1.63334 27.2419 1.63334C21.1169 1.63334 15.8085 4.95834 13.4169 9.80001C6.76686 10.5 1.5752 15.6917 1.5752 22.05C1.5752 28.875 7.64186 34.475 15.0502 34.475C19.4835 34.475 23.4502 32.4917 25.9002 29.4583C26.3085 29.5167 26.7752 29.5167 27.2419 29.5167C29.1669 29.5167 31.0335 29.1667 32.7835 28.525C34.8835 31.4417 38.5002 33.3667 42.6419 33.3667C49.1752 33.3667 54.4835 28.525 54.4835 22.5167C54.4835 16.5083 49.1169 11.6667 42.5835 11.6667Z" fill="#F8B602"/>
<path d="M15.1085 35.5833C7.00013 35.5833 0.466797 29.5167 0.466797 22.05C0.466797 15.4 5.7168 9.74167 12.7168 8.69167C15.4585 3.675 21.1168 0.466671 27.2418 0.466671C34.1835 0.466671 40.3668 4.55 42.6418 10.5583C49.7585 10.5583 55.5918 15.925 55.5918 22.575C55.5918 29.1667 49.7585 34.5917 42.6418 34.5917C38.6168 34.5917 34.8251 32.8417 32.3751 29.925C30.6835 30.45 28.9918 30.6833 27.2418 30.6833C26.9501 30.6833 26.6585 30.6833 26.4251 30.6833C23.6251 33.775 19.5418 35.5833 15.1085 35.5833ZM27.2418 2.74167C21.7585 2.74167 16.7418 5.71667 14.4668 10.2667L14.1751 10.85L13.5335 10.9083C7.40846 11.6083 2.7418 16.3917 2.7418 22.05C2.7418 28.2333 8.28346 33.3083 15.1085 33.3083C19.0751 33.3083 22.6918 31.6167 25.0251 28.7L25.4335 28.2333L26.0168 28.2917C26.3668 28.2917 26.7751 28.35 27.2418 28.35C28.9918 28.35 30.7418 28.0583 32.3751 27.475L33.1918 27.1833L33.7168 27.8833C35.7001 30.625 39.0251 32.2583 42.6418 32.2583C48.5335 32.2583 53.3168 27.8833 53.3168 22.575C53.3168 17.2667 48.4751 12.8333 42.5835 12.8333C42.4085 12.8333 42.2335 12.8333 42.0585 12.8333L41.0085 12.8917L40.7168 12.0167C39.0251 6.59167 33.4835 2.74167 27.2418 2.74167Z" fill="#2E2E2E"/>
<path d="M42.35 55.5333H13.65L7.9917 31.4417L10.0334 32.3167C11.6667 32.9583 13.3584 33.3083 15.1084 33.3083C19.075 33.3083 22.6917 31.6167 25.025 28.7L25.4334 28.2333L26.0167 28.2917C26.3667 28.2917 26.775 28.35 27.2417 28.35C28.9917 28.35 30.7417 28.0583 32.375 27.475L33.1917 27.1833L33.7167 27.8833C35.7 30.625 39.025 32.2583 42.6417 32.2583C43.8667 32.2583 45.0917 32.0833 46.2584 31.675L48.1834 31.0333L42.35 55.5333ZM15.4584 53.2583H40.6L45.0917 34.3C44.275 34.4167 43.4584 34.5333 42.6417 34.5333C38.6167 34.5333 34.825 32.7833 32.375 29.8667C30.6834 30.3917 28.9917 30.625 27.2417 30.625C26.95 30.625 26.6584 30.625 26.425 30.625C23.625 33.775 19.5417 35.5833 15.1084 35.5833C13.7667 35.5833 12.425 35.4083 11.2 35.1167L15.4584 53.2583Z" fill="#2E2E2E"/>
<path d="M23.5665 39.4333H21.2915V47.075H23.5665V39.4333Z" fill="#2E2E2E"/>
<path d="M29.2252 39.4333H26.9502V47.075H29.2252V39.4333Z" fill="#2E2E2E"/>
<path d="M34.8248 39.4333H32.5498V47.075H34.8248V39.4333Z" fill="#2E2E2E"/>
<path d="M13.562 27.84L11.7329 26.1235L10.1761 27.7825L12.0052 29.4989L13.562 27.84Z" fill="#2E2E2E"/>
<path d="M15.3774 17.6127L13.5483 15.8963L11.9915 17.5552L13.8206 19.2717L15.3774 17.6127Z" fill="#2E2E2E"/>
<path d="M44.6506 18.4808L42.8218 16.764L41.2648 18.4228L43.0936 20.1395L44.6506 18.4808Z" fill="#2E2E2E"/>
<path d="M35.3828 20.7482L33.5537 19.0317L31.9969 20.6906L33.826 22.4071L35.3828 20.7482Z" fill="#2E2E2E"/>
<path d="M47.3569 26.9415L45.5278 25.225L43.971 26.8839L45.8001 28.6004L47.3569 26.9415Z" fill="#2E2E2E"/>
<path d="M24.1421 22.4562L22.313 20.7397L20.7562 22.3987L22.5853 24.1151L24.1421 22.4562Z" fill="#2E2E2E"/>
<path d="M25.8271 12.4652L23.998 10.7487L22.4413 12.4076L24.2703 14.1241L25.8271 12.4652Z" fill="#2E2E2E"/>
<path d="M34.4961 9.69414L32.667 7.97767L31.1102 9.63659L32.9393 11.3531L34.4961 9.69414Z" fill="#2E2E2E"/>
</g>
<defs>
<clipPath id="clip0_2_2563">
<rect width="56" height="56" fill="white"/>
</clipPath>
</defs>
</svg>
