<svg width="375" height="60" viewBox="0 0 375 60" fill="none" xmlns="http://www.w3.org/2000/svg">
<rect x="315" width="60" height="60" rx="16" fill="#C4C4C4"/>
<rect x="60" width="60" height="60" rx="16" fill="white"/>
<path d="M100.55 32.9624C100.374 32.8539 100.231 32.7006 100.134 32.5182C100.038 32.3359 99.9913 32.1311 100 31.9249V27.8624C100.008 25.824 99.4205 23.8275 98.3104 22.1179C97.2002 20.4082 95.6153 19.0596 93.75 18.2374C93.6136 17.3523 93.1649 16.5452 92.4851 15.9622C91.8053 15.3791 90.9393 15.0586 90.0437 15.0586C89.1482 15.0586 88.2821 15.3791 87.6024 15.9622C86.9226 16.5452 86.4739 17.3523 86.3375 18.2374C85.1223 18.7215 84.0139 19.4392 83.075 20.3499C82.106 21.2722 81.3339 22.3812 80.8054 23.6101C80.2769 24.839 80.0029 26.1622 80 27.4999V31.9249C80.0086 32.1311 79.9623 32.3359 79.8656 32.5182C79.769 32.7006 79.6255 32.8539 79.45 32.9624C78.7567 33.3288 78.1957 33.9033 77.8459 34.6052C77.4961 35.307 77.3751 36.1008 77.5 36.8749C77.674 37.7713 78.16 38.577 78.8717 39.1491C79.5834 39.7211 80.4747 40.0226 81.3875 39.9999H85C85 41.326 85.5268 42.5978 86.4644 43.5355C87.4021 44.4732 88.6739 44.9999 90 44.9999C91.3261 44.9999 92.5978 44.4732 93.5355 43.5355C94.4732 42.5978 95 41.326 95 39.9999H98.6125C99.5253 40.0226 100.417 39.7211 101.128 39.1491C101.84 38.577 102.326 37.7713 102.5 36.8749C102.625 36.1008 102.504 35.307 102.154 34.6052C101.804 33.9033 101.243 33.3288 100.55 32.9624ZM90 42.4999C89.3369 42.4999 88.7011 42.2366 88.2322 41.7677C87.7634 41.2989 87.5 40.663 87.5 39.9999H92.5C92.5 40.663 92.2366 41.2989 91.7677 41.7677C91.2989 42.2366 90.663 42.4999 90 42.4999ZM98.6125 37.4999H81.3875C81.0735 37.5154 80.7637 37.4218 80.5109 37.235C80.258 37.0482 80.0775 36.7796 80 36.4749C79.9526 36.2151 79.9888 35.9468 80.1033 35.7088C80.2178 35.4707 80.4048 35.2751 80.6375 35.1499C81.208 34.8281 81.6817 34.3591 82.0092 33.7918C82.3368 33.2246 82.5063 32.5799 82.5 31.9249V27.4999C82.499 26.4953 82.6999 25.5008 83.0907 24.5753C83.4815 23.6498 84.0543 22.8123 84.775 22.1124C85.3669 21.5333 86.0567 21.0635 86.8125 20.7249C87.8067 20.2458 88.8964 19.998 90 19.9999H90.2375C91.2592 20.0355 92.2612 20.2914 93.175 20.7499C94.4819 21.4211 95.5776 22.4407 96.3409 23.696C97.1043 24.9513 97.5054 26.3933 97.5 27.8624V31.9249C97.4924 32.5787 97.66 33.2225 97.9853 33.7896C98.3107 34.3568 98.7818 34.8264 99.35 35.1499C99.5826 35.2725 99.7706 35.4654 99.8873 35.701C100.004 35.9367 100.043 36.2031 100 36.4624C99.9249 36.7695 99.7455 37.0409 99.4924 37.2301C99.2393 37.4194 98.9282 37.5148 98.6125 37.4999Z" fill="#2E2E2E"/>
<circle cx="106" cy="14" r="4" fill="#F8B602"/>
<rect width="60" height="60" rx="16" fill="white"/>
<circle cx="46" cy="14" r="4" fill="#F8B602"/>
<path d="M42.4998 26.6667H41.6665V22.5C41.6665 21.837 41.4031 21.2011 40.9343 20.7322C40.4654 20.2634 39.8295 20 39.1665 20H19.1665C18.5035 20 17.8676 20.2634 17.3987 20.7322C16.9299 21.2011 16.6665 21.837 16.6665 22.5V35.8333C16.6665 36.4964 16.9299 37.1323 17.3987 37.6011C17.8676 38.0699 18.5035 38.3333 19.1665 38.3333H19.9998V39.8333C20.0005 40.0802 20.0742 40.3213 20.2115 40.5264C20.3489 40.7315 20.5439 40.8914 20.7719 40.986C20.9999 41.0806 21.2508 41.1057 21.493 41.058C21.7352 41.0104 21.958 40.8922 22.1332 40.7183L24.5115 38.3333H26.6665V39.1667C26.6665 39.8297 26.9299 40.4656 27.3987 40.9344C27.8676 41.4033 28.5035 41.6667 29.1665 41.6667H37.1548L39.5332 44.045C39.7077 44.2193 39.9299 44.3381 40.1717 44.3864C40.4136 44.4347 40.6643 44.4103 40.8924 44.3164C41.1205 44.2225 41.3157 44.0633 41.4534 43.8587C41.5912 43.6541 41.6653 43.4133 41.6665 43.1667V41.6667H42.4998C43.1629 41.6667 43.7988 41.4033 44.2676 40.9344C44.7364 40.4656 44.9998 39.8297 44.9998 39.1667V29.1667C44.9998 28.5036 44.7364 27.8677 44.2676 27.3989C43.7988 26.9301 43.1629 26.6667 42.4998 26.6667ZM39.9998 35.8333C39.9998 36.0543 39.912 36.2663 39.7558 36.4226C39.5995 36.5789 39.3875 36.6667 39.1665 36.6667H24.1665C24.057 36.6665 23.9485 36.6879 23.8473 36.7296C23.7461 36.7714 23.654 36.8327 23.5765 36.91L21.6665 38.8217V37.5C21.6665 37.279 21.5787 37.067 21.4224 36.9107C21.2661 36.7545 21.0542 36.6667 20.8332 36.6667H19.1665C18.9455 36.6667 18.7335 36.5789 18.5772 36.4226C18.421 36.2663 18.3332 36.0543 18.3332 35.8333V22.5C18.3332 22.279 18.421 22.067 18.5772 21.9107C18.7335 21.7545 18.9455 21.6667 19.1665 21.6667H39.1665C39.3875 21.6667 39.5995 21.7545 39.7558 21.9107C39.912 22.067 39.9998 22.279 39.9998 22.5V35.8333Z" fill="#2E2E2E"/>
<path d="M28.3333 24.1667C28.1123 24.1667 27.9004 24.2545 27.7441 24.4108C27.5878 24.5671 27.5 24.7791 27.5 25.0001V26.6667C27.4964 26.9541 27.4175 27.2355 27.2713 27.4828C27.1251 27.7302 26.9166 27.935 26.6667 28.0767V25.0001C26.6667 24.7791 26.5789 24.5671 26.4226 24.4108C26.2663 24.2545 26.0543 24.1667 25.8333 24.1667C25.6123 24.1667 25.4004 24.2545 25.2441 24.4108C25.0878 24.5671 25 24.7791 25 25.0001V28.0767C24.75 27.935 24.5416 27.7302 24.3954 27.4828C24.2492 27.2355 24.1703 26.9541 24.1667 26.6667V25.0001C24.1667 24.7791 24.0789 24.5671 23.9226 24.4108C23.7663 24.2545 23.5543 24.1667 23.3333 24.1667C23.1123 24.1667 22.9004 24.2545 22.7441 24.4108C22.5878 24.5671 22.5 24.7791 22.5 25.0001V26.6667C22.5028 27.4036 22.7496 28.1188 23.2019 28.7004C23.6542 29.2821 24.2865 29.6975 25 29.8817V33.3334C25 33.5544 25.0878 33.7664 25.2441 33.9227C25.4004 34.079 25.6123 34.1667 25.8333 34.1667C26.0543 34.1667 26.2663 34.079 26.4226 33.9227C26.5789 33.7664 26.6667 33.5544 26.6667 33.3334V29.8817C27.3801 29.6975 28.0124 29.2821 28.4648 28.7004C28.9171 28.1188 29.1639 27.4036 29.1667 26.6667V25.0001C29.1667 24.7791 29.0789 24.5671 28.9226 24.4108C28.7663 24.2545 28.5543 24.1667 28.3333 24.1667ZM32.04 24.2551C31.913 24.1914 31.7717 24.1613 31.6298 24.1676C31.4878 24.1739 31.3498 24.2164 31.2289 24.291C31.108 24.3657 31.0081 24.47 30.9389 24.5941C30.8697 24.7182 30.8333 24.858 30.8333 25.0001V33.3334C30.8333 33.5544 30.9211 33.7664 31.0774 33.9227C31.2337 34.079 31.4457 34.1667 31.6667 34.1667C31.8877 34.1667 32.0996 34.079 32.2559 33.9227C32.4122 33.7664 32.5 33.5544 32.5 33.3334V32.3184L34.8867 31.7201C35.1746 31.642 35.4264 31.4664 35.5991 31.2231C35.7717 30.9799 35.8545 30.6843 35.8333 30.3867C35.8355 29.1127 35.4815 27.8634 34.8112 26.7799C34.1409 25.6964 33.181 24.8219 32.04 24.2551Z" fill="#2E2E2E"/>
<rect x="120" width="60" height="60" rx="16" fill="white"/>
<path d="M154.644 36.3562L154.569 33.7C155.131 33.5937 155.919 32.6437 156.237 32.1375L155.162 29.725C154.569 29.6313 153.337 29.575 152.881 29.925L150.956 28.0938C151.275 27.625 151.162 26.4 151.025 25.8188L148.556 24.875C148.075 25.2187 147.169 26.0563 147.094 26.625L144.437 26.6937C144.331 26.1312 143.375 25.3562 142.875 25.0312L140.462 26.1062C140.369 26.7 140.312 27.9313 140.662 28.3875L138.837 30.3125C138.362 29.9937 137.137 30.1125 136.556 30.2437L135.612 32.7063C135.956 33.2 136.794 34.0938 137.356 34.175L137.431 36.8312C136.875 36.9438 136.094 37.8875 135.769 38.3937L136.85 40.8062C137.437 40.9 138.669 40.95 139.125 40.6125L141.05 42.4312C140.731 42.9 140.85 44.1313 140.981 44.7125L143.444 45.6562C143.931 45.3062 144.837 44.4688 144.912 43.9062L147.569 43.8312C147.681 44.4 148.625 45.175 149.137 45.4937L151.544 44.425C151.644 43.825 151.687 42.6 151.35 42.1437L153.169 40.2125C153.644 40.5375 154.869 40.4187 155.456 40.2875L156.394 37.8187C156.044 37.3375 155.212 36.4375 154.644 36.3562ZM148.819 36.3375C148.606 36.895 148.233 37.3769 147.746 37.7224C147.26 38.0678 146.682 38.2612 146.085 38.2781C145.489 38.295 144.901 38.1347 144.396 37.8174C143.89 37.5001 143.49 37.0401 143.246 36.4955C143.003 35.951 142.926 35.3463 143.025 34.7581C143.125 34.1698 143.397 33.6243 143.807 33.1906C144.217 32.7569 144.746 32.4545 145.328 32.3215C145.909 32.1886 146.517 32.2311 147.075 32.4437C147.445 32.5844 147.784 32.7969 148.073 33.0689C148.361 33.3408 148.593 33.667 148.755 34.0288C148.917 34.3905 149.006 34.7806 149.017 35.1768C149.028 35.5729 148.96 35.9674 148.819 36.3375ZM164.375 19.1625C164.081 18.9187 163.387 18.4875 163.044 18.6L161.987 16.8C162.25 16.5563 162.212 15.7375 162.144 15.3688L160.337 14.3438C159.981 14.475 159.262 14.8625 159.187 15.2125L157.1 15.2313C157.019 14.8813 156.294 14.5063 155.937 14.375L154.15 15.4312C154.087 15.8 154.062 16.6187 154.325 16.8625L153.3 18.675C152.95 18.5688 152.262 19.0125 151.975 19.2563L151.994 21.3312C152.287 21.575 152.981 22 153.325 21.8938L154.381 23.6938C154.119 23.9375 154.156 24.7563 154.225 25.125L156.031 26.15C156.381 26.0187 157.1 25.6313 157.181 25.2812L159.262 25.2625C159.35 25.6125 160.075 25.9875 160.431 26.1187L162.219 25.0625C162.281 24.6875 162.306 23.875 162.037 23.6312L163.069 21.8187C163.412 21.9187 164.1 21.4812 164.387 21.2375L164.375 19.1625ZM158.181 21.8813C157.858 21.8806 157.543 21.7843 157.274 21.6045C157.006 21.4247 156.797 21.1694 156.674 20.8709C156.55 20.5724 156.518 20.244 156.581 19.9273C156.645 19.6105 156.8 19.3196 157.029 19.0912C157.257 18.8628 157.548 18.7072 157.865 18.6441C158.181 18.5809 158.51 18.613 158.808 18.7363C159.107 18.8596 159.362 19.0686 159.542 19.3369C159.722 19.6052 159.818 19.9208 159.819 20.2437C159.819 20.4589 159.777 20.6721 159.695 20.871C159.613 21.0699 159.492 21.2506 159.34 21.4027C159.188 21.5549 159.007 21.6755 158.808 21.7576C158.609 21.8397 158.396 21.8817 158.181 21.8813Z" fill="#2E2E2E"/>
</svg>
