<svg width="56" height="56" viewBox="0 0 56 56" fill="none" xmlns="http://www.w3.org/2000/svg">
<g clip-path="url(#clip0_2_2676)">
<path d="M34.7083 36.575C30.2167 36.575 21.2333 32.3167 14.0583 25.1417C9.50833 20.5917 7.93333 15.575 7.875 12.0167L9.39167 9.56667L11.4917 7.99167C11.55 7.99167 11.6667 7.99167 11.725 7.99167C14.4667 7.99167 19.8333 8.80834 25.1417 14.0583C29.3417 18.2583 33.0167 23.6833 35.0583 28.5833C36.9833 33.3083 36.6917 35.875 36.225 36.2833C36.1667 36.3417 35.7 36.575 34.7083 36.575Z" fill="#F8B602"/>
<path d="M19.1916 27.8833C18.7833 27.8833 18.4916 27.7083 18.375 27.65C17.2666 27.0667 16.45 25.9583 15.9833 24.5583C15.6333 23.3917 15.6333 22.225 15.6333 21.175L17.9083 21.1167C17.9083 22.05 17.9666 23.0417 18.2 23.9167C18.3166 24.2667 18.4333 24.5583 18.6083 24.85C18.6666 24.6167 18.6666 24.15 19.0166 23.7417C19.5416 23.1 20.475 22.925 21.35 23.3917C21.4666 23.45 21.5833 23.5083 21.7 23.5667C21.7583 23.625 21.8166 23.625 21.875 23.6833C21.875 23.6833 21.875 23.6833 21.875 23.625C21.9333 23.45 21.9333 23.2167 21.875 22.8667C21.875 22.75 21.8166 22.6917 21.8166 22.575C21.7583 22.225 21.6416 21.875 21.6416 21.4667C21.6416 20.5917 22.1083 19.775 22.8666 19.4833C23.45 19.25 24.0333 19.3083 24.4416 19.425L23.975 17.7333C23.8583 17.325 23.975 16.9167 24.2666 16.625C24.2666 16.625 24.2666 16.625 24.325 16.5667C23.275 16.3917 22.1083 16.5083 21 16.625L20.7666 14.35C22.05 14.2333 23.5083 14.0583 24.9083 14.35C26.6583 14.7 28.0583 15.6333 28.8166 16.9167C28.9916 17.2083 28.9916 17.6167 28.875 17.9667C28.7 18.3167 28.4083 18.55 28.0583 18.6083C27.5916 18.6667 27.125 18.725 26.6583 18.725L26.7166 18.9C27.0083 19.95 26.8333 20.7667 26.25 21.2917C25.4916 21.9333 24.6166 21.7 24.15 21.5833C24.0916 21.5833 24.0333 21.5833 24.0333 21.525C24.0333 21.6417 24.0916 21.8167 24.15 21.9917C24.15 22.1083 24.2083 22.225 24.2083 22.3417C24.3833 23.1583 24.325 23.8583 24.0916 24.4417C23.6833 25.375 22.75 25.9583 21.8166 25.8417C21.4083 25.7833 21.1166 25.6667 20.8833 25.4917L20.7666 26.25C20.5916 27.5333 19.775 27.7667 19.4833 27.7667C19.3083 27.8833 19.25 27.8833 19.1916 27.8833Z" fill="#2E2E2E"/>
<path d="M15.2252 11.2C14.2919 12.1333 12.8335 12.1333 11.9002 11.2C10.9669 10.2667 10.9669 8.80833 11.9002 7.875C12.8335 6.94167 14.2919 6.94167 15.2252 7.875C16.1585 8.80833 16.1585 10.2667 15.2252 11.2Z" fill="#A6C44A"/>
<path d="M13.5334 13.0083C12.6001 13.0083 11.7251 12.6583 11.0834 11.9583C9.74173 10.6167 9.74173 8.4 11.0834 7C11.7251 6.35833 12.6001 5.95 13.5334 5.95C14.4667 5.95 15.3417 6.3 15.9834 7C17.3251 8.34167 17.3251 10.5583 15.9834 11.9583C15.3417 12.6583 14.4667 13.0083 13.5334 13.0083ZM13.5334 8.28333C13.1834 8.28333 12.8917 8.4 12.6584 8.63333C12.1917 9.1 12.1917 9.91667 12.6584 10.3833C13.1251 10.85 13.9417 10.85 14.4084 10.3833C14.8751 9.91667 14.8751 9.1 14.4084 8.63333C14.1751 8.4 13.8834 8.28333 13.5334 8.28333Z" fill="#2E2E2E"/>
<path d="M34.7083 42.0583C28.0583 42.0583 17.7917 36.575 10.2083 28.9917C1.45833 20.2417 1.80833 10.675 3.20833 6.825L3.49999 5.95L5.83333 6.18334L5.54166 3.73334L6.29999 3.38334C10.675 1.575 20.7083 1.80834 28.9917 10.15C38.675 19.8333 45.5 34.7083 40.075 40.1333C38.85 41.3583 37.0417 42.0583 34.7083 42.0583ZM5.07499 8.4C4.02499 12.6 4.95833 20.475 11.7833 27.3583C18.8417 34.4167 28.7 39.725 34.7083 39.725C36.4 39.725 37.6833 39.3167 38.5583 38.4417C42.525 34.475 36.9833 21.2333 27.475 11.6667C20.3583 4.66667 12.1333 3.96667 7.99166 5.19167L8.39999 8.80834L5.07499 8.4Z" fill="#2E2E2E"/>
<path d="M40.9498 35.1167C40.8915 36.8667 40.3665 38.325 39.3748 39.3167C38.3831 40.3083 36.9248 40.8333 35.1748 40.8917L38.6165 53.4917L53.4915 38.5L40.9498 35.1167Z" fill="#A6C44A"/>
<path d="M37.9749 55.65L33.6582 39.7833L35.0582 39.725C36.5749 39.6667 37.7415 39.2583 38.4999 38.4417C39.2582 37.6833 39.6665 36.5167 39.7832 35L39.8415 33.6L55.7082 37.9167L37.9749 55.65ZM36.5749 41.8833L39.1415 51.3333L51.3332 39.0833L41.8832 36.5167C41.5915 37.975 41.0082 39.1417 40.1332 40.075C39.2582 41.0083 38.0332 41.5917 36.5749 41.8833Z" fill="#2E2E2E"/>
<path d="M26.4248 52.4417C25.7248 52.4417 25.0248 52.4417 24.3832 52.3833L24.5582 50.1083C25.1998 50.1667 25.8415 50.1667 26.4248 50.1667C26.5415 50.1667 26.5998 50.1667 26.7165 50.1667L26.7748 52.4417C26.6582 52.4417 26.5415 52.4417 26.4248 52.4417ZM30.2748 52.15L29.9248 49.9333C30.6248 49.8167 31.3248 49.7 32.0248 49.525L32.5498 51.7417C31.8498 51.8583 31.0332 52.0333 30.2748 52.15ZM20.8832 51.8583C20.1248 51.6833 19.3665 51.5083 18.6082 51.275L19.3082 49.1167C20.0082 49.35 20.7082 49.525 21.4082 49.6417L20.8832 51.8583ZM15.2832 49.9917C14.5832 49.6417 13.8832 49.2917 13.1832 48.8833L14.3498 46.9583C14.9915 47.3083 15.6332 47.6583 16.2748 47.95L15.2832 49.9917ZM10.2665 46.8417C9.62484 46.375 9.0415 45.85 8.45817 45.2667L10.0332 43.6333C10.5582 44.1 11.0832 44.625 11.6665 45.0333L10.2665 46.8417ZM6.0665 42.7C5.59984 42.0583 5.07484 41.4167 4.6665 40.775L6.53317 39.55C6.9415 40.1333 7.34984 40.7167 7.8165 41.3L6.0665 42.7ZM2.9165 37.7417C2.5665 37.0417 2.27484 36.2833 1.98317 35.5833L4.08317 34.7667C4.3165 35.4667 4.60817 36.1083 4.95817 36.75L2.9165 37.7417ZM0.93317 32.1417C0.758171 31.3833 0.641504 30.5667 0.524837 29.8083L2.7415 29.5167C2.85817 30.2167 2.97484 30.9167 3.14984 31.6167L0.93317 32.1417ZM2.5665 26.3083H0.291504C0.291504 25.55 0.349837 24.7333 0.408171 23.975L2.68317 24.2083C2.62484 24.85 2.5665 25.55 2.5665 26.3083Z" fill="#2E2E2E"/>
<path d="M52.0334 30.7417L49.8167 30.3917C49.9334 29.6917 50.0501 28.9917 50.1084 28.2333L52.3834 28.4083C52.2667 29.1667 52.2084 29.9833 52.0334 30.7417ZM50.1084 24.9667C50.0501 24.2667 49.9917 23.5083 49.8751 22.8083L52.0917 22.4583C52.2084 23.2167 52.2667 24.0333 52.3251 24.7917L50.1084 24.9667ZM49.1751 19.6583C49.0001 18.9583 48.7667 18.2583 48.4751 17.6167L50.5751 16.8C50.8667 17.5583 51.1001 18.2583 51.3334 19.0167L49.1751 19.6583ZM47.1334 14.7C46.7834 14.0583 46.3751 13.475 45.9667 12.8917L47.8334 11.6083C48.3001 12.25 48.7084 12.95 49.0584 13.5917L47.1334 14.7ZM43.9834 10.325C43.5167 9.8 42.9917 9.275 42.4667 8.80833L43.9834 7.11667C44.5667 7.64167 45.1501 8.225 45.6751 8.80833L43.9834 10.325ZM39.9001 6.76667C39.3167 6.35833 38.6751 5.95 38.0917 5.6L39.2001 3.61667C39.9001 4.025 40.5417 4.43333 41.1834 4.9L39.9001 6.76667ZM35.1751 4.25833C34.4751 3.96667 33.8334 3.73333 33.1334 3.5L33.7751 1.34167C34.5334 1.575 35.2917 1.80833 35.9917 2.1L35.1751 4.25833ZM22.4584 2.85833L22.1084 0.641668C22.8667 0.525001 23.6834 0.408335 24.4417 0.350001L24.6167 2.625C23.8584 2.68333 23.1584 2.74167 22.4584 2.85833ZM29.9834 2.8C29.2834 2.68333 28.5251 2.625 27.8251 2.56667L27.9417 0.291668C28.7001 0.350001 29.5167 0.408335 30.2751 0.525001L29.9834 2.8Z" fill="#2E2E2E"/>
</g>
<defs>
<clipPath id="clip0_2_2676">
<rect width="56" height="56" fill="white"/>
</clipPath>
</defs>
</svg>
