<svg width="24" height="24" viewBox="0 0 24 24" fill="none" xmlns="http://www.w3.org/2000/svg">
<path d="M8.2632 21.75C7.8747 21.75 7.4907 21.6007 7.1997 21.3097L2.68995 16.8C2.1027 16.2135 2.1027 15.261 2.68995 14.6745C3.2772 14.0872 4.2282 14.0872 4.81545 14.6745L8.4417 18.3007L19.3954 10.782C20.0794 10.3125 21.0154 10.4865 21.4849 11.1705C21.9552 11.8552 21.7812 12.7905 21.0964 13.2607L9.1137 21.486C8.85495 21.663 8.5587 21.75 8.2632 21.75Z" fill="#F8B602"/>
<path d="M8.2632 13.482C7.8747 13.482 7.4907 13.3328 7.1997 13.0418L2.68995 8.532C2.1027 7.94475 2.1027 6.993 2.68995 6.4065C3.2772 5.81925 4.2282 5.81925 4.81545 6.4065L8.4417 10.0328L19.3954 2.514C20.0794 2.04451 21.0154 2.2185 21.4849 2.9025C21.9552 3.58725 21.7812 4.5225 21.0964 4.99275L9.1137 13.2188C8.85495 13.3958 8.5587 13.482 8.2632 13.482Z" fill="#F8B602"/>
</svg>
