<svg width="18" height="18" viewBox="0 0 18 18" fill="none" xmlns="http://www.w3.org/2000/svg">
<path d="M9 0C7.21997 0 5.47991 0.527841 3.99987 1.51677C2.51983 2.50571 1.36628 3.91131 0.685088 5.55585C0.00389955 7.20038 -0.17433 9.00998 0.172936 10.7558C0.520203 12.5016 1.37737 14.1053 2.63604 15.364C3.89471 16.6226 5.49836 17.4798 7.24419 17.8271C8.99002 18.1743 10.7996 17.9961 12.4442 17.3149C14.0887 16.6337 15.4943 15.4802 16.4832 14.0001C17.4722 12.5201 18 10.78 18 9C18 7.8181 17.7672 6.64778 17.3149 5.55585C16.8626 4.46392 16.1997 3.47177 15.364 2.63604C14.5282 1.80031 13.5361 1.13738 12.4442 0.685084C11.3522 0.232792 10.1819 0 9 0ZM9 16.2C7.57598 16.2 6.18393 15.7777 4.9999 14.9866C3.81586 14.1954 2.89302 13.0709 2.34807 11.7553C1.80312 10.4397 1.66054 8.99201 1.93835 7.59535C2.21616 6.19868 2.9019 4.91577 3.90883 3.90883C4.91577 2.90189 6.19869 2.21616 7.59535 1.93835C8.99201 1.66053 10.4397 1.80312 11.7553 2.34807C13.0709 2.89302 14.1954 3.81586 14.9866 4.99989C15.7777 6.18393 16.2 7.57597 16.2 9C16.2 10.9096 15.4414 12.7409 14.0912 14.0912C12.7409 15.4414 10.9096 16.2 9 16.2Z" fill="#F8B602"/>
<path d="M9.00012 4.50004C8.76143 4.50004 8.53251 4.59487 8.36372 4.76365C8.19494 4.93243 8.10012 5.16135 8.10012 5.40004V9.90004C8.10012 10.1387 8.19494 10.3677 8.36372 10.5364C8.53251 10.7052 8.76143 10.8 9.00012 10.8C9.23881 10.8 9.46773 10.7052 9.63652 10.5364C9.8053 10.3677 9.90012 10.1387 9.90012 9.90004V5.40004C9.90012 5.16135 9.8053 4.93243 9.63652 4.76365C9.46773 4.59487 9.23881 4.50004 9.00012 4.50004ZM9.63912 11.979L9.50412 11.862L9.34212 11.781L9.17112 11.7C9.02579 11.6722 8.87585 11.6807 8.73457 11.7246C8.59328 11.7686 8.46502 11.8467 8.36112 11.952C8.28016 12.035 8.21599 12.1328 8.17212 12.24C8.12025 12.3527 8.09559 12.4761 8.10012 12.6C8.10111 12.8361 8.19485 13.0624 8.36112 13.23C8.44835 13.3122 8.54874 13.3791 8.65812 13.428C8.76585 13.4757 8.88234 13.5002 9.00012 13.5002C9.1179 13.5002 9.23439 13.4757 9.34212 13.428C9.4515 13.3791 9.55189 13.3122 9.63912 13.23C9.80539 13.0624 9.89913 12.8361 9.90012 12.6C9.89989 12.4794 9.8754 12.36 9.82812 12.249C9.78228 12.1482 9.7182 12.0566 9.63912 11.979Z" fill="#F8B602"/>
</svg>
