<svg width="240" height="120" viewBox="0 0 240 120" fill="none" xmlns="http://www.w3.org/2000/svg">
<path opacity="0.5" d="M0 120C1.37766e-06 104.241 3.10389 88.637 9.13446 74.078C15.165 59.5189 24.0042 46.2902 35.1472 35.1472C46.2902 24.0041 59.5189 15.165 74.078 9.13445C88.6371 3.10389 104.241 -2.06649e-06 120 0C135.759 2.0665e-06 151.363 3.10389 165.922 9.13446C180.481 15.165 193.71 24.0042 204.853 35.1472C215.996 46.2902 224.835 59.5189 230.865 74.078C236.896 88.6371 240 104.241 240 120L216 120C216 107.393 213.517 94.9096 208.692 83.2624C203.868 71.6151 196.797 61.0322 187.882 52.1177C178.968 43.2033 168.385 36.132 156.738 31.3076C145.09 26.4831 132.607 24 120 24C107.393 24 94.9096 26.4831 83.2624 31.3076C71.6151 36.132 61.0322 43.2033 52.1177 52.1177C43.2033 61.0322 36.132 71.6151 31.3076 83.2624C26.4831 94.9096 24 107.393 24 120H0Z" fill="#DBDBDB"/>
</svg>
