<svg width="9" height="14" viewBox="0 0 9 14" fill="none" xmlns="http://www.w3.org/2000/svg">
<path d="M4.09767e-05 7.04479C-0.0010304 6.85951 0.0344819 6.67585 0.104541 6.50433C0.1746 6.3328 0.277827 6.17679 0.408304 6.04525L6.03953 0.414024C6.30462 0.148929 6.66417 -7.81764e-08 7.03907 -6.17889e-08C7.41397 -4.54015e-08 7.77352 0.148929 8.03861 0.414024C8.30371 0.679119 8.45264 1.03867 8.45264 1.41357C8.45264 1.78847 8.30371 2.14801 8.03861 2.41311L3.39285 7.04479L8.02454 11.6765C8.25517 11.9458 8.37569 12.2922 8.362 12.6465C8.34832 13.0008 8.20144 13.3369 7.95071 13.5877C7.69999 13.8384 7.36389 13.9853 7.00958 13.9989C6.65527 14.0126 6.30884 13.8921 6.03953 13.6615L0.408304 8.03026C0.14822 7.76804 0.00159568 7.41411 4.09767e-05 7.04479Z" fill="#A098AE"/>
</svg>
