<svg width="40" height="40" viewBox="0 0 40 40" fill="none" xmlns="http://www.w3.org/2000/svg">
<path d="M32.4998 16.6667H31.6665V12.5C31.6665 11.837 31.4031 11.2011 30.9343 10.7322C30.4654 10.2634 29.8295 10 29.1665 10H9.1665C8.50346 10 7.86758 10.2634 7.39874 10.7322C6.9299 11.2011 6.6665 11.837 6.6665 12.5V25.8333C6.6665 26.4964 6.9299 27.1323 7.39874 27.6011C7.86758 28.0699 8.50346 28.3333 9.1665 28.3333H9.99984V29.8333C10.0005 30.0802 10.0742 30.3213 10.2115 30.5264C10.3489 30.7315 10.5439 30.8914 10.7719 30.986C10.9999 31.0806 11.2508 31.1057 11.493 31.058C11.7352 31.0104 11.958 30.8922 12.1332 30.7183L14.5115 28.3333H16.6665V29.1667C16.6665 29.8297 16.9299 30.4656 17.3987 30.9344C17.8676 31.4033 18.5035 31.6667 19.1665 31.6667H27.1548L29.5332 34.045C29.7077 34.2193 29.9299 34.3381 30.1717 34.3864C30.4136 34.4347 30.6643 34.4103 30.8924 34.3164C31.1205 34.2225 31.3157 34.0633 31.4534 33.8587C31.5912 33.6541 31.6653 33.4133 31.6665 33.1667V31.6667H32.4998C33.1629 31.6667 33.7988 31.4033 34.2676 30.9344C34.7364 30.4656 34.9998 29.8297 34.9998 29.1667V19.1667C34.9998 18.5036 34.7364 17.8677 34.2676 17.3989C33.7988 16.9301 33.1629 16.6667 32.4998 16.6667ZM29.9998 25.8333C29.9998 26.0543 29.912 26.2663 29.7558 26.4226C29.5995 26.5789 29.3875 26.6667 29.1665 26.6667H14.1665C14.057 26.6665 13.9485 26.6879 13.8473 26.7296C13.7461 26.7714 13.654 26.8327 13.5765 26.91L11.6665 28.8217V27.5C11.6665 27.279 11.5787 27.067 11.4224 26.9107C11.2661 26.7545 11.0542 26.6667 10.8332 26.6667H9.1665C8.94549 26.6667 8.73353 26.5789 8.57725 26.4226C8.42097 26.2663 8.33317 26.0543 8.33317 25.8333V12.5C8.33317 12.279 8.42097 12.067 8.57725 11.9107C8.73353 11.7545 8.94549 11.6667 9.1665 11.6667H29.1665C29.3875 11.6667 29.5995 11.7545 29.7558 11.9107C29.912 12.067 29.9998 12.279 29.9998 12.5V25.8333Z" fill="#A098AE"/>
<path d="M18.3333 14.1667C18.1123 14.1667 17.9004 14.2545 17.7441 14.4108C17.5878 14.5671 17.5 14.7791 17.5 15.0001V16.6667C17.4964 16.9541 17.4175 17.2355 17.2713 17.4828C17.1251 17.7302 16.9166 17.935 16.6667 18.0767V15.0001C16.6667 14.7791 16.5789 14.5671 16.4226 14.4108C16.2663 14.2545 16.0543 14.1667 15.8333 14.1667C15.6123 14.1667 15.4004 14.2545 15.2441 14.4108C15.0878 14.5671 15 14.7791 15 15.0001V18.0767C14.75 17.935 14.5416 17.7302 14.3954 17.4828C14.2492 17.2355 14.1703 16.9541 14.1667 16.6667V15.0001C14.1667 14.7791 14.0789 14.5671 13.9226 14.4108C13.7663 14.2545 13.5543 14.1667 13.3333 14.1667C13.1123 14.1667 12.9004 14.2545 12.7441 14.4108C12.5878 14.5671 12.5 14.7791 12.5 15.0001V16.6667C12.5028 17.4036 12.7496 18.1188 13.2019 18.7004C13.6542 19.2821 14.2865 19.6975 15 19.8817V23.3334C15 23.5544 15.0878 23.7664 15.2441 23.9227C15.4004 24.079 15.6123 24.1667 15.8333 24.1667C16.0543 24.1667 16.2663 24.079 16.4226 23.9227C16.5789 23.7664 16.6667 23.5544 16.6667 23.3334V19.8817C17.3801 19.6975 18.0124 19.2821 18.4648 18.7004C18.9171 18.1188 19.1639 17.4036 19.1667 16.6667V15.0001C19.1667 14.7791 19.0789 14.5671 18.9226 14.4108C18.7663 14.2545 18.5543 14.1667 18.3333 14.1667ZM22.04 14.2551C21.913 14.1914 21.7717 14.1613 21.6298 14.1676C21.4878 14.1739 21.3498 14.2164 21.2289 14.291C21.108 14.3657 21.0081 14.47 20.9389 14.5941C20.8697 14.7182 20.8333 14.858 20.8333 15.0001V23.3334C20.8333 23.5544 20.9211 23.7664 21.0774 23.9227C21.2337 24.079 21.4457 24.1667 21.6667 24.1667C21.8877 24.1667 22.0996 24.079 22.2559 23.9227C22.4122 23.7664 22.5 23.5544 22.5 23.3334V22.3184L24.8867 21.7201C25.1746 21.642 25.4264 21.4664 25.5991 21.2231C25.7717 20.9799 25.8545 20.6843 25.8333 20.3867C25.8355 19.1127 25.4815 17.8634 24.8112 16.7799C24.1409 15.6964 23.181 14.8219 22.04 14.2551Z" fill="#A098AE"/>
</svg>
