<svg width="928" height="229" viewBox="0 0 928 229" fill="none" xmlns="http://www.w3.org/2000/svg">
<rect y="29" width="24" height="200" fill="#F8B602"/>
<rect x="24" width="24" height="229" fill="#EB5757"/>
<rect x="80" y="139" width="24" height="90" fill="#F8B602"/>
<rect x="104" y="109" width="24" height="120" fill="#EB5757"/>
<rect x="160" y="154" width="24" height="75" fill="#F8B602"/>
<rect x="184" y="85" width="24" height="144" fill="#EB5757"/>
<rect x="240" y="71" width="24" height="158" fill="#F8B602"/>
<rect x="264" y="57" width="24" height="172" fill="#EB5757"/>
<rect x="320" y="167" width="24" height="62" fill="#F8B602"/>
<rect x="344" y="142" width="24" height="87" fill="#EB5757"/>
<rect x="400" y="93" width="24" height="135.849" fill="#F8B602"/>
<rect x="424" y="115" width="24" height="114" fill="#EB5757"/>
<rect x="480" y="78" width="24" height="150.943" fill="#F8B602"/>
<rect x="504" y="42" width="24" height="187" fill="#EB5757"/>
<rect x="560" y="100" width="24" height="129" fill="#F8B602"/>
<rect x="584" y="71" width="24" height="158" fill="#EB5757"/>
<rect x="640" y="119" width="24" height="110" fill="#F8B602"/>
<rect x="664" y="142" width="24" height="87" fill="#EB5757"/>
<rect x="720" y="18" width="24" height="211" fill="#F8B602"/>
<rect x="744" y="50" width="24" height="179" fill="#EB5757"/>
<rect x="800" y="178" width="24" height="51" fill="#F8B602"/>
<rect x="824" y="147" width="24" height="82" fill="#EB5757"/>
<rect x="880" y="106" width="24" height="123" fill="#F8B602"/>
<rect x="904" y="77" width="24" height="152" fill="#EB5757"/>
</svg>
