<svg width="23" height="6" viewBox="0 0 23 6" fill="none" xmlns="http://www.w3.org/2000/svg">
<path d="M11.5003 7.10689e-08C11.139 6.34557e-08 10.7813 0.0711573 10.4475 0.209409C10.1138 0.347661 9.81051 0.550301 9.55505 0.805757C9.29959 1.06121 9.09695 1.36448 8.9587 1.69825C8.82045 2.03202 8.74929 2.38976 8.74929 2.75103C8.74929 3.1123 8.82045 3.47003 8.9587 3.8038C9.09695 4.13757 9.29959 4.44084 9.55505 4.6963C9.81051 4.95175 10.1138 5.15439 10.4475 5.29264C10.7813 5.4309 11.139 5.50205 11.5003 5.50205C12.2299 5.50189 12.9296 5.21189 13.4454 4.69586C13.9612 4.17982 14.2509 3.48002 14.2507 2.7504C14.2506 2.02078 13.9606 1.32112 13.4445 0.805315C12.9285 0.289515 12.2287 -0.000165654 11.4991 7.10689e-08H11.5003ZM2.75103 7.10689e-08C2.38976 6.34557e-08 2.03202 0.0711573 1.69825 0.209409C1.36448 0.347661 1.06121 0.550301 0.805757 0.805757C0.550301 1.06121 0.347662 1.36448 0.209409 1.69825C0.0711574 2.03202 0 2.38976 0 2.75103C0 3.1123 0.0711574 3.47003 0.209409 3.8038C0.347662 4.13757 0.550301 4.44084 0.805757 4.6963C1.06121 4.95175 1.36448 5.15439 1.69825 5.29264C2.03202 5.4309 2.38976 5.50205 2.75103 5.50205C3.48064 5.50189 4.18031 5.21189 4.69611 4.69586C5.21191 4.17982 5.50159 3.48002 5.50143 2.7504C5.50126 2.02078 5.21127 1.32112 4.69523 0.805315C4.1792 0.289515 3.4794 -0.000165654 2.74978 7.10689e-08H2.75103ZM20.2496 7.10689e-08C19.8883 6.34557e-08 19.5306 0.0711573 19.1968 0.209409C18.8631 0.347661 18.5598 0.550301 18.3043 0.805757C18.0489 1.06121 17.8462 1.36448 17.708 1.69825C17.5697 2.03202 17.4986 2.38976 17.4986 2.75103C17.4986 3.1123 17.5697 3.47003 17.708 3.8038C17.8462 4.13757 18.0489 4.44084 18.3043 4.6963C18.5598 4.95175 18.8631 5.15439 19.1968 5.29264C19.5306 5.4309 19.8883 5.50205 20.2496 5.50205C20.9792 5.50189 21.6789 5.21189 22.1947 4.69586C22.7105 4.17982 23.0002 3.48002 23 2.7504C22.9998 2.02078 22.7098 1.32112 22.1938 0.805315C21.6778 0.289515 20.978 -0.000165654 20.2484 7.10689e-08H20.2496Z" fill="#A098AE"/>
</svg>
