<svg width="29" height="24" viewBox="0 0 29 24" fill="none" xmlns="http://www.w3.org/2000/svg">
<path d="M0 17.9138C0 18.5925 0.26962 19.2435 0.749548 19.7234C1.22948 20.2033 1.8804 20.4729 2.55912 20.4729H3.49917C3.69495 21.4371 4.21805 22.304 4.97982 22.9266C5.7416 23.5492 6.6952 23.8894 7.67906 23.8894C8.66292 23.8894 9.61652 23.5492 10.3783 22.9266C11.1401 22.304 11.6632 21.4371 11.859 20.4729H17.2314C18.389 20.4648 19.5191 20.1192 20.4832 19.4783C20.4832 19.5261 20.4695 19.5721 20.4695 19.6199C20.4689 20.5377 20.7644 21.4312 21.312 22.1677C21.8597 22.9042 22.6303 23.4444 23.5094 23.7081C24.3885 23.9717 25.3292 23.9448 26.1917 23.6313C27.0543 23.3178 27.7928 22.7344 28.2974 21.9678C28.802 21.2011 29.0459 20.2922 28.9928 19.3759C28.9397 18.4597 28.5925 17.585 28.0027 16.8818C27.4129 16.1786 26.612 15.6844 25.719 15.4726C24.826 15.2608 23.8885 15.3427 23.0457 15.7062C23.1896 15.0684 23.2265 14.4111 23.1549 13.7612L22.4946 8.47239C22.6712 8.51101 22.8514 8.53046 23.0321 8.53039H23.8851C24.3376 8.53039 24.7715 8.35064 25.0915 8.03069C25.4114 7.71074 25.5912 7.27679 25.5912 6.82431V5.11824C25.5912 4.66576 25.4114 4.23181 25.0915 3.91186C24.7715 3.5919 24.3376 3.41216 23.8851 3.41216H23.0321C22.6368 3.414 22.2473 3.50739 21.8942 3.68499C21.5411 3.86259 21.2339 4.11958 20.9967 4.4358L20.722 4.16113C20.2411 3.68342 19.5914 3.41434 18.9136 3.41216H17.9138C17.6876 3.41216 17.4706 3.50203 17.3106 3.66201C17.1507 3.82198 17.0608 4.03896 17.0608 4.2652C17.0608 4.49144 17.1507 4.70841 17.3106 4.86839C17.4706 5.02836 17.6876 5.11824 17.9138 5.11824H18.9136C19.1394 5.11828 19.356 5.20786 19.5158 5.36732L20.5122 6.36367C20.5378 6.52234 21.1503 11.4444 21.4659 13.9728C21.5409 14.5731 21.4874 15.1824 21.3088 15.7604C21.1303 16.3384 20.8308 16.8719 20.4303 17.3253C20.0299 17.7787 19.5375 18.1417 18.986 18.3903C18.4344 18.6388 17.8363 18.7672 17.2314 18.7669H16.9072L15.3547 11.0059V9.38343C15.3547 8.70471 15.0851 8.05379 14.6052 7.57386C14.1252 7.09393 13.4743 6.82431 12.7956 6.82431H9.38343V2.55912C9.38343 1.8804 9.11381 1.22948 8.63388 0.749548C8.15396 0.26962 7.50303 0 6.82431 0H2.55912C1.8804 0 1.22948 0.26962 0.749548 0.749548C0.26962 1.22948 0 1.8804 0 2.55912V9.38343C0 10.0622 0.26962 10.7131 0.749548 11.193C1.22948 11.6729 1.8804 11.9425 2.55912 11.9425H2.91057C2.00703 12.6544 1.27597 13.5611 0.771979 14.5951C0.267991 15.6291 0.0040963 16.7636 0 17.9138ZM24.7381 17.0608C25.2443 17.0608 25.7391 17.2109 26.1599 17.4921C26.5807 17.7733 26.9088 18.173 27.1025 18.6406C27.2961 19.1082 27.3468 19.6227 27.2481 20.1192C27.1493 20.6156 26.9056 21.0716 26.5477 21.4295C26.1898 21.7874 25.7338 22.0311 25.2374 22.1298C24.741 22.2286 24.2264 22.1779 23.7588 21.9842C23.2912 21.7905 22.8915 21.4625 22.6103 21.0417C22.3291 20.6208 22.179 20.126 22.179 19.6199C22.179 18.9412 22.4486 18.2903 22.9286 17.8103C23.4085 17.3304 24.0594 17.0608 24.7381 17.0608ZM9.38343 8.53039H12.7956C13.0218 8.53039 13.2388 8.62026 13.3988 8.78024C13.5588 8.94022 13.6486 9.15719 13.6486 9.38343V10.2365H9.38343V8.53039ZM10.0795 20.4729C9.90579 20.9716 9.5812 21.4038 9.15077 21.7097C8.72033 22.0155 8.20539 22.1798 7.67735 22.1798C7.14932 22.1798 6.63437 22.0155 6.20394 21.7097C5.7735 21.4038 5.44891 20.9716 5.27519 20.4729H10.0795ZM1.70608 2.55912C1.70608 2.33288 1.79595 2.1159 1.95593 1.95593C2.1159 1.79595 2.33288 1.70608 2.55912 1.70608H6.82431C7.05055 1.70608 7.26753 1.79595 7.4275 1.95593C7.58748 2.1159 7.67735 2.33288 7.67735 2.55912V3.41216H1.70608V2.55912ZM1.70608 5.11824H7.67735V6.79872H1.70608V5.11824ZM2.55912 10.2365C2.33288 10.2365 2.1159 10.1466 1.95593 9.98662C1.79595 9.82665 1.70608 9.60967 1.70608 9.38343V8.5048H7.67735V10.2365H2.55912Z" fill="#A098AE"/>
</svg>
