<svg width="32" height="32" viewBox="0 0 32 32" fill="none" xmlns="http://www.w3.org/2000/svg">
<path d="M4 19V25C4 26.3261 4.52678 27.5979 5.46447 28.5355C6.40215 29.4732 7.67392 30 9 30H23C24.3261 30 25.5979 29.4732 26.5355 28.5355C27.4732 27.5979 28 26.3261 28 25V19C28 17.6739 27.4732 16.4021 26.5355 15.4645C25.5979 14.5268 24.3261 14 23 14H9C7.67392 14 6.40215 14.5268 5.46447 15.4645C4.52678 16.4021 4 17.6739 4 19ZM26 19V25C26 25.7956 25.6839 26.5587 25.1213 27.1213C24.5587 27.6839 23.7956 28 23 28H9C8.20435 28 7.44129 27.6839 6.87868 27.1213C6.31607 26.5587 6 25.7956 6 25V19C6 18.2044 6.31607 17.4413 6.87868 16.8787C7.44129 16.3161 8.20435 16 9 16H23C23.7956 16 24.5587 16.3161 25.1213 16.8787C25.6839 17.4413 26 18.2044 26 19Z" fill="#2E2E2E"/>
<path d="M16.0001 25.9999C16.7912 25.9999 17.5646 25.7653 18.2224 25.3258C18.8802 24.8863 19.3929 24.2616 19.6956 23.5307C19.9984 22.7998 20.0776 21.9955 19.9232 21.2196C19.7689 20.4437 19.3879 19.7309 18.8285 19.1715C18.2691 18.6121 17.5564 18.2311 16.7804 18.0768C16.0045 17.9225 15.2003 18.0017 14.4694 18.3044C13.7384 18.6072 13.1137 19.1199 12.6742 19.7777C12.2347 20.4355 12.0001 21.2088 12.0001 21.9999C12.0001 23.0608 12.4215 24.0782 13.1717 24.8284C13.9218 25.5785 14.9392 25.9999 16.0001 25.9999ZM16.0001 19.9999C16.3956 19.9999 16.7823 20.1172 17.1112 20.337C17.4401 20.5568 17.6965 20.8691 17.8478 21.2346C17.9992 21.6 18.0388 22.0022 17.9617 22.3901C17.8845 22.7781 17.694 23.1344 17.4143 23.4142C17.1346 23.6939 16.7782 23.8843 16.3903 23.9615C16.0023 24.0387 15.6002 23.9991 15.2347 23.8477C14.8693 23.6963 14.5569 23.44 14.3371 23.1111C14.1174 22.7822 14.0001 22.3955 14.0001 21.9999C14.0001 21.4695 14.2108 20.9608 14.5859 20.5857C14.9609 20.2107 15.4697 19.9999 16.0001 19.9999ZM16.7101 2.28994C16.6171 2.19621 16.5065 2.12182 16.3847 2.07105C16.2628 2.02028 16.1321 1.99414 16.0001 1.99414C15.8681 1.99414 15.7374 2.02028 15.6155 2.07105C15.4937 2.12182 15.383 2.19621 15.2901 2.28994L11.0501 6.53994C10.8565 6.72692 10.7451 6.98315 10.7404 7.25226C10.7357 7.52138 10.8381 7.78133 11.0251 7.97494C11.2121 8.16855 11.4683 8.27995 11.7374 8.28464C12.0065 8.28933 12.2665 8.18692 12.4601 7.99994L15.0001 5.40994V10.9999C15.0001 11.2652 15.1054 11.5195 15.293 11.707C15.4805 11.8946 15.7349 11.9999 16.0001 11.9999C16.2653 11.9999 16.5197 11.8946 16.7072 11.707C16.8947 11.5195 17.0001 11.2652 17.0001 10.9999V5.40994L19.5401 7.99994C19.7263 8.18468 19.9777 8.28883 20.2401 8.28994C20.38 8.29755 20.52 8.27567 20.6509 8.22571C20.7818 8.17575 20.9008 8.09883 21.0001 7.99994C21.1863 7.81258 21.2909 7.55912 21.2909 7.29494C21.2909 7.03075 21.1863 6.7773 21.0001 6.58994L16.7101 2.28994Z" fill="#2E2E2E"/>
</svg>
