<svg width="40" height="40" viewBox="0 0 40 40" fill="none" xmlns="http://www.w3.org/2000/svg">
<path d="M32.5001 16.6667H31.6667V12.5C31.6667 11.837 31.4034 11.2011 30.9345 10.7322C30.4657 10.2634 29.8298 10 29.1667 10H9.16675C8.50371 10 7.86782 10.2634 7.39898 10.7322C6.93014 11.2011 6.66675 11.837 6.66675 12.5V25.8333C6.66675 26.4964 6.93014 27.1323 7.39898 27.6011C7.86782 28.0699 8.50371 28.3333 9.16675 28.3333H10.0001V29.8333C10.0008 30.0802 10.0744 30.3213 10.2118 30.5264C10.3492 30.7315 10.5441 30.8914 10.7721 30.986C11.0001 31.0806 11.251 31.1057 11.4933 31.058C11.7355 31.0104 11.9582 30.8922 12.1334 30.7183L14.5117 28.3333H16.6667V29.1667C16.6667 29.8297 16.9301 30.4656 17.399 30.9344C17.8678 31.4033 18.5037 31.6667 19.1667 31.6667H27.1551L29.5334 34.045C29.7079 34.2193 29.9301 34.3381 30.172 34.3864C30.4138 34.4347 30.6646 34.4103 30.8927 34.3164C31.1207 34.2225 31.3159 34.0633 31.4537 33.8587C31.5914 33.6541 31.6655 33.4133 31.6667 33.1667V31.6667H32.5001C33.1631 31.6667 33.799 31.4033 34.2678 30.9344C34.7367 30.4656 35.0001 29.8297 35.0001 29.1667V19.1667C35.0001 18.5036 34.7367 17.8677 34.2678 17.3989C33.799 16.9301 33.1631 16.6667 32.5001 16.6667ZM30.0001 25.8333C30.0001 26.0543 29.9123 26.2663 29.756 26.4226C29.5997 26.5789 29.3878 26.6667 29.1667 26.6667H14.1667C14.0572 26.6665 13.9488 26.6879 13.8475 26.7296C13.7463 26.7714 13.6543 26.8327 13.5767 26.91L11.6667 28.8217V27.5C11.6667 27.279 11.579 27.067 11.4227 26.9107C11.2664 26.7545 11.0544 26.6667 10.8334 26.6667H9.16675C8.94573 26.6667 8.73377 26.5789 8.57749 26.4226C8.42121 26.2663 8.33341 26.0543 8.33341 25.8333V12.5C8.33341 12.279 8.42121 12.067 8.57749 11.9107C8.73377 11.7545 8.94573 11.6667 9.16675 11.6667H29.1667C29.3878 11.6667 29.5997 11.7545 29.756 11.9107C29.9123 12.067 30.0001 12.279 30.0001 12.5V25.8333Z" fill="white"/>
<path d="M18.3333 14.1667C18.1123 14.1667 17.9004 14.2545 17.7441 14.4108C17.5878 14.5671 17.5 14.7791 17.5 15.0001V16.6667C17.4964 16.9541 17.4175 17.2355 17.2713 17.4828C17.1251 17.7302 16.9166 17.935 16.6667 18.0767V15.0001C16.6667 14.7791 16.5789 14.5671 16.4226 14.4108C16.2663 14.2545 16.0543 14.1667 15.8333 14.1667C15.6123 14.1667 15.4004 14.2545 15.2441 14.4108C15.0878 14.5671 15 14.7791 15 15.0001V18.0767C14.75 17.935 14.5416 17.7302 14.3954 17.4828C14.2492 17.2355 14.1703 16.9541 14.1667 16.6667V15.0001C14.1667 14.7791 14.0789 14.5671 13.9226 14.4108C13.7663 14.2545 13.5543 14.1667 13.3333 14.1667C13.1123 14.1667 12.9004 14.2545 12.7441 14.4108C12.5878 14.5671 12.5 14.7791 12.5 15.0001V16.6667C12.5028 17.4036 12.7496 18.1188 13.2019 18.7004C13.6542 19.2821 14.2865 19.6975 15 19.8817V23.3334C15 23.5544 15.0878 23.7664 15.2441 23.9227C15.4004 24.079 15.6123 24.1667 15.8333 24.1667C16.0543 24.1667 16.2663 24.079 16.4226 23.9227C16.5789 23.7664 16.6667 23.5544 16.6667 23.3334V19.8817C17.3801 19.6975 18.0124 19.2821 18.4648 18.7004C18.9171 18.1188 19.1639 17.4036 19.1667 16.6667V15.0001C19.1667 14.7791 19.0789 14.5671 18.9226 14.4108C18.7663 14.2545 18.5543 14.1667 18.3333 14.1667ZM22.04 14.2551C21.913 14.1914 21.7717 14.1613 21.6298 14.1676C21.4878 14.1739 21.3498 14.2164 21.2289 14.291C21.108 14.3657 21.0081 14.47 20.9389 14.5941C20.8697 14.7182 20.8333 14.858 20.8333 15.0001V23.3334C20.8333 23.5544 20.9211 23.7664 21.0774 23.9227C21.2337 24.079 21.4457 24.1667 21.6667 24.1667C21.8877 24.1667 22.0996 24.079 22.2559 23.9227C22.4122 23.7664 22.5 23.5544 22.5 23.3334V22.3184L24.8867 21.7201C25.1746 21.642 25.4264 21.4664 25.5991 21.2231C25.7717 20.9799 25.8545 20.6843 25.8333 20.3867C25.8355 19.1127 25.4815 17.8634 24.8112 16.7799C24.1409 15.6964 23.181 14.8219 22.04 14.2551Z" fill="white"/>
</svg>
