<svg width="20" height="21" viewBox="0 0 20 21" fill="none" xmlns="http://www.w3.org/2000/svg">
<path d="M9.77244 20.9999C9.66632 20.9995 9.56152 20.9765 9.46495 20.9325C5.32509 19.095 2.56519 15.5101 1.21524 10.2678L0.0227794 5.43049C-0.0153112 5.27949 -0.00544981 5.12037 0.0509949 4.97523C0.10744 4.83009 0.207668 4.70611 0.337768 4.62052L0.892749 4.25303C3.56767 2.47122 6.46809 1.05379 9.51745 0.0381799C9.67083 -0.0127266 9.83655 -0.0127266 9.98993 0.0381799C13.0397 1.05615 15.9401 2.4761 18.6146 4.26053L19.1696 4.62802C19.3051 4.70792 19.412 4.8284 19.4753 4.97241C19.5385 5.11641 19.5549 5.27666 19.5221 5.43049L18.3146 10.2678C17.0022 15.5176 14.2348 19.095 10.0649 20.9325C9.97298 20.9744 9.87349 20.9974 9.77244 20.9999ZM1.62772 5.58049L2.70769 9.90034C3.87014 14.5427 6.24756 17.7451 9.77244 19.425C13.2973 17.7451 15.6747 14.5427 16.8372 9.90784L17.9172 5.58799L17.8047 5.51299C15.31 3.84889 12.6101 2.51531 9.77244 1.54563C6.93771 2.5134 4.24034 3.84444 1.74772 5.50549L1.62772 5.58049Z" fill="#2E2E2E"/>
<path d="M10.2078 0.143208C10.1116 0.0735152 10.0003 0.0276547 9.88294 0.00940072C9.7656 -0.00885326 9.64559 0.00102106 9.53281 0.0382111C6.48567 1.05679 3.58778 2.47673 0.915609 4.26056L0.360628 4.62805C0.227882 4.71008 0.124027 4.83147 0.0635328 4.97531C0.00303887 5.11915 -0.0110812 5.27828 0.0231398 5.43052L1.2306 10.2679C2.54305 15.5177 5.31045 19.095 9.48031 20.9325C9.59371 20.9805 9.7172 20.9999 9.83986 20.9889C9.96252 20.9779 10.0806 20.9368 10.1836 20.8694C10.2867 20.8019 10.3715 20.7101 10.4307 20.6021C10.4898 20.4941 10.5214 20.3732 10.5228 20.25V0.750686C10.5222 0.631703 10.4934 0.514558 10.4386 0.408928C10.3838 0.303299 10.3047 0.212217 10.2078 0.143208Z" fill="#2E2E2E"/>
</svg>
