<svg width="23" height="23" viewBox="0 0 23 23" fill="none" xmlns="http://www.w3.org/2000/svg">
<path d="M23 11.5C23 5.13667 17.8633 -2.24531e-07 11.5 -5.02681e-07C5.13667 -7.80831e-07 -2.24531e-07 5.13667 -5.02681e-07 11.5C-7.80831e-07 17.8633 5.13667 23 11.5 23C17.8633 23 23 17.8633 23 11.5ZM10.7333 16.1767L10.7333 9.12333L8.74 10.8867C8.28 11.27 7.66667 11.1933 7.28333 10.81C7.13 10.58 7.05333 10.35 7.05333 10.12C7.05333 9.81333 7.20667 9.50667 7.43667 9.35333L11.1167 6.13333C11.1933 6.05667 11.27 6.05667 11.3467 5.98C11.4233 5.98 11.4233 5.98 11.5 5.90333C11.5767 5.90333 11.5767 5.90333 11.6533 5.90333L11.73 5.90333C11.8067 5.90333 11.8067 5.90333 11.8833 5.90333L11.96 5.90333C12.0367 5.90333 12.0367 5.90333 12.1133 5.98C12.1133 5.98 12.19 5.98 12.19 6.05667L12.2667 6.13333C12.2667 6.13333 12.2667 6.13333 12.3433 6.21L15.5633 9.50667C15.9467 9.89 15.9467 10.58 15.5633 10.9633C15.18 11.3467 14.49 11.3467 14.1067 10.9633L12.65 9.43L12.65 16.2533C12.65 16.79 12.19 17.3267 11.5767 17.3267C11.1933 17.1733 10.7333 16.7133 10.7333 16.1767Z" fill="#F8B602"/>
</svg>
