<svg width="21" height="18" viewBox="0 0 21 18" fill="none" xmlns="http://www.w3.org/2000/svg">
<path d="M16.5 9C18.9853 9 21 6.98528 21 4.5C21 2.01472 18.9853 0 16.5 0C14.0147 0 12 2.01472 12 4.5C12 6.98528 14.0147 9 16.5 9Z" fill="#2E2E2E"/>
<path d="M20.25 18H0.75C0.551088 18 0.360322 17.921 0.21967 17.7803C0.0790176 17.6397 0 17.4489 0 17.25V4.5C0 4.30109 0.0790176 4.11032 0.21967 3.96967C0.360322 3.82902 0.551088 3.75 0.75 3.75H9.75C9.94891 3.75 10.1397 3.82902 10.2803 3.96967C10.421 4.11032 10.5 4.30109 10.5 4.5C10.5 4.69891 10.421 4.88968 10.2803 5.03033C10.1397 5.17098 9.94891 5.25 9.75 5.25H1.5V16.5H19.5V9.75C19.5 9.55109 19.579 9.36032 19.7197 9.21967C19.8603 9.07902 20.0511 9 20.25 9C20.4489 9 20.6397 9.07902 20.7803 9.21967C20.921 9.36032 21 9.55109 21 9.75V17.25C21 17.4489 20.921 17.6397 20.7803 17.7803C20.6397 17.921 20.4489 18 20.25 18Z" fill="#2E2E2E"/>
</svg>
