<svg width="9" height="14" viewBox="0 0 9 14" fill="none" xmlns="http://www.w3.org/2000/svg">
<path d="M8.4526 6.95521C8.45367 7.14048 8.41816 7.32415 8.3481 7.49567C8.27804 7.6672 8.17481 7.82321 8.04433 7.95475L2.41311 13.586C2.14801 13.8511 1.78847 14 1.41357 14C1.03866 14 0.679119 13.8511 0.414023 13.586C0.148928 13.3209 -4.54015e-08 12.9613 -6.1789e-08 12.5864C-7.81764e-08 12.2115 0.148928 11.852 0.414023 11.5869L5.05978 6.95521L0.428101 2.32352C0.197466 2.05421 0.0769481 1.70778 0.0906336 1.35347C0.104319 0.999161 0.2512 0.663062 0.501922 0.41234C0.752645 0.161617 1.08874 0.0147386 1.44305 0.0010532C1.79737 -0.0126322 2.14379 0.107883 2.41311 0.338519L8.04433 5.96974C8.30442 6.23196 8.45104 6.58588 8.4526 6.95521Z" fill="white"/>
</svg>
