<svg width="7" height="10" viewBox="0 0 7 10" fill="none" xmlns="http://www.w3.org/2000/svg">
<path d="M6.03757 4.968C6.03834 5.10034 6.01297 5.23153 5.96293 5.35405C5.91289 5.47657 5.83915 5.588 5.74596 5.68196L1.72365 9.70427C1.5343 9.89362 1.27748 10 1.00969 10C0.741904 10 0.485085 9.89362 0.295731 9.70427C0.106377 9.51491 -4.23366e-08 9.2581 -5.76178e-08 8.99031C-7.2899e-08 8.72252 0.106377 8.4657 0.295731 8.27635L3.61413 4.968L0.305787 1.65965C0.141047 1.46729 0.0549629 1.21984 0.0647382 0.96676C0.0745136 0.71368 0.179428 0.473609 0.358516 0.294521C0.537604 0.115434 0.777674 0.0105211 1.03075 0.000745103C1.28383 -0.00902992 1.53128 0.0770521 1.72365 0.241792L5.74596 4.2641C5.93173 4.4514 6.03646 4.7042 6.03757 4.968Z" fill="#F8B602"/>
</svg>
