<svg width="56" height="56" viewBox="0 0 56 56" fill="none" xmlns="http://www.w3.org/2000/svg">
<g clip-path="url(#clip0_2_2703)">
<path d="M21.4665 12.25L19.1915 12.075C19.2498 11.2583 19.3082 10.2667 19.0165 9.625C18.9582 9.50833 18.8415 9.33333 18.7832 9.21667C18.6665 9.04167 18.4915 8.80833 18.3748 8.575C17.6748 7.11667 17.8498 5.30833 18.9582 3.20833L20.9998 4.25833C20.2415 5.65833 20.0665 6.76667 20.4748 7.525C20.5332 7.7 20.6498 7.81667 20.7082 7.93333C20.8248 8.10833 20.9415 8.34167 21.0582 8.575C21.6415 9.8 21.5248 11.2 21.4665 12.25ZM38.0332 12.25L35.7582 12.075C35.8165 11.2583 35.8748 10.2667 35.5832 9.625C35.5248 9.50833 35.4082 9.33333 35.3498 9.21667C35.2332 9.04167 35.0582 8.80833 34.9415 8.575C34.2415 7.11667 34.4165 5.30833 35.5248 3.20833L37.5665 4.25833C36.8082 5.65833 36.6332 6.76667 37.0415 7.525C37.0998 7.7 37.2165 7.81667 37.2748 7.93333C37.3915 8.10833 37.5082 8.34167 37.6248 8.575C38.2665 9.8 38.1498 11.2 38.0332 12.25ZM29.7498 9.625L27.4748 9.45C27.5332 8.63333 27.5915 7.64167 27.2998 7C27.2415 6.88333 27.1248 6.70833 27.0665 6.59167C26.9498 6.41667 26.7748 6.18333 26.6582 5.95C25.9582 4.49167 26.1332 2.68333 27.2415 0.583332L29.2832 1.63333C28.5248 3.03333 28.3498 4.14167 28.7582 4.9C28.8165 5.075 28.9332 5.19167 28.9915 5.30833C29.1082 5.48333 29.2248 5.71667 29.3415 5.95C29.9248 7.23333 29.8082 8.63333 29.7498 9.625ZM29.6332 27.3583L27.5332 26.425C28.1748 24.9083 27.5332 23.1583 26.0165 22.5167C24.4998 21.875 22.7498 22.5167 22.1082 24.0333L20.0082 23.1C21.1748 20.4167 24.2665 19.25 26.9498 20.4167C29.5748 21.5833 30.7998 24.675 29.6332 27.3583Z" fill="#292D34"/>
<path d="M5.25 23.5667C6.18333 21.4667 8.575 20.5334 10.675 21.4667C12.775 22.4 13.7083 24.7917 12.775 26.8917" fill="#F7C44C"/>
<path d="M13.8252 27.3583L11.7252 26.425C12.3669 24.9083 11.7252 23.1583 10.2085 22.5167C8.69186 21.875 6.94186 22.5167 6.3002 24.0333L4.2002 23.1C5.36686 20.4167 8.45853 19.25 11.1419 20.4167C13.7669 21.5833 14.9919 24.675 13.8252 27.3583Z" fill="#292D34"/>
<path d="M32.3169 21.875C33.7169 20.0667 36.2836 19.7167 38.0919 21.1167C39.9002 22.5167 40.2502 25.0833 38.8502 26.8917" fill="#F7C44C"/>
<path d="M39.7252 27.5916L37.9169 26.1916C38.3836 25.55 38.6169 24.7916 38.5002 24.0333C38.3836 23.275 37.9752 22.575 37.3919 22.05C36.1086 21.0583 34.2419 21.2917 33.2502 22.6333L31.4419 21.2333C33.1919 18.9 36.5169 18.4917 38.8502 20.2417C39.9586 21.1167 40.6586 22.3417 40.8919 23.7417C41.1252 25.1417 40.6002 26.4833 39.7252 27.5916Z" fill="#292D34"/>
<path d="M33.1334 22.4L31.3251 21C31.7918 20.3584 32.0251 19.6 31.9084 18.8417C31.7918 18.0834 31.3834 17.3834 30.8001 16.8584C29.5168 15.8667 27.6501 16.1 26.6584 17.4417L24.8501 16.0417C26.6001 13.7084 29.9251 13.3 32.2584 15.05C33.3668 15.925 34.0668 17.15 34.3001 18.55C34.5334 19.95 34.0084 21.2917 33.1334 22.4ZM51.2751 27.5917L49.4668 26.1917C50.4584 24.9084 50.2251 23.0417 48.8834 22.05C47.6001 21.0584 45.7334 21.2917 44.7418 22.6334L42.9334 21.2334C44.6834 18.9 48.0084 18.4917 50.3418 20.2417C52.6168 21.9334 53.0251 25.2584 51.2751 27.5917Z" fill="#292D34"/>
<path d="M37.2168 16.6834C38.6168 14.875 41.1835 14.525 42.9918 15.925C44.8001 17.325 45.1501 19.8917 43.7501 21.7" fill="#F7C44C"/>
<path d="M44.6832 22.4L42.8749 21C43.3416 20.3584 43.5749 19.6 43.4582 18.8417C43.3416 18.0834 42.9332 17.3834 42.3499 16.8584C41.0666 15.8667 39.1999 16.1 38.2082 17.4417L36.3999 16.0417C38.1499 13.7084 41.4749 13.3 43.8082 15.05C44.9166 15.925 45.6166 17.15 45.8499 18.55C46.0832 19.95 45.5582 21.2917 44.6832 22.4Z" fill="#292D34"/>
<path d="M14.4082 18.6084C15.8082 16.8 18.3749 16.45 20.1832 17.85C21.9915 19.25 22.3415 21.8167 20.9415 23.625" fill="#F7C44C"/>
<path d="M21.8749 24.2667L20.0665 22.8667C21.0582 21.5834 20.8249 19.7167 19.4832 18.725C18.8415 18.2584 18.0832 18.025 17.3249 18.1417C16.5665 18.2584 15.8665 18.6667 15.3415 19.25L13.5332 17.85C14.4082 16.7417 15.6332 16.0417 17.0332 15.8084C18.4332 15.6334 19.8332 15.9834 20.9415 16.8584C23.1582 18.6667 23.6249 21.9917 21.8749 24.2667Z" fill="#292D34"/>
<path d="M42.2332 55.4166H13.7665V50.6333C5.42484 45.6166 0.291504 36.575 0.291504 26.8916V25.725H55.7082V26.8916C55.7082 36.6333 50.5748 45.675 42.2332 50.6333V55.4166ZM16.0998 53.0833H39.9582V49.2916L40.5415 48.9416C48.1832 44.625 53.0248 36.6916 53.4332 28H2.68317C3.0915 36.6916 7.93317 44.625 15.5748 48.9416L16.1582 49.2916V53.0833H16.0998Z" fill="#292D34"/>
<path d="M18.9585 50.225V47.6583L16.9168 46.4917C11.0835 43.1667 7.0585 37.3917 5.8335 30.9167H50.1668C49.0002 37.3917 44.9752 43.1667 39.0835 46.4917L37.0418 47.6583V50.225H18.9585Z" fill="#2DCB73"/>
<path d="M12.3086 42.175C9.80023 39.6084 7.93356 36.4 6.94189 32.9584L9.15856 32.3167C10.0336 35.4084 11.7252 38.2667 13.9419 40.5417L12.3086 42.175Z" fill="#292D34"/>
<path d="M17.2083 45.9667C16.3333 45.5 15.5166 44.9167 14.7583 44.3333L16.1583 42.4667C16.8583 42.9917 17.6166 43.4583 18.375 43.925L17.2083 45.9667Z" fill="white"/>
</g>
<defs>
<clipPath id="clip0_2_2703">
<rect width="56" height="56" fill="white"/>
</clipPath>
</defs>
</svg>
