<svg width="56" height="56" viewBox="0 0 56 56" fill="none" xmlns="http://www.w3.org/2000/svg">
<g clip-path="url(#clip0_2_2691)">
<path d="M13.8248 31.6166C11.6081 30.975 10.5581 28.9333 10.5581 27.1833C10.5581 26.3666 10.7331 25.6666 11.0831 25.0833C11.5498 24.2083 12.5998 23.5083 13.8248 23.1L14.6998 22.8083L14.5831 21.875C14.4664 20.475 14.5831 19.075 14.9331 17.675C15.3414 16.1 16.0414 15.1083 17.1498 14.5833C17.9081 14.2333 18.8414 14.1166 19.5414 14.1166L20.4748 14.0583L20.5914 13.125C20.7081 12.075 21.4081 11.0833 22.3998 10.3833C23.1581 9.85829 24.0331 9.56663 24.9664 9.27496L25.1998 9.21663C27.0664 8.57496 29.1664 7.75829 30.6831 6.47496C31.9664 5.42496 33.0748 3.61663 32.5498 1.80829C33.5998 2.79996 34.6498 3.84996 35.6414 4.89996C36.2248 5.48329 36.8664 6.12496 37.1581 6.88329C37.3914 7.52496 37.3914 8.22496 37.3914 8.86663V11.375C37.3914 11.6083 37.3914 11.8416 37.3331 12.1333V13.125L38.6164 13.4166C38.7331 13.4166 38.7914 13.475 38.9081 13.475C40.0164 13.7666 41.2998 14.1166 42.1748 14.875C43.3998 15.9833 43.5164 17.7333 43.5164 18.725C43.5748 19.4833 43.5748 20.7666 42.9331 21.7583L42.2331 22.8083L43.3998 23.3916C43.9831 23.6833 44.3914 23.975 44.7414 24.325C45.1498 24.7333 45.3831 25.375 45.4998 26.0166C45.7331 28.4666 43.5164 29.9833 42.1164 31.5583L42.1748 32.375L13.8248 31.6166Z" fill="#F7C44C"/>
<path d="M13.5335 32.725C10.7335 31.9083 9.4502 29.3417 9.4502 27.1833C9.4502 26.1917 9.68353 25.2584 10.0919 24.5C11.2585 22.4584 14.3502 21.2334 17.2085 21.7C18.2585 21.875 19.1335 22.225 20.0669 22.5167C21.0585 22.8667 21.9919 23.2167 22.9835 23.275L22.8085 25.55C21.5252 25.4917 20.3585 25.025 19.2502 24.6167C18.4335 24.325 17.6169 24.0334 16.8585 23.9167C14.9335 23.625 12.8335 24.3834 12.1335 25.6084C11.9002 26.0167 11.7835 26.5417 11.7835 27.125C11.7835 28.4667 12.5419 29.9833 14.1752 30.5083L13.5335 32.725Z" fill="#292D34"/>
<path d="M13.6503 23.2167C13.3003 21.2917 13.4169 19.3083 13.8836 17.3833C14.3503 15.4583 15.2836 14.175 16.742 13.5333C17.7336 13.0667 18.9003 12.95 20.0086 12.8917C21.1169 12.8333 22.4586 12.8917 23.7419 13.1833C25.2586 13.5917 26.4253 14.4083 27.0086 15.4L25.0253 16.5083C24.7336 16.0417 24.0336 15.575 23.1586 15.3417C22.1669 15.05 21.0586 15.05 20.0669 15.1083C19.2503 15.1083 18.3753 15.225 17.7336 15.5167C16.9753 15.8667 16.4503 16.625 16.1586 17.85C15.7503 19.425 15.6919 21.0583 15.9836 22.6917L13.6503 23.2167ZM43.3419 23.1L41.7669 21.4083C42.3503 20.8833 42.4669 20.0083 42.4086 18.7833C42.3503 17.3833 42.1753 16.3917 41.4169 15.75C40.7169 15.1667 39.6086 14.8167 38.6753 14.5833C37.2169 14.2333 35.7586 14 34.2419 13.9417L34.4169 11.6667C36.0503 11.7833 37.6253 12.0167 39.2003 12.3667C40.4836 12.6583 41.8836 13.0667 42.9336 14.0583C44.3336 15.3417 44.6253 17.0333 44.6836 18.725C44.7419 20.3 44.6253 21.875 43.3419 23.1Z" fill="#292D34"/>
<path d="M43.4582 32.6666L41.7665 31.0916C43.4582 29.225 44.5082 28 44.3332 26.1916C44.2749 25.7833 44.1582 25.4333 43.9249 25.1416C43.6332 24.85 43.2249 24.6166 42.6999 24.325C40.3665 23.1 37.9165 21.9916 35.4082 20.9416L36.2832 18.8416C38.8499 19.8916 41.3582 21.0583 43.8082 22.2833C44.3332 22.575 45.0915 22.925 45.6165 23.5083C46.1999 24.15 46.5499 24.9666 46.6665 25.9C46.8415 28.9333 45.0332 30.9166 43.4582 32.6666ZM19.5999 14.4666C19.1915 12.6 20.0665 10.6166 21.8749 9.39163C22.7499 8.80829 23.7415 8.45829 24.7332 8.16663L24.9665 8.10829C26.7165 7.52496 28.6999 6.76663 30.0415 5.59996C31.0332 4.78329 31.9665 3.44163 31.5582 2.15829L31.3249 1.28329L32.8999 0.34996L33.5415 0.991627C34.5915 1.98329 35.6415 3.03329 36.6332 4.08329C37.2749 4.72496 38.0332 5.48329 38.4415 6.47496C38.7915 7.34996 38.7915 8.16663 38.7915 8.86663V11.375C38.7915 11.9583 38.7915 13.125 37.7999 13.9416L36.3415 12.1916C36.4582 12.075 36.4582 11.725 36.4582 11.375V8.86663C36.4582 8.28329 36.4582 7.75829 36.2832 7.29163C36.0499 6.76663 35.5249 6.18329 34.9999 5.65829C34.5332 5.19163 34.1249 4.78329 33.6582 4.31663C33.3082 5.36663 32.5499 6.41663 31.4999 7.29163C29.8082 8.69163 27.5915 9.56663 25.6665 10.2666L25.4332 10.325C24.5582 10.6166 23.7415 10.9083 23.0999 11.3166C22.1082 11.9583 21.5832 13.0083 21.8165 13.9416L19.5999 14.4666Z" fill="#292D34"/>
<path d="M42.9331 55.7084H13.0664L7.05811 30.45H48.8831L42.9331 55.7084ZM14.8748 53.4334H41.0664L45.9664 32.7834H9.97477L14.8748 53.4334Z" fill="#292D34"/>
<path d="M18.5498 48.825L15.8081 37.3333H40.1914L37.4498 48.825H18.5498Z" fill="#2DCB73"/>
<path d="M22.4581 39.4917H20.1831V46.6667H22.4581V39.4917Z" fill="#292D34"/>
<path d="M29.1085 39.4917H26.8335V46.6667H29.1085V39.4917Z" fill="#292D34"/>
<path d="M35.8165 39.4917H33.5415V46.6667H35.8165V39.4917Z" fill="#292D34"/>
</g>
<defs>
<clipPath id="clip0_2_2691">
<rect width="56" height="56" fill="white"/>
</clipPath>
</defs>
</svg>
