<svg width="23" height="23" viewBox="0 0 23 23" fill="none" xmlns="http://www.w3.org/2000/svg">
<path d="M22.0204 14.954L20.9705 15.4789L19.9206 14.954C19.8266 14.9068 19.7228 14.8823 19.6176 14.8823C19.5124 14.8823 19.4086 14.9068 19.3145 14.954L18.2646 15.4789L17.5882 15.1407V0.676446C17.5882 0.561089 17.5587 0.447649 17.5025 0.346907C17.4463 0.246166 17.3652 0.16147 17.2671 0.100868C17.1689 0.0402661 17.0569 0.00577195 16.9417 0.000663839C16.8264 -0.00444427 16.7118 0.0200031 16.6086 0.071683L15.5588 0.596622L14.5089 0.071683C14.4148 0.0245447 14.311 0 14.2058 0C14.1006 0 13.9968 0.0245447 13.9028 0.071683L12.8529 0.596622L11.803 0.071683C11.7089 0.0245447 11.6052 0 11.5 0C11.3947 0 11.291 0.0245447 11.1969 0.071683L10.147 0.596622L9.09714 0.071683C9.00307 0.0245447 8.8993 0 8.79409 0C8.68887 0 8.5851 0.0245447 8.49103 0.071683L7.44115 0.596622L6.39127 0.071683C6.2972 0.0245447 6.19343 0 6.08821 0C5.98299 0 5.87923 0.0245447 5.78516 0.071683L4.73528 0.596622L3.6854 0.071683C3.59133 0.0245447 3.48756 0 3.38234 0C3.27712 0 3.17335 0.0245447 3.07928 0.071683L2.0294 0.596622L0.979526 0.071683C0.876393 0.0200031 0.761757 -0.00444427 0.646513 0.000663839C0.53127 0.00577195 0.419247 0.0402661 0.32109 0.100868C0.222934 0.16147 0.141906 0.246166 0.0857068 0.346907C0.0295074 0.447649 3.87093e-06 0.561089 0 0.676446V19.6176C0 20.5146 0.356353 21.3749 0.990665 22.0092C1.62498 22.6435 2.48529 22.9999 3.38234 22.9999H19.6176C20.5146 22.9999 21.3749 22.6435 22.0093 22.0092C22.6436 21.3749 22.9999 20.5146 22.9999 19.6176V15.5587C22.9999 15.4434 22.9704 15.3299 22.9142 15.2292C22.858 15.1285 22.777 15.0438 22.6788 14.9832C22.5807 14.9226 22.4686 14.8881 22.3534 14.883C22.2382 14.8779 22.1235 14.9023 22.0204 14.954ZM8.79409 8.1176C8.79184 8.71574 8.59147 9.29628 8.2243 9.76847C7.85712 10.2407 7.34384 10.5779 6.76468 10.7274V16.9117C6.76468 17.0911 6.69341 17.2632 6.56655 17.39C6.43969 17.5169 6.26762 17.5881 6.08821 17.5881C5.9088 17.5881 5.73674 17.5169 5.60988 17.39C5.48301 17.2632 5.41174 17.0911 5.41174 16.9117V10.7274C4.83259 10.5779 4.3193 10.2407 3.95213 9.76847C3.58495 9.29628 3.38458 8.71574 3.38234 8.1176V6.08819C3.38234 5.90878 3.45361 5.73672 3.58047 5.60986C3.70734 5.48299 3.8794 5.41172 4.05881 5.41172C4.23822 5.41172 4.41028 5.48299 4.53714 5.60986C4.66401 5.73672 4.73528 5.90878 4.73528 6.08819V8.1176C4.73797 8.3509 4.80186 8.57941 4.92058 8.78027C5.03929 8.98114 5.20866 9.14731 5.41174 9.26218V6.08819C5.41174 5.90878 5.48301 5.73672 5.60988 5.60986C5.73674 5.48299 5.9088 5.41172 6.08821 5.41172C6.26762 5.41172 6.43969 5.48299 6.56655 5.60986C6.69341 5.73672 6.76468 5.90878 6.76468 6.08819V9.26218C6.96777 9.14731 7.13714 8.98114 7.25585 8.78027C7.37456 8.57941 7.43846 8.3509 7.44115 8.1176V6.08819C7.44115 5.90878 7.51242 5.73672 7.63928 5.60986C7.76614 5.48299 7.93821 5.41172 8.11762 5.41172C8.29703 5.41172 8.46909 5.48299 8.59595 5.60986C8.72282 5.73672 8.79409 5.90878 8.79409 6.08819V8.1176ZM13.4685 13.5659L11.5 14.0583V16.9117C11.5 17.0911 11.4287 17.2632 11.3018 17.39C11.175 17.5169 11.0029 17.5881 10.8235 17.5881C10.6441 17.5881 10.472 17.5169 10.3452 17.39C10.2183 17.2632 10.147 17.0911 10.147 16.9117V6.08819C10.1468 5.95422 10.1863 5.8232 10.2606 5.71173C10.335 5.60026 10.4407 5.51337 10.5645 5.46207C10.6882 5.41077 10.8244 5.39737 10.9558 5.42358C11.0872 5.44978 11.2078 5.5144 11.3024 5.60925C12.2259 6.52782 12.958 7.62045 13.4564 8.82388C13.9548 10.0273 14.2095 11.3176 14.2058 12.6202C14.2062 12.8375 14.1339 13.0487 14.0002 13.2202C13.8666 13.3916 13.6794 13.5133 13.4685 13.5659ZM21.647 19.6176C21.647 20.1558 21.4332 20.672 21.0526 21.0526C20.672 21.4331 20.1558 21.647 19.6176 21.647C19.0793 21.647 18.5632 21.4331 18.1826 21.0526C17.802 20.672 17.5882 20.1558 17.5882 19.6176V16.6533L17.9616 16.84C18.0556 16.8871 18.1594 16.9117 18.2646 16.9117C18.3699 16.9117 18.4736 16.8871 18.5677 16.84L19.6176 16.315L20.6675 16.84C20.7615 16.8871 20.8653 16.9117 20.9705 16.9117C21.0757 16.9117 21.1795 16.8871 21.2736 16.84L21.647 16.6533V19.6176Z" fill="white"/>
</svg>
