<svg width="29" height="29" viewBox="0 0 29 29" fill="none" xmlns="http://www.w3.org/2000/svg">
<path d="M27.765 18.8551L26.4413 19.517L25.1175 18.8551C24.9989 18.7957 24.868 18.7648 24.7354 18.7648C24.6027 18.7648 24.4719 18.7957 24.3532 18.8551L23.0295 19.517L22.1765 19.0906V0.852915C22.1765 0.707464 22.1393 0.56443 22.0685 0.437408C21.9976 0.310385 21.8954 0.203594 21.7717 0.127182C21.6479 0.0507707 21.5067 0.00727773 21.3614 0.00083702C21.2161 -0.00560369 21.0715 0.0252215 20.9415 0.0903835L19.6177 0.752268L18.2939 0.0903835C18.1753 0.0309479 18.0445 0 17.9118 0C17.7791 0 17.6483 0.0309479 17.5297 0.0903835L16.2059 0.752268L14.8822 0.0903835C14.7635 0.0309479 14.6327 0 14.5 0C14.3674 0 14.2365 0.0309479 14.1179 0.0903835L12.7942 0.752268L11.4704 0.0903835C11.3518 0.0309479 11.2209 0 11.0883 0C10.9556 0 10.8248 0.0309479 10.7061 0.0903835L9.38238 0.752268L8.05861 0.0903835C7.94 0.0309479 7.80916 0 7.67649 0C7.54382 0 7.41298 0.0309479 7.29437 0.0903835L5.97061 0.752268L4.64684 0.0903835C4.52823 0.0309479 4.39739 0 4.26472 0C4.13205 0 4.00121 0.0309479 3.8826 0.0903835L2.55883 0.752268L1.23506 0.0903835C1.10502 0.0252215 0.960483 -0.00560369 0.815174 0.00083702C0.669866 0.00727773 0.528619 0.0507707 0.404856 0.127182C0.281093 0.203594 0.178926 0.310385 0.108066 0.437408C0.0372053 0.56443 4.88077e-06 0.707464 0 0.852915V24.7353C0 25.8664 0.449317 26.9512 1.24911 27.7509C2.0489 28.5507 3.13364 29.0001 4.26472 29.0001H24.7354C25.8664 29.0001 26.9512 28.5507 27.751 27.7509C28.5508 26.9512 29.0001 25.8664 29.0001 24.7353V19.6177C29.0001 19.4722 28.9629 19.3292 28.892 19.2022C28.8212 19.0751 28.719 18.9684 28.5952 18.8919C28.4715 18.8155 28.3302 18.772 28.1849 18.7656C28.0396 18.7592 27.8951 18.79 27.765 18.8551ZM11.0883 10.2353C11.0854 10.9895 10.8328 11.7215 10.3698 12.3168C9.90687 12.9122 9.25968 13.3374 8.52944 13.526V21.3236C8.52944 21.5498 8.43957 21.7667 8.27962 21.9267C8.11966 22.0866 7.90271 22.1765 7.67649 22.1765C7.45028 22.1765 7.23333 22.0866 7.07337 21.9267C6.91341 21.7667 6.82355 21.5498 6.82355 21.3236V13.526C6.09331 13.3374 5.44612 12.9122 4.98315 12.3168C4.52019 11.7215 4.26754 10.9895 4.26472 10.2353V7.67646C4.26472 7.45025 4.35458 7.2333 4.51454 7.07334C4.6745 6.91338 4.89145 6.82352 5.11766 6.82352C5.34388 6.82352 5.56083 6.91338 5.72078 7.07334C5.88074 7.2333 5.97061 7.45025 5.97061 7.67646V10.2353C5.974 10.5295 6.05456 10.8176 6.20425 11.0709C6.35393 11.3241 6.56748 11.5336 6.82355 11.6785V7.67646C6.82355 7.45025 6.91341 7.2333 7.07337 7.07334C7.23333 6.91338 7.45028 6.82352 7.67649 6.82352C7.90271 6.82352 8.11966 6.91338 8.27962 7.07334C8.43957 7.2333 8.52944 7.45025 8.52944 7.67646V11.6785C8.7855 11.5336 8.99906 11.3241 9.14874 11.0709C9.29842 10.8176 9.37899 10.5295 9.38238 10.2353V7.67646C9.38238 7.45025 9.47224 7.2333 9.6322 7.07334C9.79216 6.91338 10.0091 6.82352 10.2353 6.82352C10.4615 6.82352 10.6785 6.91338 10.8384 7.07334C10.9984 7.2333 11.0883 7.45025 11.0883 7.67646V10.2353ZM16.9821 17.1049L14.5 17.7258V21.3236C14.5 21.5498 14.4102 21.7667 14.2502 21.9267C14.0903 22.0866 13.8733 22.1765 13.6471 22.1765C13.4209 22.1765 13.2039 22.0866 13.044 21.9267C12.884 21.7667 12.7942 21.5498 12.7942 21.3236V7.67646C12.7939 7.50755 12.8437 7.34234 12.9374 7.20179C13.0311 7.06125 13.1644 6.95169 13.3205 6.88701C13.4765 6.82232 13.6483 6.80543 13.8139 6.83847C13.9796 6.8715 14.1317 6.95299 14.251 7.07258C15.4154 8.23079 16.3385 9.60845 16.9669 11.1258C17.5953 12.6432 17.9164 14.2701 17.9118 15.9125C17.9123 16.1865 17.8211 16.4529 17.6526 16.669C17.484 16.8851 17.248 17.0386 16.9821 17.1049ZM27.2942 24.7353C27.2942 25.414 27.0246 26.0648 26.5447 26.5447C26.0649 27.0246 25.414 27.2942 24.7354 27.2942C24.0567 27.2942 23.4059 27.0246 22.926 26.5447C22.4461 26.0648 22.1765 25.414 22.1765 24.7353V20.9977L22.6474 21.2332C22.766 21.2926 22.8968 21.3235 23.0295 21.3235C23.1621 21.3235 23.293 21.2926 23.4116 21.2332L24.7354 20.5713L26.0591 21.2332C26.1777 21.2926 26.3086 21.3235 26.4413 21.3235C26.5739 21.3235 26.7048 21.2926 26.8234 21.2332L27.2942 20.9977V24.7353Z" fill="#A098AE"/>
</svg>
