<svg width="56" height="56" viewBox="0 0 56 56" fill="none" xmlns="http://www.w3.org/2000/svg">
<g clip-path="url(#clip0_2_2626)">
<path d="M14.4085 55.125C9.97515 55.125 5.54182 53.55 2.80015 49.9917C0.408485 46.9 -0.291515 42.7583 0.700152 38.2667C1.63348 34.1833 3.96682 30.3333 7.00015 28.0583C11.9585 24.2667 35.0585 12.7167 41.1835 20.7083C43.8085 24.2083 42.5251 30.1 37.4501 37.7417C33.4835 43.6917 28.1168 49.4083 25.0835 51.6833C22.2252 53.9 18.3168 55.125 14.4085 55.125ZM34.0085 20.1833C26.0751 20.1833 12.8918 26.4833 8.40015 29.8667C5.83348 31.85 3.79182 35.175 2.97515 38.7333C2.10015 42.525 2.74182 46.025 4.66682 48.5917C8.92515 54.1333 18.4918 53.8417 23.6835 49.9333C26.6001 47.7167 31.8502 42.0583 35.5252 36.5167C39.9585 29.8083 41.3002 24.7333 39.3168 22.1083C38.2668 20.7667 36.3418 20.1833 34.0085 20.1833Z" fill="#2E2E2E"/>
<path d="M14.4667 49.35C11.375 49.35 8.80837 48.3 7.40837 46.4917C6.12504 44.8 5.71671 42.2333 6.35837 39.55C6.94171 36.75 8.51671 34.125 10.5 32.6667C14.6417 29.5167 27.0667 23.6833 34.0084 23.6833C35.8167 23.6833 36.5167 24.0917 36.6334 24.2083C36.9834 24.6167 37.275 27.65 32.6667 34.5917C28.8167 40.3083 23.7417 45.5 21.525 47.1917C19.775 48.5333 17.0917 49.35 14.4667 49.35Z" fill="#F8B602"/>
<path d="M53.7251 16.3333C53.2584 15.6917 52.6751 15.225 52.0334 14.875C50.8084 14.2333 49.8751 13.0667 49.6417 11.725C49.4667 11.025 49.1751 10.325 48.7084 9.74167C47.2501 7.93333 44.2751 7.525 42.3501 8.86667C40.1917 10.3833 39.7251 13.4167 41.3001 15.5167C41.7084 16.0417 41.6501 16.8 41.1251 17.15L37.8584 19.6583C38.7917 20.0667 39.6084 20.5917 40.1917 21.4083C40.7751 22.1667 41.1251 23.1 41.2417 24.0917L44.5084 21.5833C45.0334 21.175 45.7334 21.2917 46.1417 21.8167C47.7751 23.9167 50.8084 24.2667 52.8501 22.575C54.7167 21.175 55.0667 18.2 53.7251 16.3333Z" fill="#A6C44A"/>
<path d="M40.3668 26.25L40.1335 24.2667C40.0168 23.3917 39.7835 22.6917 39.3168 22.1083C38.8502 21.525 38.2668 21.0583 37.4502 20.7667L35.5835 20.0083L40.4835 16.275L40.4252 16.2167C39.4335 14.9333 39.0252 13.3583 39.3168 11.7833C39.5502 10.2083 40.4252 8.80833 41.7085 7.875C44.1002 6.18333 47.7168 6.65 49.5835 8.98333C50.1668 9.74166 50.5752 10.5583 50.7502 11.4333C50.9835 12.4833 51.6252 13.3583 52.5585 13.825C53.3752 14.2333 54.0752 14.875 54.6585 15.6333C56.4085 18.025 55.8835 21.6417 53.6085 23.5083C52.3835 24.5583 50.8085 24.9667 49.2335 24.7917C47.6585 24.6167 46.2585 23.8 45.2668 22.5167L45.2085 22.4583L40.3668 26.25ZM45.2085 20.2417C45.3252 20.2417 45.4418 20.2417 45.5002 20.2417C46.1418 20.3 46.6668 20.65 47.0752 21.175C47.6585 21.9333 48.5335 22.4583 49.4668 22.575C50.4585 22.6917 51.3918 22.4 52.1502 21.7583C53.4918 20.65 53.7835 18.375 52.7918 16.975C52.4418 16.5083 52.0335 16.1583 51.5668 15.8667C49.9918 15.05 48.8835 13.65 48.5335 11.9C48.4168 11.375 48.1835 10.85 47.8335 10.3833C46.7252 9.04166 44.4502 8.75 43.0502 9.74167C42.2335 10.325 41.7085 11.1417 41.5918 12.075C41.4168 13.0083 41.7085 14 42.2918 14.7583C42.7002 15.2833 42.8752 15.8667 42.7585 16.5083C42.7002 17.0917 42.3502 17.675 41.8835 18.025L40.0168 19.4833C40.4835 19.8333 40.8335 20.1833 41.1835 20.65C41.5335 21.1167 41.7668 21.5833 42.0002 22.1083L43.8668 20.65C44.2752 20.4167 44.7418 20.2417 45.2085 20.2417Z" fill="#2E2E2E"/>
<path d="M7.90415 36.6416L6.22754 36.4164L5.91692 38.729L7.59353 38.9542L7.90415 36.6416Z" fill="#2E2E2E"/>
<path d="M20.3851 36.9901L18.7085 36.7649L18.3979 39.0775L20.0745 39.3027L20.3851 36.9901Z" fill="#2E2E2E"/>
<path d="M31.765 34.3619L30.0884 34.1367L29.7778 36.4493L31.4544 36.6745L31.765 34.3619Z" fill="#2E2E2E"/>
<path d="M14.9022 47.5451L13.2256 47.3199L12.915 49.6325L14.5916 49.8577L14.9022 47.5451Z" fill="#2E2E2E"/>
<path d="M18.9256 30.338L17.249 30.1129L16.9384 32.4254L18.615 32.6506L18.9256 30.338Z" fill="#2E2E2E"/>
<path d="M30.7142 24.7949L29.0376 24.5697L28.727 26.8823L30.4036 27.1075L30.7142 24.7949Z" fill="#2E2E2E"/>
<path d="M15.6331 0.875H13.2998V8.10833H15.6331V0.875Z" fill="#2E2E2E"/>
<path d="M8.74984 10.9667H6.4165V18.2H8.74984V10.9667Z" fill="#2E2E2E"/>
<path d="M22.575 8.69167H20.2417V15.925H22.575V8.69167Z" fill="#2E2E2E"/>
</g>
<defs>
<clipPath id="clip0_2_2626">
<rect width="56" height="56" fill="white"/>
</clipPath>
</defs>
</svg>
